<svg xmlns="http://www.w3.org/2000/svg" width="23.811" height="29.251" viewBox="0 0 23.811 29.251">
  <g id="Bookmark" transform="translate(0.75 0.75)">
    <path id="Path_33968" d="M10.608,22.824,2.069,27.5a1.423,1.423,0,0,1-1.9-.567h0A1.5,1.5,0,0,1,0,26.264V5.535C0,1.581,2.7,0,6.589,0h9.132c3.769,0,6.589,1.476,6.589,5.271V26.264a1.41,1.41,0,0,1-1.41,1.41,1.555,1.555,0,0,1-.685-.171l-8.592-4.678A1.067,1.067,0,0,0,10.608,22.824Z" transform="translate(0 0)" fill="none" stroke="#414141" stroke-linecap="round" stroke-linejoin="round" stroke-miterlimit="10" stroke-width="1.5"/>
    <path id="Line_209" d="M0,.458H10.5" transform="translate(5.864 8.965)" fill="none" stroke="#414141" stroke-linecap="round" stroke-linejoin="round" stroke-miterlimit="10" stroke-width="1.5"/>
  </g>
</svg>
