<svg xmlns="http://www.w3.org/2000/svg" width="18.128" height="22.578" viewBox="0 0 18.128 22.578">
  <g id="Iconly_Light_Profile" data-name="Iconly/Light/Profile" transform="translate(0.75 0.75)">
    <g id="Profile" transform="translate(0 0)">
      <circle id="Ellipse_736" cx="5.239" cy="5.239" r="5.239" transform="translate(3.071 0)" fill="none" stroke="#fff" stroke-linecap="round" stroke-linejoin="round" stroke-miterlimit="10" stroke-width="1.5"/>
      <path id="Path_33945" d="M0,3.307A2.429,2.429,0,0,1,.241,2.243c.5-1,1.917-1.536,3.091-1.777A18.407,18.407,0,0,1,5.9.105a27.471,27.471,0,0,1,4.808,0,18.618,18.618,0,0,1,2.569.361c1.174.241,2.589.723,3.091,1.777a2.489,2.489,0,0,1,0,2.138c-.5,1.054-1.917,1.536-3.091,1.766a17.233,17.233,0,0,1-2.569.371,28.314,28.314,0,0,1-3.914.06,4.458,4.458,0,0,1-.893-.06,16.912,16.912,0,0,1-2.559-.371C2.158,5.917.753,5.435.241,4.381A2.5,2.5,0,0,1,0,3.307Z" transform="translate(0 14.458)" fill="none" stroke="#fff" stroke-linecap="round" stroke-linejoin="round" stroke-miterlimit="10" stroke-width="1.5"/>
    </g>
  </g>
</svg>
