<svg id="Iconly_Light_Buy" data-name="Iconly/Light/Buy" xmlns="http://www.w3.org/2000/svg" width="26" height="26" viewBox="0 0 26 26">
  <g id="Buy" transform="translate(2.979 3.521)">
    <path id="Stroke_1" data-name="Stroke 1" d="M.828,0A.828.828,0,1,1,0,.829.829.829,0,0,1,.828,0Z" transform="translate(4.234 17.951)" fill="none" stroke="#200e32" stroke-linecap="round" stroke-linejoin="round" stroke-miterlimit="10" stroke-width="1.5"/>
    <path id="Stroke_3" data-name="Stroke 3" d="M.829,0A.828.828,0,1,1,0,.829.829.829,0,0,1,.829,0Z" transform="translate(16.423 17.951)" fill="none" stroke="#200e32" stroke-linecap="round" stroke-linejoin="round" stroke-miterlimit="10" stroke-width="1.5"/>
    <path id="Stroke_5" data-name="Stroke 5" d="M0,0,2.253.39,3.3,12.819A1.953,1.953,0,0,0,5.243,14.61H17.065A1.954,1.954,0,0,0,19,12.935l1.028-7.1A1.452,1.452,0,0,0,18.589,4.17H2.615" transform="translate(0)" fill="none" stroke="#200e32" stroke-linecap="round" stroke-linejoin="round" stroke-miterlimit="10" stroke-width="1.5"/>
    <path id="Stroke_7" data-name="Stroke 7" d="M0,.5H3" transform="translate(12.323 7.674)" fill="none" stroke="#200e32" stroke-linecap="round" stroke-linejoin="round" stroke-miterlimit="10" stroke-width="1.5"/>
  </g>
</svg>
