<svg id="Iconly_Bold_Heart" data-name="Iconly/Bold/Heart" xmlns="http://www.w3.org/2000/svg" width="16.324" height="15.508" viewBox="0 0 16.324 15.508">
  <g id="Heart" transform="translate(0 0)">
    <path id="Heart-2" data-name="Heart" d="M8.189,0h0l-.211.13a31.149,31.149,0,0,0-5.2,4.049A10.6,10.6,0,0,0,.321,8.1,6.321,6.321,0,0,0,.438,12.4a4.966,4.966,0,0,0,3.092,2.886,3.677,3.677,0,0,0,.726.17h.1a4.656,4.656,0,0,0,.686.049h.09a5.114,5.114,0,0,0,1.494-.27h.048a.27.27,0,0,0,.073-.048,2.755,2.755,0,0,0,.514-.213l.31-.138a2.144,2.144,0,0,0,.233-.155c.047-.034.087-.063.118-.082l.033-.019a1.987,1.987,0,0,0,.211-.135,5.08,5.08,0,0,0,3.107,1.061h.036a4.755,4.755,0,0,0,1.518-.237A4.913,4.913,0,0,0,15.891,12.4a6.46,6.46,0,0,0,.126-4.3,10.432,10.432,0,0,0-2.456-3.926A31.506,31.506,0,0,0,8.393.123L8.189,0Zm4.006,12.963a.66.66,0,0,1-.618-.443.669.669,0,0,1,.408-.84,1.368,1.368,0,0,0,.873-1.282v-.025a.7.7,0,0,1,.155-.506.686.686,0,0,1,.465-.237.672.672,0,0,1,.645.621v.1a2.694,2.694,0,0,1-1.722,2.58A.636.636,0,0,1,12.194,12.963Z" transform="translate(16.324 15.508) rotate(180)" fill="#707070"/>
  </g>
</svg>
