<svg xmlns="http://www.w3.org/2000/svg" width="28.909" height="27.465" viewBox="0 0 28.909 27.465">
  <g id="Iconly_Light_Heart" data-name="Iconly/Light/Heart" transform="translate(0.777 0.801)">
    <g id="Heart" transform="translate(0 0)">
      <path id="Path_33961" d="M13.333,25.7a50.159,50.159,0,0,1-8.67-6.75A17.263,17.263,0,0,1,.537,12.375C-1.012,7.559.8,2.046,5.861.414a8.607,8.607,0,0,1,7.81,1.316h0A8.62,8.62,0,0,1,21.482.414c5.064,1.632,6.886,7.145,5.337,11.961a17.263,17.263,0,0,1-4.126,6.579,50.159,50.159,0,0,1-8.67,6.75l-.338.211Z" transform="translate(0 0)" fill="none" stroke="#414141" stroke-linecap="round" stroke-linejoin="round" stroke-miterlimit="10" stroke-width="1.5"/>
      <path id="Path_33964" d="M0,0A4,4,0,0,1,2.76,3.487" transform="translate(19.061 5.835)" fill="none" stroke="#414141" stroke-linecap="round" stroke-linejoin="round" stroke-miterlimit="10" stroke-width="1.5"/>
    </g>
  </g>
</svg>
