<svg id="Iconly_Light_Bookmark" data-name="Iconly/Light/Bookmark" xmlns="http://www.w3.org/2000/svg"  viewBox="0 0 26 26">
  <g id="Bookmark" transform="translate(4.654 3.01)">
    <path id="Path_33968" d="M7.982,17.175l-6.426,3.52a1.071,1.071,0,0,1-1.428-.426h0A1.13,1.13,0,0,1,0,19.763V4.165C0,1.19,2.033,0,4.958,0H11.83c2.836,0,4.958,1.111,4.958,3.966v15.8a1.061,1.061,0,0,1-1.061,1.061,1.17,1.17,0,0,1-.516-.129l-6.465-3.52A.8.8,0,0,0,7.982,17.175Z" transform="translate(0)" fill="none" stroke="" stroke-linecap="round" stroke-linejoin="round" stroke-miterlimit="10" stroke-width="1.5"/>
    <path id="Line_209" d="M0,.458H7.9" transform="translate(4.413 6.632)" fill="none" stroke="" stroke-linecap="round" stroke-linejoin="round" stroke-miterlimit="10" stroke-width="1.5"/>
  </g>
</svg>
