<svg id="Iconly_Light_Category" data-name="Iconly/Light/Category" xmlns="http://www.w3.org/2000/svg" width="26" height="26" viewBox="0 0 26 26">
  <g id="Category" transform="translate(2.167 2.167)">
    <path id="Stroke_1" data-name="Stroke 1" d="M2.653,0H6.192A2.664,2.664,0,0,1,8.844,2.676V6.244A2.665,2.665,0,0,1,6.192,8.92H2.653A2.665,2.665,0,0,1,0,6.244V2.676A2.665,2.665,0,0,1,2.653,0Z" transform="translate(12.823)" fill="none" stroke="#fff" stroke-linecap="round" stroke-linejoin="round" stroke-miterlimit="10" stroke-width="1.5"/>
    <path id="Stroke_3" data-name="Stroke 3" d="M2.653,0H6.191A2.665,2.665,0,0,1,8.844,2.676V6.244A2.665,2.665,0,0,1,6.191,8.92H2.653A2.665,2.665,0,0,1,0,6.244V2.676A2.665,2.665,0,0,1,2.653,0Z" transform="translate(0)" fill="none" stroke="#fff" stroke-linecap="round" stroke-linejoin="round" stroke-miterlimit="10" stroke-width="1.5"/>
    <path id="Stroke_5" data-name="Stroke 5" d="M2.653,0H6.191A2.665,2.665,0,0,1,8.844,2.677V6.244A2.665,2.665,0,0,1,6.191,8.92H2.653A2.665,2.665,0,0,1,0,6.244V2.677A2.665,2.665,0,0,1,2.653,0Z" transform="translate(0 12.746)" fill="none" stroke="#fff" stroke-linecap="round" stroke-linejoin="round" stroke-miterlimit="10" stroke-width="1.5"/>
    <path id="Stroke_7" data-name="Stroke 7" d="M2.653,0H6.192A2.665,2.665,0,0,1,8.844,2.677V6.244A2.664,2.664,0,0,1,6.192,8.92H2.653A2.665,2.665,0,0,1,0,6.244V2.677A2.665,2.665,0,0,1,2.653,0Z" transform="translate(12.823 12.746)" fill="none" stroke="#fff" stroke-linecap="round" stroke-linejoin="round" stroke-miterlimit="10" stroke-width="1.5"/>
  </g>
</svg>
