<svg id="Iconly_Bold_Time_Circle" data-name="Iconly/Bold/Time Circle" xmlns="http://www.w3.org/2000/svg" width="16.324" height="16.324" viewBox="0 0 16.324 16.324">
  <g id="Time_Circle" data-name="Time Circle" transform="translate(0 0)">
    <path id="Time_Circle-2" data-name="Time Circle" d="M8.162,0a8.162,8.162,0,1,0,0,16.324A8.165,8.165,0,0,0,13.936,2.388,8.11,8.11,0,0,0,8.162,0ZM7.876,12.3a.613.613,0,0,1-.612-.612V7.566a.61.61,0,0,1,.3-.522l3.2-1.91a.624.624,0,0,1,.318-.09.608.608,0,0,1,.522.3.617.617,0,0,1-.212.84L8.489,7.917v3.771A.613.613,0,0,1,7.876,12.3Z" transform="translate(16.324 16.324) rotate(180)" fill="#707070"/>
  </g>
</svg>
