<svg id="Iconly_Light_Ticket_Star" data-name="Iconly/Light/Ticket Star" xmlns="http://www.w3.org/2000/svg"  viewBox="0 0 26 26">
  <g id="Ticket_Star" data-name="Ticket Star" transform="translate(2.979 4.062)">
    <path id="Stroke_1" data-name="Stroke 1" d="M16.366,18.056a3.675,3.675,0,0,0,3.676-3.676V11.455a2.426,2.426,0,1,1,0-4.851l0-2.928A3.675,3.675,0,0,0,16.365,0H3.677A3.676,3.676,0,0,0,0,3.676V6.7A2.343,2.343,0,0,1,2.426,9.03,2.422,2.422,0,0,1,0,11.455V14.38a3.675,3.675,0,0,0,3.675,3.676Z" fill="none" stroke="" stroke-linecap="round" stroke-linejoin="round" stroke-miterlimit="10" stroke-width="1.5"/>
    <path id="Stroke_3" data-name="Stroke 3" d="M3.472,5.61,5.357,6.6a.241.241,0,0,0,.35-.254l-.361-2.1L6.873,2.762a.241.241,0,0,0-.133-.411L4.632,2.045,3.688.134a.24.24,0,0,0-.431,0L2.313,2.045.206,2.352a.241.241,0,0,0-.133.411L1.6,4.247l-.361,2.1a.241.241,0,0,0,.35.254L3.472,5.61Z" transform="translate(6.548 5.336)" fill="none" stroke="" stroke-linecap="round" stroke-linejoin="round" stroke-miterlimit="10" stroke-width="1.5"/>
  </g>
</svg>
