<svg xmlns="http://www.w3.org/2000/svg" width="30" height="30" viewBox="0 0 30 30">
  <g id="Iconly_Bold_Info_Circle" data-name="Iconly/Bold/Info Circle" transform="translate(-3 -2.999)">
    <g id="Info_Circle" data-name="Info Circle" transform="translate(3 2.999)">
      <path id="Info_Circle-2" data-name="Info Circle" d="M15,30a14.994,14.994,0,1,1,10.611-4.394A15.017,15.017,0,0,1,15,30Zm0-10.6a1.306,1.306,0,0,0-1.305,1.3A1.313,1.313,0,1,0,15,19.4Zm0-11.4a1.338,1.338,0,0,0-1.32,1.32v6.63a1.313,1.313,0,0,0,2.626,0V9.315A1.314,1.314,0,0,0,15,7.995Z" fill="#00b448"/>
    </g>
  </g>
</svg>
