<svg id="Iconly_Light_Wallet" data-name="Iconly/Light/Wallet" xmlns="http://www.w3.org/2000/svg"  viewBox="0 0 26 26">
  <g id="Wallet" transform="translate(2.708 3.25)">
    <path id="Stroke_1" data-name="Stroke 1" d="M7.3,5.831H2.917A2.916,2.916,0,1,1,2.917,0H7.3" transform="translate(13.432 6.514)" fill="none" stroke="" stroke-linecap="round" stroke-linejoin="round" stroke-miterlimit="10" stroke-width="1.5"/>
    <path id="Stroke_3" data-name="Stroke 3" d="M.638.456H.3" transform="translate(16.207 8.907)" fill="none" stroke="" stroke-linecap="round" stroke-linejoin="round" stroke-miterlimit="10" stroke-width="1.5"/>
    <path id="Stroke_5" data-name="Stroke 5" d="M5.685,0h9.364a5.685,5.685,0,0,1,5.685,5.685V13.46a5.685,5.685,0,0,1-5.685,5.685H5.685A5.685,5.685,0,0,1,0,13.46V5.685A5.685,5.685,0,0,1,5.685,0Z" transform="translate(0)" fill="none" stroke="" stroke-linecap="round" stroke-linejoin="round" stroke-miterlimit="10" stroke-width="1.5"/>
    <path id="Stroke_7" data-name="Stroke 7" d="M0,.456H5.849" transform="translate(4.914 4.461)" fill="none" stroke="" stroke-linecap="round" stroke-linejoin="round" stroke-miterlimit="10" stroke-width="1.5"/>
  </g>
</svg>
