<svg xmlns="http://www.w3.org/2000/svg" width="19.917" height="24.847" viewBox="0 0 19.917 24.847">
  <g id="Profile" transform="translate(0.75 0.75)">
    <circle id="Ellipse_736" cx="5.803" cy="5.803" r="5.803" transform="translate(3.402 0)" fill="none" stroke="#a956f1" stroke-linecap="round" stroke-linejoin="round" stroke-miterlimit="10" stroke-width="1.5"/>
    <path id="Path_33945" d="M0,3.663A2.69,2.69,0,0,1,.267,2.485C.823,1.373,2.39.784,3.691.517a20.389,20.389,0,0,1,2.846-.4,30.427,30.427,0,0,1,5.325,0,20.622,20.622,0,0,1,2.846.4c1.3.267,2.868.8,3.424,1.968a2.757,2.757,0,0,1,0,2.368c-.556,1.167-2.123,1.7-3.424,1.957a19.088,19.088,0,0,1-2.846.411,31.361,31.361,0,0,1-4.336.067,4.938,4.938,0,0,1-.989-.067A18.732,18.732,0,0,1,3.7,6.809C2.39,6.553.834,6.02.267,4.853A2.768,2.768,0,0,1,0,3.663Z" transform="translate(0 16.014)" fill="none" stroke="#a956f1" stroke-linecap="round" stroke-linejoin="round" stroke-miterlimit="10" stroke-width="1.5"/>
  </g>
</svg>
