<svg id="whatsapp" xmlns="http://www.w3.org/2000/svg" width="31.676" height="31.934" viewBox="0 0 31.676 31.934">
  <path id="Path_244" data-name="Path 244" d="M16.754.019A15.844,15.844,0,0,0,3.414,23.031L1.732,31.193a.616.616,0,0,0,.746.724l8-1.895a15.839,15.839,0,1,0,6.277-30ZM26.3,24.607a12.409,12.409,0,0,1-14.288,2.339l-1.114-.555-4.9,1.162,1.032-5.011-.549-1.075a12.412,12.412,0,0,1,2.284-14.4A12.4,12.4,0,1,1,26.3,24.607Z" transform="translate(-1.69 0)" fill="#7ad06d"/>
  <path id="Path_245" data-name="Path 245" d="M120.247,118.486l-3.068-.881a1.143,1.143,0,0,0-1.132.3l-.75.764a1.118,1.118,0,0,1-1.215.256,16.377,16.377,0,0,1-5.284-4.659,1.118,1.118,0,0,1,.088-1.239l.655-.847a1.143,1.143,0,0,0,.141-1.162l-1.291-2.919a1.144,1.144,0,0,0-1.786-.409,5.16,5.16,0,0,0-2,3.044c-.218,2.149.7,4.859,4.19,8.112,4.027,3.759,7.252,4.255,9.352,3.747A5.16,5.16,0,0,0,120.9,120.2,1.144,1.144,0,0,0,120.247,118.486Z" transform="translate(-96.723 -99.214)" fill="#7ad06d"/>
</svg>
