<svg id="Layer_1" data-name="Layer 1" xmlns="http://www.w3.org/2000/svg" viewBox="0 0 2046.69 6389.61"><defs><style>.cls-1{fill:#222733;}</style></defs><g id="background"><path id="_pt4dmmnHPiXc1v5Z9Lus0" data-name=" pt4dmmnHPiXc1v5Z9Lus0" class="cls-1" d="M2023.37,1792c-281.33,0-509.57,228.13-509.57,509.52,0,187.61,152.1,339.71,339.71,339.71s339.72-152.1,339.72-339.71c-.42-125.08-102.15-226.15-227.23-225.73-124.51.41-225.33,101.25-225.73,225.76a113.25,113.25,0,0,0,226.49,0H1853.51a113.24,113.24,0,0,1,226.46-2.88c0,.63,0,1.26,0,1.88v1c0,125.07-101.43,226.45-226.5,226.44S1627.06,2426.6,1627,2301.56c0-187.62,152.07-339.73,339.69-339.74s339.72,152.07,339.73,339.69h0c-.07,250.14-202.81,452.93-452.95,452.93s-452.93-202.79-452.93-452.93h0c0-343.93,278.9-622.76,622.81-622.76a623.7,623.7,0,0,1,129.87,13.77,675.86,675.86,0,0,0-299.73-70.39c-375.21,0-679.42,304.21-679.42,679.43S1478.32,2981,1853.53,2981,2533,2676.77,2533,2301.56c0-17.58-1.33-34.84-2.65-52.08C2504.2,1992.54,2287.22,1792,2023.37,1792Z"/><path id="_pt4dmmnHPiXc1v5Z9Lus0-2" data-name=" pt4dmmnHPiXc1v5Z9Lus0-2" class="cls-1" d="M1817.3,234.2c-299.12,0-541.79,242.56-541.79,541.74,0,199.48,161.72,361.2,361.19,361.2s361.15-161.75,361.19-361.2c0-132.86-107.76-240.75-240.79-240.75S1516.29,643.07,1516.29,776a120.41,120.41,0,0,0,240.81.77V776H1636.7a120.4,120.4,0,0,1,240.79,0c0,133-107.84,240.81-240.79,240.81S1395.91,909,1395.91,776c0-199.4,161.72-361.18,361.2-361.18S2118.23,576.54,2118.3,776h0c-.07,266-215.63,481.57-481.6,481.57S1155.11,1041.92,1155.11,776h0c0-365.67,296.54-662.15,662.19-662.15a662.83,662.83,0,0,1,138.09,14.61c-96.2-47.49-204.17-74.84-318.69-74.84C1237.76,53.58,914.31,377,914.31,776s323.45,722.38,722.39,722.38S2359.09,1174.91,2359.09,776c0-18.69-1.41-37-2.81-55.37C2328.57,447.44,2097.84,234.2,1817.3,234.2Z"/><path id="_pt4dmmnHPiXc1v5Z9Lus0-3" data-name=" pt4dmmnHPiXc1v5Z9Lus0-3" class="cls-1" d="M179.49,1104.68c-260.19,0-471.26,211-471.26,471.22,0,173.51,140.66,314.18,314.17,314.18s314.13-140.67,314.18-314.18c0-115.57-93.74-209.42-209.49-209.42S-82.41,1460.33-82.41,1576a104.75,104.75,0,0,0,209.5,0H22.43a104.75,104.75,0,0,1,209.49,0c0,115.66-93.74,209.49-209.41,209.49h0C-93.15,1785.46-187,1691.73-187,1576c0-173.46,140.68-314.18,314.18-314.18s314.11,140.68,314.18,314.14h0c0,231.34-187.57,418.89-418.91,418.89s-419-187.57-419-418.92h0c0-318.07,257.93-575.95,576-575.95a575.73,575.73,0,0,1,120.16,12.74c-83.72-41.27-177.6-65.1-277.21-65.1-347,0-628.36,281.35-628.36,628.36s281.35,628.36,628.39,628.36S650.79,1923,650.79,1576c0-16.25-1.22-32.22-2.44-48.16C624.18,1290.16,423.51,1104.68,179.49,1104.68Z"/><path id="_pt4dmmnHPiXc1v5Z9Lus0-4" data-name=" pt4dmmnHPiXc1v5Z9Lus0-4" class="cls-1" d="M730.77,2219.9c-208,0-376.85,168.71-376.85,376.79,0,138.73,112.48,251.22,251.22,251.22s251.21-112.48,251.25-251.22c0-92.5-75-167.46-167.52-167.44a167.47,167.47,0,0,0-167.45,167.46,83.75,83.75,0,0,0,167.49,1.6v-1.6H605.17a83.74,83.74,0,0,1,167.47,0,167.48,167.48,0,0,1-334.95,0c0-138.67,112.49-251.2,251.22-251.2S940.07,2458,940.11,2596.69h0c0,185-150,334.95-334.94,334.95s-335-150-335-334.95h0c0-254.34,206.25-460.53,460.57-460.53a460.06,460.06,0,0,1,96.05,10.19,499.77,499.77,0,0,0-221.65-52.06c-277.48,0-502.45,225-502.45,502.44s225,502.44,502.45,502.44,502.43-225,502.43-502.44c0-13-1-25.76-2-38.51C1086.35,2368.21,925.9,2219.9,730.77,2219.9Z"/><path id="_pt4dmmnHPiXc1v5Z9Lus0-5" data-name=" pt4dmmnHPiXc1v5Z9Lus0-5" class="cls-1" d="M1071,1448.18c-116.72,0-211.34,94.66-211.36,211.34a140.91,140.91,0,1,0,281.81.12v-.12h0a93.95,93.95,0,0,0-187.88,0,47,47,0,0,0,94,.5v-.5h-47a47,47,0,1,1,93.93,0,93.94,93.94,0,1,1-187.87,0h0a140.91,140.91,0,1,1,281.81,0h0c-.28,103.76-84.62,187.66-188.38,187.38-103.38-.28-187.1-84-187.38-187.38h0c0-142.65,115.69-258.31,258.34-258.31a257.9,257.9,0,0,1,53.86,5.72,280.33,280.33,0,0,0-124.32-29.2c-155.64,0-281.82,126.19-281.82,281.82s126.18,281.82,281.82,281.82,281.82-126.19,281.82-281.82c0-7.29-.55-14.45-1.1-21.6A211.39,211.39,0,0,0,1071,1448.18Z"/><path id="_pt4dmmnHPiXc1v5Z9Lus0-6" data-name=" pt4dmmnHPiXc1v5Z9Lus0-6" class="cls-1" d="M405.58,165.33c-185.09,0-335.25,150.09-335.25,335.21C70.33,624,170.4,724,293.83,724S517.29,624,517.33,500.54a149,149,0,0,0-298,0,74.5,74.5,0,1,0,149,0h-74.5a74.5,74.5,0,0,1,149,0,149,149,0,0,1-149,149h0a149,149,0,0,1-149-149c0-123.39,100.07-223.5,223.49-223.5S591.78,377.17,591.83,500.54h0c0,164.58-133.42,298-298,298s-298-133.42-298-298h0c0-226.26,183.49-409.71,409.75-409.71A410.44,410.44,0,0,1,491,99.89a444.67,444.67,0,0,0-197.2-46.31c-246.85,0-447,200.15-447,447s200.13,447,447,447,447-200.15,447-447c0-11.56-.86-22.92-1.74-34.26C721.91,297.27,579.17,165.33,405.58,165.33Z"/><path id="_pt4dmmnHPiXc1v5Z9Lus0-6-2" data-name=" pt4dmmnHPiXc1v5Z9Lus0-6-2" class="cls-1" d="M1633.68,3331.29c-349.72,0-633.43,283.59-633.43,633.37,0,233.2,189.07,422.29,422.28,422.29s422.23-189.07,422.29-422.29c0-155.34-126-281.49-281.53-281.49s-281.53,126.11-281.53,281.53a140.77,140.77,0,0,0,281.53,0H1422.53a140.77,140.77,0,0,1,281.52,0c0,155.46-126,281.51-281.47,281.52h0c-155.47,0-281.52-126-281.52-281.5,0-233.15,189.08-422.29,422.28-422.29s422.21,189.08,422.3,422.23h0c-.08,310.9-252.11,563-563.06,563s-563.06-252.09-563.06-563h0c0-427.52,346.7-774.14,774.21-774.14a774.58,774.58,0,0,1,161.44,17.13c-112.52-55.47-238.71-87.5-372.59-87.5-466.42,0-844.59,378.17-844.59,844.59s378.17,844.58,844.59,844.58,844.54-378.17,844.54-844.6c0-21.85-1.63-43.3-3.28-64.73C2231.39,3580.59,1961.66,3331.29,1633.68,3331.29Z"/><path id="_pt4dmmnHPiXc1v5Z9Lus0-5-2" data-name=" pt4dmmnHPiXc1v5Z9Lus0-5" class="cls-1" d="M169.62,3300.34C-34.53,3300.34-200,3465.9-200,3670c-.06,136.11,110.23,246.49,246.34,246.55s246.5-110.23,246.55-246.34V3670h0a164.31,164.31,0,0,0-328.61,0,82.17,82.17,0,0,0,164.32.87V3670H46.4a82.15,82.15,0,1,1,164.3,0,164.3,164.3,0,1,1-328.6,0h0c0-136.11,110.34-246.45,246.45-246.45S375,3533.87,375,3670h0c-.48,181.48-148,328.21-329.48,327.72-180.8-.48-327.24-146.94-327.73-327.72h0c0-249.5,202.34-451.78,451.84-451.78a449.94,449.94,0,0,1,94.21,10,490.32,490.32,0,0,0-217.45-51.08c-272.2,0-492.89,220.71-492.89,492.91s220.69,492.89,492.89,492.89S539.29,3942.23,539.29,3670c0-12.75-1-25.27-1.93-37.78C518,3443.71,359.16,3300.36,169.62,3300.34Z"/><path id="_pt4dmmnHPiXc1v5Z9Lus0-5-3" data-name=" pt4dmmnHPiXc1v5Z9Lus0-5" class="cls-1" d="M220.66,4511.15c-279.49,0-506,226.65-506.1,506.05-.08,186.34,150.92,337.46,337.26,337.54s337.46-150.91,337.54-337.25v-.29h0c-1.28-124.23-103-223.91-227.26-222.63-122.43,1.26-221.37,100.2-222.63,222.63a112.49,112.49,0,0,0,225,1.19v-1.19H52a112.47,112.47,0,0,1,224.94,0c0,124.23-100.71,224.93-224.94,224.93S-173,5141.43-173,5017.2h0c0-186.34,151.06-337.4,337.4-337.4s337.4,151.06,337.4,337.4h0c-.67,248.46-202.63,449.34-451.08,448.67-247.53-.66-448-201.17-448.68-448.67h0c0-341.58,277-618.52,618.59-618.52a617.15,617.15,0,0,1,129,13.69,671.24,671.24,0,0,0-297.7-69.92c-372.66,0-674.8,302.16-674.8,674.82s302.14,674.8,674.8,674.8,674.82-302.14,674.82-674.8c0-17.46-1.31-34.59-2.64-51.72C697.59,4707.42,480.15,4511.17,220.66,4511.15Z"/><path id="_pt4dmmnHPiXc1v5Z9Lus0-5-4" data-name=" pt4dmmnHPiXc1v5Z9Lus0-5" class="cls-1" d="M2205.19,5175.75c-262.58,0-475.43,212.94-475.48,475.44-.07,175.07,141.79,317.05,316.86,317.12s317-141.78,317.12-316.85v-.27h0c-1.2-116.72-96.8-210.36-213.51-209.16-115,1.18-208,94.14-209.16,209.16a105.68,105.68,0,0,0,211.34,1.12v-1.12H2046.7a105.67,105.67,0,0,1,211.33,0c0,116.71-94.62,211.32-211.33,211.32s-211.32-94.61-211.32-211.32h0c0-175.07,141.92-317,317-317s317,141.92,317,317h0c-.63,233.42-190.37,422.15-423.79,421.53-232.55-.63-420.9-189-421.53-421.53h0c0-320.91,260.26-581.1,581.16-581.1A579.32,579.32,0,0,1,2326.37,5083a630.62,630.62,0,0,0-279.69-65.7c-350.12,0-634,283.88-634,634s283.86,634,634,634,634-283.86,634-634c0-16.41-1.24-32.51-2.49-48.6C2653.26,5360.15,2449,5175.77,2205.19,5175.75Z"/><path id="_pt4dmmnHPiXc1v5Z9Lus0-5-5" data-name=" pt4dmmnHPiXc1v5Z9Lus0-5" class="cls-1" d="M996.22,5563.05c-185.34,0-335.57,150.29-335.6,335.56,0,123.57,100.07,223.78,223.64,223.83s223.77-100.07,223.82-223.63v-.2h0a149.17,149.17,0,0,0-298.32,0,74.59,74.59,0,0,0,149.17.79v-.79H884.35a74.58,74.58,0,0,1,149.16,0,149.16,149.16,0,1,1-298.31,0h0c0-123.56,100.17-223.73,223.73-223.73s223.73,100.17,223.73,223.73h0c-.44,164.76-134.36,298-299.11,297.52-164.14-.44-297.08-133.4-297.52-297.52h0c0-226.5,183.69-410.14,410.19-410.14a409,409,0,0,1,85.52,9.08,445,445,0,0,0-197.4-46.37c-247.12,0-447.47,200.37-447.47,447.48s200.35,447.46,447.47,447.46,447.48-200.35,447.48-447.46c0-11.58-.88-22.94-1.76-34.3C1312.47,5693.2,1168.28,5563.06,996.22,5563.05Z"/><path id="_pt4dmmnHPiXc1v5Z9Lus0-5-6" data-name=" pt4dmmnHPiXc1v5Z9Lus0-5" class="cls-1" d="M1201.75,4919.42c-121.94,0-220.79,98.89-220.81,220.79a147.21,147.21,0,1,0,294.41.12v-.12h0a98.15,98.15,0,0,0-196.28,0,49.08,49.08,0,0,0,98.15.52v-.52h-49.07a49.07,49.07,0,1,1,98.13,0,98.14,98.14,0,0,1-196.27,0h0a147.21,147.21,0,1,1,294.41,0h0c-.29,108.4-88.4,196-196.8,195.75-108-.29-195.46-87.77-195.75-195.75h0c0-149,120.85-269.86,269.88-269.86a268.71,268.71,0,0,1,56.27,6,292.81,292.81,0,0,0-129.88-30.51c-162.59,0-294.41,131.83-294.41,294.42s131.82,294.41,294.41,294.41,294.42-131.82,294.42-294.41c0-7.62-.58-15.09-1.16-22.57A220.82,220.82,0,0,0,1201.75,4919.42Z"/></g></svg>