<svg id="logo" xmlns="http://www.w3.org/2000/svg" width="80.303" height="80.303" viewBox="0 0 80.303 80.303">
    <path id="_pt4dmmnHPiXc1v5Z9Lus0" d="M78.312,38.16A30.116,30.116,0,0,0,48.2,68.271a20.076,20.076,0,0,0,40.151,0,13.384,13.384,0,0,0-26.768,0,6.692,6.692,0,1,0,13.384,0H68.274a6.692,6.692,0,1,1,13.383,0,13.383,13.383,0,0,1-26.767,0,20.076,20.076,0,0,1,40.151,0v0a26.768,26.768,0,0,1-53.536,0v0A36.785,36.785,0,0,1,85.987,32.282a40.126,40.126,0,1,0,22.439,35.992c0-1.039-.078-2.059-.157-3.078A30.117,30.117,0,0,0,78.312,38.16Z" transform="translate(-28.123 -28.123)" fill="#fff"/>
  </svg>
  