<svg id="Layer_1" data-name="Layer 1" xmlns="http://www.w3.org/2000/svg" xmlns:xlink="http://www.w3.org/1999/xlink" viewBox="0 0 1080 1080"><defs><style>.cls-1,.cls-5{fill:none;}.cls-2{clip-path:url(#clip-path);}.cls-3{fill:url(#linear-gradient);}.cls-4{clip-path:url(#clip-path-2);}.cls-5{stroke:#000;stroke-miterlimit:10;stroke-width:6px;}.cls-6{font-size:133px;font-family:MyriadPro-Regular, Myriad Pro;}</style><clipPath id="clip-path"><path class="cls-1" d="M235.45,627.84,169.1,683.9a10.27,10.27,0,0,1-16-8.52V226.33a22.39,22.39,0,0,1,22.39-22.39h44.79a22.39,22.39,0,0,1,22.39,22.39V614.26A16.36,16.36,0,0,1,235.45,627.84Z"/></clipPath><linearGradient id="linear-gradient" x1="128.76" y1="447.64" x2="612.86" y2="447.64" gradientUnits="userSpaceOnUse"><stop offset="0" stop-color="#4b7bbe"/><stop offset="1" stop-color="#705fa9"/></linearGradient><clipPath id="clip-path-2"><path class="cls-1" d="M392.23,434.93V538.87L567.35,425.49s0-52.42,0-85.69c0-21-24.06-4.15-24.06-4.15L437.41,405.24C504.21,351.89,453.74,259,453.74,259s-58-87.22-154.4-35.08-46.55,173.25-19,181.16l-36.19,23.78L242.7,529.42Zm-33.47-66.58a45.16,45.16,0,1,1,45.16-45.16A45.16,45.16,0,0,1,358.76,368.35Z"/></clipPath></defs><title>Untitled-1</title><g class="cls-2"><rect class="cls-3" x="128.76" y="198.33" width="484.1" height="498.63"/></g><g class="cls-4"><rect class="cls-3" x="128.76" y="198.33" width="484.1" height="498.63"/></g><path class="cls-5" d="M235.45,627.84,169.1,683.9a10.27,10.27,0,0,1-16-8.52V226.33a22.39,22.39,0,0,1,22.39-22.39h44.79a22.39,22.39,0,0,1,22.39,22.39V614.26A16.36,16.36,0,0,1,235.45,627.84Z"/><path class="cls-5" d="M392.23,434.93V538.87L567.35,425.49s0-52.42,0-85.69c0-21-24.06-4.15-24.06-4.15L437.41,405.24C504.21,351.89,453.74,259,453.74,259s-58-87.22-154.4-35.08-46.55,173.25-19,181.16l-36.19,23.78L242.7,529.42Zm-33.47-66.58a45.16,45.16,0,1,1,45.16-45.16A45.16,45.16,0,0,1,358.76,368.35Z"/><path class="cls-5" d="M833.69,480.68v76.06a12.36,12.36,0,0,1-5.57,10.33L677,683.44a11.59,11.59,0,0,1-18.66-9.18V595.89a12.36,12.36,0,0,0-19.15-10.33L489.47,684a12.36,12.36,0,0,1-19.15-10.33V599.29A12.36,12.36,0,0,1,475.89,589L727.52,423.59a12.36,12.36,0,0,1,19.15,10.33V492a12.36,12.36,0,0,0,19.15,10.33l48.7-32A12.36,12.36,0,0,1,833.69,480.68Z"/><path class="cls-5" d="M916,627.84,849.68,683.9a10.27,10.27,0,0,1-16-8.52V226.33a22.39,22.39,0,0,1,22.39-22.39h44.79a22.39,22.39,0,0,1,22.39,22.39V614.26A16.36,16.36,0,0,1,916,627.84Z"/><path class="cls-5" d="M658.38,364l-91,61.54V224.43a20.5,20.5,0,0,1,20.5-20.5h48.77a20.5,20.5,0,0,1,20.5,20.3Z"/><circle class="cls-5" cx="510.76" cy="300.24" r="22.21"/><circle class="cls-5" cx="801.23" cy="662.22" r="22.21"/><circle class="cls-5" cx="756.82" cy="662.22" r="22.21"/><path class="cls-5" d="M318.95,686.87,730.08,421.71a36.24,36.24,0,0,0,16.6-30.45V306.94c0-45.36-50.5-72.45-88.29-47.37h0V364L392.22,538.87V434.93l-88.29,58V678.68A9.74,9.74,0,0,0,318.95,686.87Z"/><text class="cls-6" transform="translate(141.99 812.66)">irannova.shop</text></svg>