<svg width="71" height="71" viewBox="0 0 71 71" fill="none" xmlns="http://www.w3.org/2000/svg">
<rect x="35.3553" y="0.707107" width="49" height="49" rx="5.5" transform="rotate(45 35.3553 0.707107)" stroke="url(#paint0_linear_76_409)"/>
<path d="M43.784 22C47.21 22 49.9985 24.763 49.9985 28.1577L50 32.1737C50 32.468 49.8815 32.7533 49.6715 32.9614C49.46 33.171 49.175 33.2884 48.875 33.2884C47.6435 33.2884 46.6415 34.2812 46.6415 35.5015C46.6415 36.7217 47.6435 37.7146 48.875 37.7146C49.496 37.7146 50 38.214 50 38.8293V42.8438C50 46.2385 47.213 49 43.787 49H26.2145C22.7885 49 20 46.2385 20 42.8438V38.8293C20 38.214 20.504 37.7146 21.125 37.7146C22.358 37.7146 23.36 36.7217 23.36 35.5015C23.36 34.3125 22.3985 33.4177 21.125 33.4177C20.8265 33.4177 20.5415 33.3003 20.33 33.0907C20.1185 32.8812 20 32.5973 20 32.303L20.003 28.1577C20.003 24.763 22.79 22 26.216 22H43.784ZM35.003 29.7302C34.577 29.7302 34.196 29.965 34.0055 30.3426L32.912 32.5378L30.473 32.8901C30.0515 32.9495 29.7065 33.2349 29.573 33.6362C29.441 34.0375 29.5475 34.4715 29.8535 34.7658L31.622 36.472L31.205 38.8843C31.133 39.3005 31.3025 39.7136 31.6475 39.9619C31.8425 40.1001 32.069 40.1714 32.2985 40.1714C32.474 40.1714 32.651 40.1283 32.813 40.0436L35 38.9051L37.1825 40.0406C37.5605 40.2413 38.009 40.2101 38.3525 39.9604C38.699 39.7136 38.8685 39.3005 38.7965 38.8843L38.378 36.472L40.1465 34.7658C40.454 34.4715 40.5605 34.0375 40.427 33.6362C40.295 33.2349 39.95 32.9495 39.533 32.8916L37.0895 32.5378L35.996 30.344C35.8085 29.9665 35.4275 29.7317 35.003 29.7302Z" fill="#9B51E0"/>
<defs>
<linearGradient id="paint0_linear_76_409" x1="31.6197" y1="56.25" x2="99.2458" y2="47.9452" gradientUnits="userSpaceOnUse">
<stop stop-color="#5761D7"/>
<stop offset="0.14" stop-color="#5C60D5"/>
<stop offset="0.3" stop-color="#695BD1"/>
<stop offset="0.46" stop-color="#7F54C9"/>
<stop offset="0.63" stop-color="#9E4BBE"/>
<stop offset="0.8" stop-color="#C63EB0"/>
<stop offset="0.97" stop-color="#F62F9F"/>
<stop offset="1" stop-color="#FF2C9C"/>
</linearGradient>
</defs>
</svg>
