<svg width="71" height="71" viewBox="0 0 71 71" fill="none" xmlns="http://www.w3.org/2000/svg">
<path d="M28.1395 46.3618C29.3835 46.3618 30.4027 47.4027 30.4027 48.6885C30.4027 49.9591 29.3835 51 28.1395 51C26.8805 51 25.8612 49.9591 25.8612 48.6885C25.8612 47.4027 26.8805 46.3618 28.1395 46.3618ZM45.0013 46.3618C46.2454 46.3618 47.2646 47.4027 47.2646 48.6885C47.2646 49.9591 46.2454 51 45.0013 51C43.7423 51 42.7231 49.9591 42.7231 48.6885C42.7231 47.4027 43.7423 46.3618 45.0013 46.3618ZM21.1673 21.0002L21.3201 21.0131L24.8948 21.5627C25.4044 21.656 25.7791 22.0831 25.8241 22.6036L26.1089 26.0325C26.1538 26.5239 26.5435 26.8912 27.0231 26.8912H47.2649C48.1792 26.8912 48.7787 27.2127 49.3782 27.9169C49.9777 28.621 50.0827 29.6313 49.9478 30.5482L48.5239 40.59C48.2541 42.5203 46.6354 43.9424 44.7318 43.9424H28.3796C26.3861 43.9424 24.7374 42.3826 24.5725 40.362L23.1936 23.6751L20.9304 23.2771C20.3309 23.17 19.9112 22.573 20.0161 21.9607C20.121 21.3346 20.7056 20.9197 21.3201 21.0131L21.1673 21.0002ZM42.3337 32.5535H38.1819C37.5524 32.5535 37.0578 33.0587 37.0578 33.7016C37.0578 34.3292 37.5524 34.8497 38.1819 34.8497H42.3337C42.9632 34.8497 43.4578 34.3292 43.4578 33.7016C43.4578 33.0587 42.9632 32.5535 42.3337 32.5535Z" fill="#9B51E0"/>
<rect x="35.3553" y="0.707107" width="49" height="49" rx="5.5" transform="rotate(45 35.3553 0.707107)" stroke="url(#paint0_linear_125_743)"/>
<defs>
<linearGradient id="paint0_linear_125_743" x1="31.6197" y1="56.25" x2="99.2458" y2="47.9452" gradientUnits="userSpaceOnUse">
<stop stop-color="#5761D7"/>
<stop offset="0.14" stop-color="#5C60D5"/>
<stop offset="0.3" stop-color="#695BD1"/>
<stop offset="0.46" stop-color="#7F54C9"/>
<stop offset="0.63" stop-color="#9E4BBE"/>
<stop offset="0.8" stop-color="#C63EB0"/>
<stop offset="0.97" stop-color="#F62F9F"/>
<stop offset="1" stop-color="#FF2C9C"/>
</linearGradient>
</defs>
</svg>
