<svg width="71" height="71" viewBox="0 0 71 71" fill="none" xmlns="http://www.w3.org/2000/svg">
<rect x="35.3553" y="0.707107" width="49" height="49" rx="5.5" transform="rotate(45 35.3553 0.707107)" stroke="url(#paint0_linear_125_742)"/>
<path d="M28.0598 23.0169C28.9506 21.4651 30.336 20.2568 31.9944 19.5851C33.6528 18.9134 35.4886 18.8171 37.2082 19.3115C38.9278 19.806 40.432 20.8626 41.4804 22.3126C42.5287 23.7626 43.0607 25.5223 42.9913 27.3102C42.9218 29.0981 42.255 30.8112 41.0974 32.1755C39.9397 33.5399 38.3581 34.4767 36.6053 34.8363C34.8525 35.1959 33.0298 34.9575 31.4284 34.1592C29.8271 33.3609 28.5396 32.0488 27.7718 30.4326C27.2588 30.8079 26.6394 31.0097 26.0038 31.0086H25.0039V31.5186C25.0039 31.8986 25.1479 32.2446 25.3839 32.5066C25.5855 32.2786 25.8519 32.1175 26.1474 32.0446C26.4429 31.9718 26.7536 31.9907 27.0381 32.0989C27.3226 32.207 27.5674 32.3993 27.7399 32.65C27.9125 32.9008 28.0045 33.1982 28.0038 33.5025C28.0036 33.7116 27.9598 33.9183 27.8751 34.1093C27.7904 34.3004 27.6667 34.4717 27.5119 34.6122C27.3571 34.7527 27.1746 34.8592 26.9763 34.9251C26.7779 34.9909 26.5679 35.0146 26.3598 34.9945C25.4591 34.9629 24.6058 34.5828 23.9798 33.9344C23.3538 33.286 23.0039 32.4199 23.0039 31.5186V24.0148C23.0039 23.7496 23.1093 23.4953 23.2968 23.3077C23.4844 23.1202 23.7387 23.0149 24.0039 23.0149H28.0038L28.0598 23.0169ZM25.0039 29.0087H26.0038C26.2691 29.0087 26.5234 28.9033 26.7109 28.7158C26.8985 28.5283 27.0038 28.2739 27.0038 28.0087V27.2687C26.9979 27.0901 26.9979 26.9114 27.0038 26.7327V25.0148H25.0039V29.0087ZM21 41.0003C21 38.7744 22.8059 37.0004 25.0179 37.0004H44.9993C46.0601 37.0004 47.0775 37.4218 47.8276 38.172C48.5777 38.9221 48.9991 39.9395 48.9991 41.0003C48.9991 44.3822 47.3332 46.9321 44.7293 48.5941C42.1654 50.228 38.7095 51 34.9996 51C31.2897 51 27.8338 50.228 25.2699 48.5941C22.6659 46.9341 21 44.3802 21 41.0003Z" fill="#9B51E0"/>
<defs>
<linearGradient id="paint0_linear_125_742" x1="31.6197" y1="56.25" x2="99.2458" y2="47.9452" gradientUnits="userSpaceOnUse">
<stop stop-color="#5761D7"/>
<stop offset="0.14" stop-color="#5C60D5"/>
<stop offset="0.3" stop-color="#695BD1"/>
<stop offset="0.46" stop-color="#7F54C9"/>
<stop offset="0.63" stop-color="#9E4BBE"/>
<stop offset="0.8" stop-color="#C63EB0"/>
<stop offset="0.97" stop-color="#F62F9F"/>
<stop offset="1" stop-color="#FF2C9C"/>
</linearGradient>
</defs>
</svg>
