<svg width="71" height="71" viewBox="0 0 71 71" fill="none" xmlns="http://www.w3.org/2000/svg">
<path d="M35.5132 19.1593L46.1331 22.7224C47.3218 23.1194 48.1256 24.2114 48.1321 25.4352L48.1997 36.0602C48.2207 39.2813 47.0464 42.4051 44.896 44.8527C43.907 45.9761 42.6393 46.941 41.0205 47.8039L35.3119 50.8556C35.1331 50.9497 34.9366 50.9984 34.7384 51C34.5403 51.0015 34.3422 50.9544 34.165 50.8619L28.4032 47.8808C26.7667 47.032 25.4877 46.0812 24.489 44.9735C22.3032 42.551 21.0887 39.4413 21.0677 36.2155L21 25.5983C20.9936 24.373 21.7829 23.2731 22.9652 22.8605L33.5448 19.1703C34.173 18.9475 34.8737 18.9428 35.5132 19.1593ZM40.5917 30.5498C40.1165 30.0933 39.3514 30.0964 38.8826 30.5593L33.493 35.8718L31.2862 33.7505C30.811 33.294 30.0475 33.2987 29.5772 33.7615C29.1084 34.2244 29.1133 34.9681 29.5884 35.4246L32.6538 38.3743C32.8922 38.6034 33.2014 38.7163 33.5107 38.7132C33.82 38.7116 34.1276 38.5955 34.3628 38.3633L40.6013 32.213C41.0701 31.7501 41.0653 31.0064 40.5917 30.5498Z" fill="#9B51E0"/>
<rect x="35.3553" y="0.707107" width="49" height="49" rx="5.5" transform="rotate(45 35.3553 0.707107)" stroke="url(#paint0_linear_125_744)"/>
<defs>
<linearGradient id="paint0_linear_125_744" x1="31.6197" y1="56.25" x2="99.2458" y2="47.9452" gradientUnits="userSpaceOnUse">
<stop stop-color="#5761D7"/>
<stop offset="0.14" stop-color="#5C60D5"/>
<stop offset="0.3" stop-color="#695BD1"/>
<stop offset="0.46" stop-color="#7F54C9"/>
<stop offset="0.63" stop-color="#9E4BBE"/>
<stop offset="0.8" stop-color="#C63EB0"/>
<stop offset="0.97" stop-color="#F62F9F"/>
<stop offset="1" stop-color="#FF2C9C"/>
</linearGradient>
</defs>
</svg>
