<svg width="1440" height="450" viewBox="0 0 1440 450" fill="none" xmlns="http://www.w3.org/2000/svg">
<path opacity="0.03" d="M140.375 231.519C139.09 233.095 137.598 234.653 136.521 236.053C137.632 233.27 139.091 231.765 139.993 229.052C141.59 228.719 141.417 229.822 140.375 231.519ZM198.845 197.353C199.747 191.857 199.435 187.376 195.963 191.104C196.202 195.789 195.621 200.474 194.227 205.107C194.227 205.58 193.88 206.035 193.671 206.455L193.359 207.102C194.227 206.717 192.803 207.697 193.567 207.365C193.738 207.333 193.92 207.32 194.102 207.327C194.283 207.334 194.46 207.361 194.618 207.406C194.777 207.451 194.914 207.513 195.021 207.587C195.127 207.662 195.2 207.747 195.234 207.838C195.477 207.085 196.032 206.087 196.553 204.915C197.639 202.422 198.405 199.896 198.845 197.353ZM121.071 220.422L117.147 228.754C118.258 228.089 119.89 227.354 121.383 226.619C120.523 224.58 120.417 222.48 121.071 220.422ZM627.991 -22.0332L608.998 -14.6468C613.894 -15.837 616.845 -14.8918 620.109 -13.8942C620.56 -15.487 632.643 -20.843 628.025 -22.0332H627.991ZM404.425 0.7211C401.05 2.69385 398.415 4.95944 396.648 7.40736C400.189 9.49025 401.3 3.57411 404.46 0.686066L404.425 0.7211ZM685.349 80.7112C695.453 75.7752 692.293 74.9875 688.821 74.2174C691.981 76.3003 669.377 82.9341 685.384 80.6761L685.349 80.7112ZM60.6221 287.898L77.1491 280.354L78.6074 278.726C76.7672 277.728 56.907 284.414 60.6221 287.898ZM127.355 207.575C126.938 208.118 126.522 208.625 126.174 209.168L126.938 207.418L126.522 207.19C126.522 207.19 126.834 206.875 127.563 206.14L128.431 204.109L128.744 203.479C128.535 203.479 127.911 203.847 127.529 204.057C126.626 204.704 126.07 204.932 125.654 205.212C124.716 205.807 124.265 205.807 123.952 205.562C122.598 204.249 121.591 199.401 121.591 192.82C121.6 188.886 122.391 184.964 123.952 181.11C124.82 179.535 125.758 178.029 126.834 176.629C127.11 176.141 127.319 175.644 127.459 175.141V174.966L129.542 173.216L131.139 171.991C132.257 171.239 133.5 170.536 134.855 169.89C137.391 168.7 140.413 167.804 143.708 167.265C145.658 166.99 147.66 166.82 149.68 166.757C149.506 166.566 149.367 166.367 149.264 166.162C146.568 160.038 144.815 153.817 144.021 147.556C143.081 139.823 144.166 132.06 147.25 124.469C148.275 121.724 149.585 119.007 151.173 116.33C152.041 114.913 152.979 113.425 154.125 111.937L155.965 109.662L158.326 107.124L161.451 104.218L162.492 103.465L164.402 102.013L165.443 101.348L167.527 100.017C170.357 98.3219 173.482 96.7578 176.866 95.3439C190.373 89.7078 206.518 88.5701 216.517 88.22C226.517 87.87 232.419 87.59 234.884 86.1022C229.642 89.6029 246.585 94.1537 252.036 91.1432C251.941 90.5691 251.491 90.0245 250.752 89.5853L250.196 89.2877L250.821 89.1827H250.405H249.606L247.974 89.0427C247.592 89.0427 247.488 88.8327 247.245 88.7102C247.002 88.5876 247.453 88.8327 247.87 88.8152H249.363H250.092H250.3C250.3 88.8152 249.259 88.9902 249.78 88.9377L250.092 89.0252C250.639 89.1838 251.239 89.2906 251.863 89.3403C253.439 89.4218 255.019 89.2101 256.307 88.7451C259.779 87.7124 264.501 84.5968 269.987 80.116L279.049 72.8347L284.431 68.7914L286.132 67.4086L286.583 67.0586L287.521 66.481L287.729 66.2885L288.806 65.5183C293.784 61.976 297.9 58.1443 301.062 54.1061L295.055 66.0084C312.416 52.6183 326.304 48.1901 335.713 38.8083C335.713 39.9285 331.894 42.309 333.803 43.4467C348.837 42.2565 355.886 31.0193 367.448 28.9014L361.094 33.1548C361.094 35.4652 371.51 31.0543 376.058 28.7614C382.516 25.3483 391.474 14.7587 377.933 18.3994C382.482 16.8591 386.787 15.2488 390.953 13.5335C390.902 13.3179 390.722 13.1153 390.437 12.9527C390.151 12.7901 389.775 12.6752 389.356 12.6233C393.731 12.2383 398.939 9.78777 403.245 7.45982C405.437 6.16486 407.972 5.02815 410.779 4.0817C412.688 3.64412 414.459 3.95926 415.813 5.58707C414.911 9.08772 414.702 11.8182 413.973 14.4437C412.826 18.1228 409.97 21.6132 405.64 24.6306C396.266 24.0005 388.488 28.2188 379.322 33.5222C370.156 38.8257 359.774 45.162 346.824 49.1177C342.97 54.9463 346.824 54.7538 331.581 62.1052C330.054 54.8063 359.878 45.652 339.463 45.582C330.077 47.8685 321.64 51.0346 314.603 54.9113C306.825 59.1821 300.923 64.4506 300.958 68.914C320.471 58.0269 322.068 62.3327 323.353 65.5183C324.741 69.019 326.026 71.9245 344.567 62.6653C336.893 67.1636 334.845 72.2221 321.894 79.4334C297.347 88.7627 352.24 51.2706 302.972 76.3003C304.152 80.0635 306.027 83.3016 306.825 87.4499C303.691 89.2278 300.77 91.0981 298.076 93.051L290.194 98.9671C286.832 101.804 283.06 104.513 278.91 107.071C287.872 98.8012 294.643 89.9742 299.048 80.8162C296.177 82.3307 293.52 83.945 291.097 85.6471C288.389 87.3974 285.924 89.3753 283.459 91.2482C279.778 94.3377 275.683 97.2968 271.202 100.105C264.258 103.798 261.237 102.818 257.869 101.102C252.245 104.603 242.419 106.458 226.621 110.152C217.765 112.362 210.06 115.587 204.122 119.568C200.71 121.919 197.812 124.448 195.477 127.112L193.671 129.213L192.977 129.79V129.913V130.123L192.768 130.543C192.56 130.841 192.56 130.998 192.248 131.436C191.349 132.551 190.573 133.691 189.921 134.849C189.349 135.804 188.874 136.774 188.498 137.754C185.902 144.889 184.738 152.137 185.026 159.388C185.026 166.022 185.512 172.078 185.651 177.627C185.941 182.373 185.698 187.124 184.922 191.857C184.748 192.697 184.609 193.467 184.331 194.185C180.964 192.683 177.39 191.303 173.637 190.054C167.633 188.166 160.875 186.971 153.847 186.553C150.895 186.221 151.555 184.261 156.138 182.755C160.721 181.25 169.471 181.74 175.755 183.21C171.113 181.706 165.918 180.688 160.478 180.217C157.635 179.995 154.728 180.108 151.987 180.548C149.245 180.989 146.744 181.744 144.681 182.755C143.688 183.302 142.782 183.887 141.972 184.506L141.313 184.943L140.202 185.853L139.959 186.081L138.986 187.341C138.153 188.269 137.528 189.214 136.868 190.159C136.209 191.104 136.209 191.525 135.862 192.225C134.461 195.613 134.052 199.086 134.646 202.534C135.028 204.967 135.723 207.015 136.348 209.273C136.973 211.531 137.32 214.331 138.223 214.524C136.66 213.876 136.243 210.621 135.584 208.993C134.959 207.05 134.438 206.087 133.674 205.877C132.91 205.667 132.077 206.227 130.897 206.857C129.716 207.488 128.64 208.013 127.355 207.575ZM162.249 167.317H161.694C165.995 167.973 170.196 168.786 174.262 169.75C180.755 171.308 184.088 172.131 185.13 171.886C186.172 171.641 184.088 170.135 177.7 168.385C173.956 167.385 169.745 166.913 165.513 167.02C164.409 167.068 163.316 167.168 162.249 167.317ZM558.063 153.7L560.945 146.243L554.696 156.325L558.063 153.7ZM430.535 31.8594L437.479 26.836C439.423 25.4182 442.27 22.8978 444.736 20.7624C456.367 10.1729 469.908 0.861115 478.171 -8.04807C485.116 -20.0728 470.325 -23.626 462.443 -31.555C460.568 -31.9751 450.95 -28.0543 442.756 -22.4883C434.562 -16.9222 428 -9.83337 430.361 -6.87532C447.722 -14.3842 416.473 12.3783 443.312 -6.05266C446.124 -5.33502 445.604 -1.79936 442.826 2.59396C441.263 4.99091 439.372 7.33028 437.166 9.59528C436.021 10.8555 434.771 12.0807 433.451 13.2885C432.792 13.7785 431.09 15.1438 429.806 15.9139C428.452 14.1636 430.465 11.4331 431.021 9.9803C431.646 8.9651 431.958 8.23 431.542 7.82742C431.125 7.42485 430.882 7.59987 430.222 7.7049L429.077 7.94997L428.278 8.17752L427.861 8.31758H427.688C427.063 10.4005 426.229 12.1683 425.709 13.201L424.667 15.4414C424.216 16.5441 424.667 17.1917 428.139 18.5394C421.681 28.6738 423.487 32.5421 418.903 40.121C421.716 37.7231 425.917 35.08 430.535 31.8594ZM271.619 112.095C270.885 112.506 270.096 112.892 269.258 113.25C269.258 113.25 268.668 113.495 268.945 113.495L267.661 113.88C267.077 114.033 266.539 114.228 266.064 114.457C261.576 115.8 257.601 117.537 254.328 119.586C247.31 119.185 240.203 119.556 233.496 120.671C223.821 122.072 214.679 124.279 206.448 127.2C210.823 126.832 207.143 131.296 207.108 133.431C207.108 134.464 207.698 134.831 210.302 133.676C215.439 131.102 221.286 128.914 227.663 127.182C224.538 128.128 227.038 128.268 224.191 129.283C238.808 128.145 247.315 128.092 253.946 126.815C260.578 125.537 265.543 124.137 272.279 123.314C276.445 124.014 274.952 125.38 271.654 126.57C268.355 127.76 264.918 128.495 269.709 128.723L276.653 127.375L278.98 126.955L280.507 126.57C281.707 126.309 282.868 126.005 283.979 125.66C289.324 123.825 293.833 121.439 297.208 118.658C305.194 112.13 312.763 104.288 307.937 100.822C309.296 99.6905 310.78 98.5978 312.381 97.5493C313.459 96.8835 314.619 96.2522 315.853 95.6589C317.514 94.7393 319.475 93.9697 321.651 93.3835C324.248 92.8334 327.029 92.5364 329.845 92.5084C335.921 82.6015 357.622 75.4427 374.982 69.8941C392.342 64.3456 406.022 58.8845 400.363 53.0909C393.87 56.5916 381.683 61.16 372.586 67.9338L365.33 59.7947C348.698 66.6735 369.079 66.5685 344.775 76.1602L352.24 73.6748C344.775 78.4182 332.901 83.6867 320.992 90.0404L316.443 92.4733L311.964 95.0988L307.173 98.232L303.11 101.208L290.368 111.324C289.917 109.574 286.896 110.502 284.153 110.922C283.453 111.097 282.679 111.183 281.898 111.174C281.118 111.164 280.353 111.06 279.67 110.869C278.987 110.678 278.406 110.406 277.978 110.077C277.549 109.748 277.285 109.371 277.209 108.979C275.53 110.098 273.659 111.14 271.619 112.095ZM898.603 10.7855L902.075 5.91963L885.825 14.6713L898.603 10.7855ZM121.071 220.422L126.174 209.168C123.768 212.829 122.059 216.598 121.071 220.422ZM108.779 205.72C112.869 202.993 116.144 199.98 118.501 196.775C118.885 196.257 119.187 195.725 119.404 195.183V195.025L118.814 195.305L117.911 195.795L116.383 196.775C115.099 197.283 114.092 197.861 113.397 197.563C112.724 197.366 112.115 197.118 111.592 196.828C107.634 200.994 99.3007 205.632 108.779 205.72ZM359.566 290.821C365.781 277.116 333.595 299.327 347.83 278.568C320.505 297.822 355.712 281.684 337.414 297.822C349.323 289.368 358.872 288.44 359.566 290.821ZM897.943 -44.3148C903.186 -46.8528 904.887 -50.5635 909.574 -53.9416C903.68 -50.0607 895.992 -46.9659 887.18 -44.9275C890.79 -45.12 896.033 -45.435 897.943 -44.3148ZM278.598 205.842C278.598 205.842 278.598 205.842 278.771 205.93C278.581 205.85 278.417 205.755 278.285 205.65L278.042 205.527C276.723 207.085 275.126 208.713 273.32 210.393L275.855 204.179L277.035 204.915L276.41 204.459C276.827 204.704 277.244 205.002 277.695 205.282C277.209 204.949 276.723 204.652 276.202 204.354C276.114 204.279 275.996 204.213 275.855 204.162L276.237 203.269C276.862 203.882 277.591 204.547 278.32 205.23C278.226 205.318 278.156 205.412 278.112 205.51C278.088 205.544 278.088 205.581 278.112 205.615C278.222 205.658 278.316 205.712 278.389 205.772C278.389 205.772 278.389 205.895 278.702 205.965L278.459 205.877V205.755L278.598 205.842ZM340.713 71.3994L352.136 64.258H350.191L338.873 71.452L340.713 71.3994ZM192.838 166.25C193.15 162.872 193.498 159.388 194.262 155.748C192.734 161.594 192.144 167.125 191.623 172.236L192.838 166.25ZM960.44 -173.962C964.827 -176.582 968.005 -179.661 969.745 -182.976C965.96 -184.779 962.94 -177.27 960.405 -173.962H960.44ZM259.675 105.426C256.765 106.665 253.468 107.653 249.919 108.349C253.817 107.846 257.509 106.998 260.821 105.846C260.408 105.729 260.023 105.588 259.675 105.426ZM283.979 326.807C278.007 331.848 264.64 337.554 253.286 341.843C241.933 346.131 232.975 349.597 236.621 352.205C251.411 350.454 266.723 344.381 271.133 339.76L265.022 340.758C271.833 336.278 278.172 331.622 284.014 326.807H283.979ZM275.82 137.772C280.132 137.644 284.296 136.931 287.868 135.706C280.091 134.621 267.314 137.282 261.967 137.947L275.82 137.772ZM1440 -217.842V-186.897C1437.71 -185.916 1435.38 -184.919 1432.85 -183.921C1384.24 -164.808 1341.78 -160.344 1294.66 -133.162C1227.06 -94.2342 1161.47 -52.769 1095.5 -12.2488C965.231 67.7412 808.503 115.998 668.197 185.608C604.867 217.009 539.418 246.222 478.137 279.251C427.757 306.399 390.919 342.963 336.755 367.818C275.646 395.823 205.407 409.405 142.979 435.38C101.315 452.744 65.2399 474.833 24.6169 492.704C17.0825 496.012 8.6107 499.127 0 502.295V498.025C17.222 488.93 35.4937 480.356 54.7196 472.347C100.69 453.409 131.938 425.403 174.644 403.892C208.913 386.704 239.294 371.178 274.292 350.787C277.429 348.38 279.938 345.78 281.757 343.05L280.785 343.383L277.313 338.692C287.153 335.999 296.455 332.834 305.089 329.24C302.485 328.068 303.666 326.545 307.138 323.867C310.622 321.462 313.601 318.881 316.026 316.165C311.802 318.544 307.049 320.67 301.86 322.502C299.572 323.211 297.04 323.697 294.396 323.937C290.924 323.937 290.542 322.397 290.194 320.979C289.257 317.863 289.5 316.428 264.744 325.757C262.487 330.063 264.432 328.4 253.877 332.601C257.904 330.606 255.682 328.208 246.516 330.693L239.572 336.959C227.107 335.314 233.878 332.321 240.961 329.328C248.044 326.335 255.543 323.149 245.648 322.729C254.085 318.143 265.925 312.227 273.424 306.539C280.924 300.85 284.917 295.529 279.535 294.286C268.926 298.573 260.746 304.193 255.821 310.582C251.099 315.675 245.856 320.804 227.559 323.727L221.864 322.099C211.066 326.562 212.212 330.973 207.316 334.789C205.615 333.476 201.622 333.039 193.428 334.089C176.936 343.786 163.603 347.129 149.785 357.001C173.047 350.122 185.234 349.527 197.421 348.722C209.608 347.916 222.455 347.374 247.315 338.657C240.683 343.12 203.74 351.977 206.24 358.541L203.254 353.798C187.595 359.329 172.006 364.299 150.027 366.697L160.791 361.796C149.437 365.385 138.327 366.137 128.223 367.047L122.043 369.165C115.708 371.069 109.62 373.174 103.814 375.466C106.673 374.649 109.39 373.712 111.939 372.666C107.165 374.797 102.144 376.784 96.9051 378.617C94.6135 379.755 92.2524 381.015 89.7873 382.503C90.4123 385.146 94.6829 388.104 90.4817 397.713C89.1624 392.462 81.871 395.963 87.4263 385.951C79.0239 391.027 72.8784 401.336 66.9065 408.478C76.4546 402.457 75.9338 404.977 73.0867 409.65C70.2396 414.324 64.0247 420.975 63.2608 423.198C52.3586 429.639 63.2608 417.947 67.5662 412.504C59.2332 417.492 44.3035 419.102 44.1993 426.926C42.2202 425.281 46.2825 419.417 51.56 412.329C52.9836 410.403 54.4765 408.39 56.0737 406.395C53.7474 405.747 46.6991 408.95 43.6784 408.705C40.0534 412.52 37.4274 416.556 35.8663 420.713C35.3493 425.299 33.2215 429.803 29.5819 434.015L36.1094 430.724C40.2758 430.199 29.4777 436.658 26.9778 437.988C32.0817 432.632 15.8325 440.001 18.6102 436.063L12.7771 439.756C10.8328 440.964 9.65234 442.014 8.05519 443.152L0 449.348V443.764L5.10393 436.396L6.49273 434.418L8.43707 432.265L8.99261 431.67C4.61782 432.737 2.361 433.035 1.63187 432.737C1.07634 432.947 0.555529 433.122 0 433.297V291.363L11.3536 286.97C19.3046 284.152 27.8112 280.984 52.567 276.853C39.8245 280.914 27.3251 290.558 23.0891 297.857C22.1654 297.855 21.2605 297.989 20.4851 298.242C18.9227 303.703 23.2627 304.211 28.7139 308.271C37.7414 300.879 48.4756 294.051 60.6916 287.933C61.3621 288.001 61.9984 288.136 62.5622 288.331C63.1259 288.527 63.6055 288.777 63.972 289.068C64.3386 289.359 64.5845 289.685 64.695 290.025C64.8055 290.365 64.7782 290.713 64.6149 291.048C68.6078 289.42 72.6353 287.828 76.6629 286.322C76.6128 285.518 76.3322 284.723 75.8297 283.959L72.5313 285.5L77.1491 280.371L90.204 274.438L93.9538 271.094L92.5998 273.422L105.169 267.629C106.106 266.789 107.148 265.878 108.398 264.916L101.731 264.601C98.9535 266.911 96.3495 269.029 93.9538 271.094L97.8772 264.443L94.9607 264.303C70.6563 270.954 89.961 276.31 57.9486 280.704C58.9613 278.851 60.2974 277.047 61.9414 275.313L60.9693 275.47C70.4133 268.469 52.428 274.945 48.5046 274.245C53.2498 271.585 57.9602 268.924 62.6359 266.264C53.0878 268.399 42.5327 269.922 28.2278 276.153C30.7624 274.525 30.693 273.247 37.0469 271.217C34.0609 271.742 31.1096 272.32 28.1583 272.967C26.8737 274.262 25.4849 275.628 23.9572 277.081C24.1341 276.572 24.0483 276.048 23.7077 275.561C23.3672 275.073 22.7835 274.638 22.0128 274.298C20.2073 274.683 18.5407 275.05 16.5617 275.47L6.1455 278.131L1.52771 279.374L0.138912 279.759V272.46C1.14581 271.339 2.118 270.219 3.19434 269.099C9.16627 262.675 17.0825 256.164 25.2766 253.101C12.4994 256.444 19.4783 251.736 26.839 247.22C34.1998 242.704 41.7689 237.838 33.9914 237.348C30.5077 241.752 25.6684 245.851 19.6518 249.495C12.7077 253.906 6.35389 258.054 0.138912 261.59V260.82L1.87494 258.895C1.24997 259.28 0.729161 259.717 0.138912 260.12V249.145C1.04165 248.533 1.9443 247.955 2.88176 247.395C5.93717 245.417 10.9717 242.389 13.923 240.796L25.0335 234.495C28.5055 234.215 25.3807 236.946 23.8182 238.328C44.8242 225.463 76.8713 208.415 86.9403 195.148C91.0617 192.471 95.7153 190.013 100.829 187.814C105.03 185.941 108.328 185.118 108.085 186.921C106.38 188.325 105.027 189.83 104.057 191.402C105.134 192.172 104.856 194.36 105.099 194.168C105.636 192.92 106.439 191.705 107.495 190.544C108.374 189.589 109.545 188.709 110.967 187.936L111.453 187.691V188.059C111.493 188.218 111.587 188.371 111.731 188.514C112.738 187.796 110.654 189.302 110.064 190.124C109.427 190.815 108.893 191.529 108.467 192.26C107.946 193.257 107.738 193.677 107.599 194.01C107.46 194.342 107.078 194.71 106.905 195.008H107.148C107.148 195.008 107.148 195.095 106.835 195.008C106.103 196.542 106.359 198.154 107.564 199.611C98.5717 205.825 96.8704 203.969 95.7246 202.096C94.5441 206.63 79.9267 211.461 78.3643 217.849C60.4485 229.962 74.0589 212.143 62.0456 219.722V230.942L39.7551 241.794C25.5891 251.718 29.6514 254.046 33.4707 257.004C34.7768 257.814 35.7072 258.761 36.1938 259.776C36.6804 260.79 36.7109 261.847 36.283 262.868C36.283 262.868 36.283 263.008 36.283 263.043C39.1995 262.64 42.2896 262.273 45.5881 261.923L44.8936 265.196C55.9148 261.815 67.5389 258.961 79.6142 256.672C87.461 252.016 95.169 247.342 102.738 242.477C103.006 243.684 102.793 244.907 102.114 246.073C101.434 247.239 100.301 248.325 98.78 249.268C113.328 239.799 104.717 236.105 117.425 228.894C113.536 236.788 109.439 244.542 105.169 252.243C112.113 251.123 119.057 250.038 126.001 248.743C131.634 243.183 136.585 237.455 140.827 231.59L145.896 226.058L148.673 223.275L149.333 222.593C149.576 222.348 149.923 222.05 149.611 222.19C149.298 222.33 149.229 222.313 149.229 222.19L150.201 216.799C150.514 215.049 150.895 213.088 151.451 211.286C150.626 214.402 150.174 217.541 150.097 220.685C150.097 223.013 150.618 223.345 152.007 223.976C153.991 221.851 155.528 219.628 156.59 217.342C158.357 214.186 160.789 211.135 163.846 208.24C164.145 207.934 164.544 207.656 165.027 207.418L165.964 206.805L167.249 206.192C168.144 205.842 169.175 205.589 170.275 205.45C171.375 205.312 172.52 205.29 173.637 205.387C178.272 205.975 182.605 207.055 186.345 208.555C189.257 209.687 192.442 210.629 195.824 211.356C197.004 211.548 197.664 211.356 197.699 211.093C197.734 210.831 197.907 210.726 197.213 210.778C196.518 210.831 197.977 210.165 197.386 210.393L197.872 209.64L197.282 210.06L197.109 210.166C196.856 210.191 196.597 210.191 196.345 210.166C193.406 209.363 190.627 208.419 188.047 207.347C191.762 208.275 194.991 208.765 195.685 208.363C195.685 208.783 195.685 209.063 196.136 209.185C195.685 209.098 196.692 208.118 197.386 207.19L199.331 204.337C200.615 202.324 201.865 200.189 202.976 197.948C205.268 193.467 207.351 188.724 209.261 184.191C213.115 174.949 216.413 167.125 216.622 158.618C218.222 159.192 219.932 159.685 221.725 160.089C223.816 160.442 225.985 160.666 228.183 160.754C233.148 160.754 238.6 159.371 247.87 157.008C239.12 156.325 241.134 154.838 243.808 153.157C246.481 151.477 249.78 150.077 241.412 148.606C244.12 146.559 250.717 146.226 256.342 146.348C260.855 146.348 264.605 146.559 265.751 145.771L265.23 146.804C285.681 150.304 296.027 147.749 300.819 143.145C305.61 138.542 306.131 132.486 308.943 127.515C314.141 122.465 319.999 117.594 326.477 112.935C327.882 111.961 329.388 111.026 330.991 110.134L335.644 107.649C338.63 106.161 341.581 104.796 344.567 103.5C356.337 98.407 367.899 94.5388 381.752 88.8327C386.006 91.2197 391.776 92.7854 398.071 93.261L410.432 84.3868C396.543 83.1791 405.328 79.8535 389.113 81.9713C395.502 80.8511 407.341 75.5826 418.764 70.0341C430.188 64.4855 440.882 58.4644 448.069 57.5717L445.256 60.3899C449.717 58.7627 454.747 57.575 460.082 56.8892L455.638 54.8238C466.262 49.9229 478.449 45.232 490.358 40.5761C491.956 38.7208 493.83 36.6904 495.428 34.4324C498.9 30.5467 502.372 26.836 505.844 23.2303C505.811 23.9239 505.939 24.6171 506.226 25.2957C512.43 21.6692 520.452 18.949 529.454 17.4192C535.113 16.2115 540.321 14.1636 552.578 6.81221C550.668 7.93242 552.578 7.96742 550.564 9.10513C569.105 5.88452 581.257 -4.73991 593.096 -9.65834C604.415 -7.908 594.694 -5.10751 592.402 -0.714188C597.229 -1.83495 601.873 -3.1459 606.29 -4.6349C610.561 -7.59296 615.561 -10.7961 620.178 -13.6491V-13.9292H620.491C625.036 -16.7977 629.966 -19.5054 635.247 -22.0332C640.081 -25.0797 646.518 -27.3787 653.823 -28.6669C656.791 -30.7931 659.537 -32.9957 662.051 -35.2657C668.752 -36.6134 675.384 -38.0487 681.877 -39.624C679.863 -38.2587 677.849 -36.7534 675.905 -35.1956L677.641 -35.8432C676.907 -35.4262 676.118 -35.0344 675.28 -34.6706C669.308 -29.6996 665.142 -24.5887 669.204 -23.626C677.988 -27.8093 675.28 -29.017 687.224 -33.1828C690.418 -36.0358 692.71 -38.8188 688.752 -40.3591L701.563 -37.8912C687.467 -33.1478 694.619 -32.3251 686.842 -27.2842C685.523 -25.0612 683.786 -22.5933 682.085 -19.9153C714.827 -26.9166 680.21 -31.3099 707.153 -31.9575C710.704 -33.7228 713.265 -35.9302 714.576 -38.3557C715.887 -40.7812 715.901 -43.3384 714.618 -45.7676C720.81 -47.1302 726.828 -48.6852 732.638 -50.4235C730.381 -55.0444 746.179 -66.8591 753.679 -76.9235C752.88 -79.479 742.221 -73.4228 740.103 -68.9595C738.055 -71.8475 743.575 -79.6015 748.401 -85.9027L734.895 -92.904L739.687 -101.288C747.707 -115.291 759.061 -129.818 761.318 -119.719C773.34 -135.989 789.58 -151.385 809.614 -165.508C828.155 -178.898 846.452 -190.012 857.042 -198.239C867.458 -200.252 884.124 -208.741 877.874 -199.762C888.238 -205.274 897.324 -211.364 904.956 -217.913H976.932C973.8 -215.398 969.116 -213.473 963.599 -212.434C948.878 -194.931 916.796 -173.227 895.721 -158.366C883.152 -161.167 921.692 -179.633 927.872 -188.822L906.137 -177.392C919.574 -184.394 922.525 -189.645 926.969 -197.399C906.866 -188.349 905.755 -179.895 889.263 -168.921C889.02 -171.301 885.582 -171.091 877.319 -166.768L878.985 -161.517C878.569 -161.762 877.319 -161.604 874.541 -160.484C864.889 -154.008 855.41 -147.444 846.452 -140.548C854.507 -142.701 858.396 -139.393 866.312 -143.839C861.07 -144.574 867.25 -148.897 875.34 -153.22C871 -146.744 885.478 -155.268 887.492 -152.958C871 -144.451 852.424 -132.706 844.161 -125.198L837.217 -126.755C822.287 -118.336 811.523 -105.384 802.982 -98.7501L803.19 -102.951C798.816 -99.2459 795.009 -95.3781 791.802 -91.3812L812.878 -78.8313C841.175 -90.366 874.472 -105.856 882.631 -118.844C891.52 -123.972 898.846 -125.023 906.415 -127.158L899.818 -135.612C902.838 -138.255 917.178 -149.037 921.24 -145.659C917.005 -135.63 915.893 -146.499 904.818 -137.17C913.463 -138.92 918.706 -135.84 912.317 -129.101C918.359 -131.429 924.747 -135.192 932.42 -142.823C932.737 -143.24 932.947 -143.675 933.045 -144.119L925.268 -139.865L931.031 -146.972C929.747 -148.372 929.643 -150.245 937.524 -154.988L937.871 -155.391V-155.128L938.948 -155.758C939.677 -155.881 938.08 -152.853 937.42 -150.507C940.892 -151.102 944.781 -153.833 947.836 -156.423C955.787 -168.816 977.8 -175.292 987.383 -191.43C997.521 -196.593 1010.89 -209.371 1012.52 -202.912C998.632 -192.76 981.272 -176.325 980.682 -172.071C979.71 -175.975 968.842 -166.558 976.238 -176.5C957.002 -165.105 963.148 -163.32 953.739 -155.653V-155.426L952.489 -154.726C950.926 -153.535 949.017 -152.223 946.69 -150.735C947.315 -148.109 960.37 -153.588 962.662 -158.349C965.717 -155.671 957.871 -147.602 952.246 -141.598C946.621 -135.595 942.628 -130.904 954.19 -133.722C958.694 -137.093 962.137 -140.795 964.398 -144.696C966.794 -148.477 968.391 -152.188 970.127 -155.653C973.599 -162.655 977.384 -168.571 988.737 -172.666C985.96 -163.915 972.731 -157.999 970.856 -145.309L986.689 -154.463L991.792 -166.61L992.174 -165.315C1013.25 -176.255 1011.86 -183.991 1016.24 -195.211C999.826 -182.82 981.776 -171.002 962.211 -159.837C981.61 -171.238 999.717 -183.182 1016.44 -195.613C1018.4 -200.615 1021.44 -205.492 1025.51 -210.159C1008.98 -203.472 1017.59 -221.903 1005.78 -216.337L1007.59 -218H1027.83C1026.86 -213.239 1034.33 -216.372 1026.76 -203.997C1032.17 -208.513 1037.17 -213.152 1042.14 -218C1037.14 -212.924 1031.72 -208.128 1026.55 -203.56C1025.68 -202.142 1024.6 -200.549 1023.32 -198.729C1029.57 -200.199 1026.55 -185.899 1041.76 -197.679C1053.84 -215.48 1031.76 -198.011 1046.1 -213.712C1047.62 -214.027 1049.19 -214.394 1049.57 -213.117C1050.32 -214.81 1051.49 -216.45 1053.04 -218H1115.78C1108.52 -208.163 1099.46 -195.456 1090.5 -182.696L1092.17 -180.946C1095.29 -181.663 1088.49 -176.027 1084.18 -173.612L1065.4 -147.462C1069.77 -148.73 1073.48 -150.499 1076.23 -152.625C1076.89 -156.896 1095.09 -169.358 1087.9 -171.721C1098.52 -175.59 1106.58 -189.662 1114.08 -192.725C1100.64 -186.949 1116.65 -202.772 1115.81 -206.623C1122.27 -206.745 1130.95 -219.365 1133.7 -214.587C1136.89 -215.27 1125.81 -212.837 1123.9 -207.078C1116.96 -194.826 1147.24 -220.258 1137.38 -205.993C1140.85 -209.931 1144.77 -213.939 1149.15 -217.965H1179.46C1178.4 -216.756 1177.52 -215.51 1176.82 -214.237C1188.62 -220.59 1182.1 -212.661 1189.46 -216.722C1184.21 -210.439 1178.52 -206.64 1169.94 -200.969C1163.66 -199.639 1170.36 -206.36 1166.47 -208.268C1160.01 -200.217 1149.35 -203.35 1140.88 -190.765C1157.83 -202.545 1142.93 -181.838 1139.49 -175.625L1142.38 -177.62C1140.78 -170.619 1136.72 -166.925 1130.22 -166.803C1135.19 -173.332 1142.38 -177.637 1137.17 -179.16C1132.6 -175.238 1128.66 -171.141 1125.36 -166.908L1127.17 -172.737L1107 -154.498C1106.68 -149.055 1105.54 -140.495 1107 -134.194C1099.25 -132.356 1094.57 -124.41 1090.95 -119.421L1091.86 -122.415C1080.09 -116.849 1061.82 -97.4199 1062.8 -93.5866C1053.87 -90.086 1091.96 -148.337 1048.04 -106.417C1030.3 -91.2762 1045.75 -89.5434 1038.46 -78.2537C1038.46 -78.2537 1038.18 -79.514 1036.55 -79.1289C1027.73 -72.8802 1030.09 -69.3971 1024.43 -62.7808C1030.89 -65.4939 1038.32 -71.2699 1039.26 -74.298C1040.47 -68.9595 1021.55 -60.6279 1017.49 -53.294C1020.96 -64.4086 998.25 -43.2297 1002.31 -50.5986C981.133 -41.7594 965.058 -26.339 958.565 -17.0972C938.983 -16.6071 936.205 -4.07481 911.033 3.11903C914.505 1.75378 919.956 -2.13193 925.268 -3.63721C933.74 -13.5441 901.415 4.36179 915.442 -7.41792C913.324 -5.42255 918.185 -5.79008 921.483 -8.27556C928.427 -12.2488 933.497 -17.5348 929.851 -18.48L908.533 -13.5616L913.775 -17.5173C903.151 -14.8918 892.422 -12.4413 881.694 -10.1309C881.694 -8.97569 885.166 -9.04573 887.11 -9.11574C853.223 2.8215 818.12 20.0972 788.712 30.2141C793.99 44.2167 722.222 61.7201 706.667 78.1732C709.619 72.3621 707.396 65.0282 701.39 64.048C705.973 61.5625 712.014 52.6534 724.583 49.1877C728.055 50.3954 744.582 47.0873 737.221 52.7934C768.47 39.2283 728.159 49.2927 733.749 41.1887C699.029 55.8914 684.828 71.1543 665.905 83.1966L664.031 82.0414L650.385 91.8432C664.274 86.7498 669.898 93.5936 650.941 98.9671L652.642 97.7069C640.386 99.2647 624.067 111.902 609.658 119.148L603.651 128.233C588.444 135.671 580.771 128.88 571.813 127.147C548.168 138.612 540.391 151.109 527.37 162.889C516.954 163.502 481.956 180.392 496.33 167.352C478.658 180.882 498.865 194.903 455.95 204.844L461.679 196.916C453.693 201.624 445.395 207.295 437.375 213.123C433.486 216.064 428.764 219.565 425.431 222.278C422.098 224.991 418.73 228.141 415.57 231.169C403.175 243.422 393.245 256.339 386.023 260.925C384.356 251.316 374.079 256.899 361.719 264.793C349.358 272.687 334.741 282.297 326.477 279.548C330.609 280.546 320.887 290.821 320.471 293.306C316.651 294.146 311.305 296.282 308.735 301.62C323.353 294.496 311.825 318.913 330.505 296.684C328.993 305.263 324.737 313.663 317.901 321.556C313.587 326.257 307.951 330.62 301.166 334.509C305.923 334.946 310.888 335.507 315.054 333.266C333.178 323.377 340.748 303.3 356.372 294.234C375.329 283.259 392.828 283.732 416.508 276.17C436.333 269.922 448.589 259.332 466.401 250.318C509.975 228.246 561.396 213.141 606.151 183.981C691.112 128.6 814.266 110.694 894.957 47.3148C891.277 46.5447 885.791 45.2495 882.11 44.3918C957.003 -19.9153 1090.71 -58.7201 1168.87 -120.437C1208.97 -152.118 1240.08 -170.951 1291.01 -189.942C1311.44 -197.826 1329.28 -207.276 1343.89 -217.947L1440 -217.842ZM821.974 -18.4275C828.918 -20.4404 835.099 -22.1032 839.682 -23.3284L846.973 -18.7076C863.118 -22.5408 850.445 -29.3321 869.854 -33.4803C850.549 -23.381 879.02 -28.9469 863.188 -21.403C870.34 -21.6131 868.778 -15.5744 884.645 -23.2759C891.172 -36.6834 906.033 -26.619 912.421 -39.1339C922.837 -41.0768 907.769 -30.3822 924.99 -37.6111C939.642 -51.0536 935.649 -53.364 931.622 -59.0876C913.359 -51.2986 919.296 -42.0219 903.845 -36.1933C910.442 -43.8423 916.866 -51.6312 922.976 -59.5777C917.759 -58.4 913.254 -56.5459 909.921 -54.2042C914.857 -57.5856 918.463 -61.4117 920.546 -65.4764L924.018 -71.6025C908.776 -63.0084 894.471 -56.1121 889.784 -57.1098L889.471 -60.7504C881.624 -60.2778 874.159 -53.9767 871.659 -50.1259C857.424 -43.1246 845.862 -33.1128 839.473 -35.0556L842.945 -39.834L833.224 -35.1081C832.717 -32.7282 831.716 -30.3816 830.238 -28.1068C827.703 -24.7287 824.96 -21.5256 822.148 -18.4275H821.974ZM780.31 15.1613C763.456 25.1476 744.16 34.0166 722.882 41.5563C722.713 41.8513 722.468 42.1337 722.153 42.3964C729.618 42.9215 741.562 37.7755 752.047 36.7953C752.012 35.7276 773.157 21.655 780.344 15.1613H780.31ZM738.923 32.6646L733.715 31.9644L728.264 36.3753C731.736 35.3076 735.381 34.0649 738.957 32.6821L738.923 32.6646ZM803.607 0.178497C803.411 -0.0057373 803.091 -0.148514 802.704 -0.224045C801.524 0.651123 800.413 1.52625 799.232 2.36641C800.934 1.59627 802.427 0.861145 803.642 0.196014L803.607 0.178497ZM721.042 30.2491C730.729 28.8139 741.631 26.5209 748.401 25.1907L744.929 30.2491C747.707 29.0414 750.485 27.7462 753.123 26.4159C753.123 25.8733 754.686 25.2082 756.596 24.6656C761.019 22.2606 764.972 19.6464 768.4 16.8592L757.984 19.1346C762.533 17.8387 766.864 16.3576 770.935 14.7062C771.83 13.8183 772.63 12.9068 773.331 11.9757C768.401 13.8661 763.401 15.6514 758.332 17.2267C761.491 13.2709 764.477 9.21017 767.359 4.97438C770.831 3.66164 772.254 4.34431 772.671 5.342C773.088 1.70131 780.865 -3.61971 790.274 -10.7085C795.17 -14.2092 800.343 -18.4275 805.308 -22.8558C803.711 -22.2082 802.01 -21.5081 800.1 -20.7729C801.167 -21.4357 801.798 -22.2493 801.906 -23.1009C779.856 -6.31104 753.625 8.98334 723.854 22.4077C731.543 19.3861 738.838 16.1178 745.693 12.6233C738.228 17.1567 747.568 16.9642 750.728 17.7168C730.555 24.3331 724.965 26.8185 721.458 29.9691C721.347 30.0734 721.219 30.1729 721.076 30.2667L721.042 30.2491ZM42.9145 405.467C25.9709 411.156 21.2489 419.785 14.8256 426.716C16.6311 425.771 18.2978 424.756 20.3115 423.548C26.1099 417.334 29.9985 411.296 42.9145 405.555V405.467ZM42.4633 302.6C38.9912 305.996 35.7622 309.077 32.7068 311.947C32.843 312.052 32.9592 312.164 33.0539 312.28C36.844 308.966 41.9503 306.082 48.0532 303.808C49.2337 301.83 48.1574 301.13 42.4633 302.6ZM76.0727 289.788C72.0087 290.204 68.0736 290.893 64.3719 291.836C62.6641 294.565 60.3338 297.184 57.4278 299.642C56.8028 300.272 56.1432 300.885 55.4835 301.515C60.1013 300.307 64.9621 299.275 70.066 298.014C72.7102 295.402 74.7267 292.641 76.0727 289.788ZM76.6977 286.847L74.7533 288.983L76.3852 288.703C76.5709 288.089 76.6753 287.469 76.6977 286.847ZM109.786 262.098C110.887 262.508 112.203 262.746 113.571 262.78C113.988 262.185 114.404 261.555 114.925 260.925C113.146 261.237 111.426 261.63 109.786 262.098ZM108.536 266.106L110.932 265.003L108.814 264.916C108.596 265.309 108.503 265.716 108.536 266.124V266.106ZM115.481 368.623C111.45 369.294 107.762 370.404 104.677 371.874C101.593 373.344 99.1884 375.138 97.6342 377.129C98.5716 376.902 99.4744 376.674 100.342 376.429C105.723 374.02 110.737 371.411 115.342 368.623H115.481ZM136.313 337.694C135.688 338.29 134.993 338.902 134.299 339.532C135.168 338.989 135.817 338.364 136.209 337.694H136.313ZM172.943 324.427C163.36 330.413 154.993 330.553 154.541 328.82C150.542 329.721 146.379 330.425 142.111 330.921C140.779 332.955 139.13 334.933 137.181 336.837C142.077 337.653 147.32 337.786 152.354 337.222C159.367 332.969 165.756 328.575 172.839 324.427H172.943ZM176.415 311.667C176.137 311.44 175.929 311.212 175.616 310.932C171.033 313.4 167.422 314.835 169.436 310.932C170.929 310.407 172.318 309.934 173.603 309.462C172.735 308.814 171.728 308.131 170.617 307.414L159.367 310.144C155.509 312.633 150.878 314.79 145.653 316.533C145.653 316.043 146.069 314.975 146.069 314.012L133.084 318.528L129.994 320.436C145.132 319.946 156.104 322.974 137.667 328.453C138.084 326.37 130.271 325.25 136.799 322.957C132.923 322.907 129.045 323.013 125.202 323.272C122.841 324.655 120.723 325.95 118.918 327.105V326.895L118.71 327.21C118.008 327.663 117.359 328.137 116.765 328.628C116.765 328.75 117.112 328.855 117.251 328.995L118.71 327.245V327.14L117.529 329.328C120.203 331.428 122.147 334.071 131.174 329.748C125.619 333.949 118.119 335.471 111.071 337.309C109.717 339.637 108.606 341.878 107.321 344.311C106.557 345.623 105.759 347.006 104.787 348.511C108.779 347.321 113.154 346.219 117.355 345.133C117.982 343.634 118.388 342.112 118.571 340.582C131.07 343.155 136.486 328.89 143.396 328.12C143.396 328.4 143.118 328.698 142.979 328.978C147.258 327.835 151.899 327.077 156.694 326.737C156.848 326.663 157.011 326.593 157.18 326.527C169.054 323.394 171.068 319.526 173.603 315.29H172.908C173.162 315.307 173.419 315.307 173.672 315.29C174.392 314.041 175.286 312.818 176.346 311.632L176.415 311.667ZM201.622 270.867L203.011 271.199C206.205 272.04 208.358 272.46 208.115 272.18C206.458 271.372 204.682 270.629 202.803 269.957L202.49 270.254L201.969 270.622C201.816 270.697 201.676 270.779 201.553 270.867H201.622ZM196.518 274.525C198.845 274.525 201.101 274.525 203.219 274.648L202.803 274.508L198.602 272.967L197.699 273.615C197.213 273.913 196.865 274.228 196.449 274.525H196.518ZM203.219 315.745C201.092 316.2 199.027 316.727 197.039 317.321C194.4 319.421 191.067 321.942 187.873 324.479C199.921 319.754 212.073 316.13 203.15 315.745H203.219ZM210.337 275.068C206.865 273.982 204.4 273.02 202.421 272.355L200.511 271.62C200.025 271.97 199.504 272.302 199.088 272.67C200.233 273.142 201.9 273.807 204.226 274.683C206.24 274.77 208.323 274.875 210.268 275.068H210.337ZM220.753 263.06C219.816 262.955 218.948 262.868 218.08 262.728C215.973 262.416 213.909 262.036 211.9 261.59L209.4 262.938C212.393 263.714 215.519 264.352 218.739 264.846L219.364 264.251C219.712 263.883 220.163 263.463 220.649 263.06H220.753ZM436.958 201.904C434.91 199.646 430.014 200.154 424.007 204.564C419.563 209.08 421.299 212.476 412.307 219.915C404.321 219.67 424.667 212.021 411.786 211.163C408.487 210.901 402.62 216.204 397.898 220.58C393.176 224.956 389.495 228.019 389.148 221.91C393.523 218.585 397.898 215.416 402.481 212.528C398.071 207.978 408.036 201.501 404.182 198.351C411.682 190.964 425.014 190.649 430.639 181.425C430.808 180.16 430.33 178.894 429.25 177.749C418.849 181.91 409.815 186.872 402.481 192.452C404.425 193.187 402.168 195.953 397.793 200.189C396.856 201.134 395.71 202.184 394.495 203.269C393.974 206.455 393.419 209.693 393.037 212.966C386.301 215.329 374.253 225.883 373.732 228.404C371.475 227.616 348.108 241.006 340.227 253.469C345.99 255.867 366.128 229.717 363.733 246.712C369.323 234.6 374.878 237.05 382.655 226.373C376.753 237.926 386.509 233.62 383.245 243.124C387.655 237.453 392.238 231.975 397.134 226.811C398.731 227.301 378.315 251.491 396.127 243.544C399.159 238.732 403.345 234.123 408.591 229.822C413.522 225.358 417.653 221.735 415.536 219.512L417.41 220.492C418.841 219.643 420.163 218.749 421.369 217.814C421.783 217.464 422.132 217.095 422.41 216.712C422.816 216.339 423.142 215.946 423.382 215.539C424.261 214.226 424.798 212.861 424.979 211.478C425.327 208.853 426.716 206.017 436.854 201.904H436.958ZM367.135 216.117C366.614 218.97 366.093 222.523 365.434 227.319C368.211 222.61 370.954 217.937 373.975 213.439C375.78 219.635 381.683 212.126 389.113 205.492C389.53 204.319 389.113 203.847 388.245 203.742C386.44 205.037 384.773 206.28 382.482 207.592C378.08 210.757 372.887 213.622 367.031 216.117H367.135ZM379.01 197.458C377.128 197.745 375.405 198.249 373.975 198.928C372.447 201.344 371.406 203.269 370.503 204.985C374.575 202.895 377.475 200.297 378.905 197.458H379.01ZM554.869 112.392L553.897 113.25L549.175 117.643C546.745 119.831 544.279 121.879 541.745 123.874C552.265 119.691 554.348 115.718 554.765 112.392H554.869ZM601.047 70.5593C593.521 72.1421 587.364 75.0286 583.687 78.6982C584.104 82.1989 590.319 79.5034 595.527 77.5955C597.012 77.0184 598.619 76.5254 600.318 76.1253C598.061 74.55 598.686 72.6597 600.943 70.5593H601.047ZM608.408 -5.33502C611.88 -6.49023 615.109 -7.7155 618.304 -9.02824C614.594 -8.0799 611.216 -6.83238 608.304 -5.33502H608.408ZM401.995 93.226C405.15 93.0486 408.127 92.396 410.536 91.3532C412.55 85.7696 435.048 73.4823 432.34 67.3561C414.563 73.3598 419.32 77.368 413.418 82.339C413.834 84.8244 408.487 88.9727 401.89 93.226H401.995ZM338.074 187.359C339.839 186.986 341.535 186.535 343.143 186.011C344.15 184.856 345.469 183.385 347.31 181.548C343.656 183.233 340.541 185.193 338.074 187.359ZM331.304 202.219C332.38 201.991 333.456 201.781 334.776 201.501C343.494 199.593 351.493 196.94 358.42 193.66C353.779 197.309 347.72 200.447 340.609 202.884L335.053 204.634L329.949 205.982C328.493 209.013 326.349 211.95 323.561 214.734C326.477 213.614 329.463 212.441 332.415 211.128L338.803 208.258C340.54 207.114 342.431 206.032 344.463 205.02C351.823 204.214 350.539 205.475 346.685 207.242L343.386 208.555L342.9 208.73H342.692L342.102 208.835L341.581 209.063L340.504 209.5C338.699 210.148 335.852 210.883 335.123 211.251C335.915 211.673 336.993 211.929 338.143 211.968C339.741 212.126 342.206 211.968 343.456 212.143C347.964 211.891 352.348 211.24 356.406 210.218C359.001 207.083 362.211 204.087 365.989 201.274C364.08 201.431 364.184 200.154 368.975 195.515C372.006 192.938 374.708 190.266 377.065 187.516V185.538C371.472 189.271 366.258 193.145 361.441 197.143C366.501 192.191 372.075 187.376 378.142 182.72C380.155 181.74 381.232 181.583 381.787 181.845C383.697 179.412 385.259 177.172 386.891 175.194C389.852 170.886 393.827 166.772 398.731 162.942C397.932 163.825 397.58 164.794 397.708 165.762C397.835 166.731 398.437 167.668 399.46 168.49C400.536 168.017 401.717 167.562 402.932 167.072C408.209 163.379 408.418 158.128 420.292 155.153C420.429 155.07 420.535 154.975 420.605 154.873C420.64 154.947 420.64 155.025 420.605 155.1L421.82 154.82C421.16 155.485 420.466 156.168 419.737 156.85C419.033 157.773 418.149 158.659 417.098 159.493C417.098 159.493 417.098 159.336 417.098 159.266L416.126 160.159C416.463 159.954 416.754 159.731 416.994 159.493C416.647 161.244 419.737 161.139 423.938 160.159C428.872 158.051 434.067 156.104 439.493 154.33C445.326 152.16 450.36 150.199 467.478 139.82V140.87C467.819 140.709 468.143 140.54 468.45 140.362L471.123 136.862L469.63 139.942C477.722 136.296 485.374 132.409 492.546 128.303C501.282 123.313 508.236 117.599 513.1 111.412L517.267 115.945C520.739 106.353 523.447 105.041 528.412 102.87C531.421 101.726 534.076 100.363 536.294 98.827C539.972 96.1853 543.003 93.3291 545.321 90.3204L543.168 93.156C550.633 86.9598 551.814 88.185 552.612 90.618L568.445 80.9911C569.174 79.8359 569.938 78.6982 570.736 77.4905C574.521 71.9595 578.826 66.5685 592.471 63.4879C594.034 66.2709 601.117 66.2534 603.825 67.9862C610.977 62.8578 624.31 56.7141 630.907 50.693C635.629 50.5704 638.268 50.5004 637.851 51.3581C647.599 47.53 657.753 43.9717 668.266 40.6987C669.134 40.1385 669.933 39.5959 670.627 39.0709C662.919 39.3509 662.954 35.7277 674.099 28.9539V27.7812C652.33 34.7825 616.498 43.7266 608.13 53.8435L609.728 50.1854C583.027 57.0292 568.063 81.8313 550.46 79.5909C548.446 76.0902 545.39 81.2012 541.398 76.6329L528.725 88.5002L530.079 84.7544L524.558 87.8875C524.558 88.15 524.35 88.4126 524.28 88.6927C523.37 90.7258 523.205 92.8257 523.794 94.8888C515.808 98.5295 519.176 93.8736 522.405 89.1302L503.344 99.8948V98.7045L481.088 124.714C482.963 126.64 484.352 126.78 481.366 130.438C478.954 132.866 475.587 135.022 471.47 136.774C464.11 139.715 456.888 139.312 447.478 142.585L472.686 128.74C471.575 124.434 466.089 122.159 451.194 126.43C456.228 123.629 455.881 119.971 449.11 122.929C449.284 124.137 434.354 133.834 443.034 133.186C431.472 140.187 413.904 146.909 395.745 155.713L394.287 156.43L387.933 161.419L383.662 164.604L380.572 167.247L372.135 174.144C374.218 169.663 368.663 173.199 362.274 176.192L361.649 176.472C356.477 180.926 352.141 185.614 348.698 190.474C359.115 175.509 336.373 194.71 340.782 188.724C339.6 189.356 338.323 189.941 336.963 190.474C336.283 190.762 335.564 191.025 334.81 191.262C333.171 194.89 332 198.567 331.304 202.272V202.219ZM327.033 203.077L330.297 202.429C330.622 201.446 330.761 200.45 330.713 199.453C329.394 200.696 328.213 201.904 327.033 203.112V203.077ZM316.374 215.329C317.658 215.469 318.943 215.644 320.61 215.802L322.346 215.101C321.616 214.244 325.54 210.638 328.318 206.35L322.554 207.698C320.332 210.358 318.318 212.878 316.374 215.364V215.329ZM275.23 203.672C272.556 206.525 270.056 209.29 267.661 211.951C268.251 215.451 268.841 219.145 269.258 223.135C272.73 219.915 276.41 216.519 279.917 213.036C279.866 212.634 279.866 212.23 279.917 211.828C279.917 210.48 279.917 209.238 279.917 208.328L280.091 207.137V206.857C280.646 207.365 281.167 207.873 281.723 208.45C282.118 209.02 282.42 209.606 282.625 210.2C282.625 210.025 282.938 209.885 283.042 209.71C285.368 211.881 287.903 214.331 290.819 217.167L290.993 217.044C288.493 214.716 285.82 212.178 283.042 209.605C283.138 209.543 283.209 209.472 283.25 209.395C283.032 209.195 282.789 209.002 282.521 208.818L283.25 209.378L282.521 208.8C282.313 208.643 282.105 208.485 281.931 208.328C282.43 208.671 282.894 209.028 283.32 209.395C288.146 204.372 292.937 199.191 297.694 193.957L298.979 192.54C288.562 191.945 287.729 192.68 286.826 193.782C286.538 194.934 285.5 196.005 283.875 196.828C282.44 199.647 280.559 202.404 278.251 205.072C277.556 204.407 276.792 203.759 276.167 203.112L276.584 201.991C276.376 202.271 276.098 202.534 275.855 202.832C274.258 201.291 272.626 199.821 271.202 198.491C272.313 199.558 273.806 201.011 275.785 202.867C275.577 203.129 275.299 203.392 275.091 203.637L274.778 203.427C274.898 203.473 274.993 203.533 275.056 203.602C274.803 203.453 274.57 203.295 274.362 203.129L274.049 202.902C274.377 203.215 274.773 203.508 275.23 203.777V203.672ZM265.404 226.426C266.723 225.341 267.973 224.256 269.188 223.153C268.251 218.672 267.14 221.56 265.404 226.566V226.426ZM261.585 284.414C262.961 283.903 264.271 283.347 265.508 282.752L267.73 281.579C268.251 281.264 267.938 281.386 268.077 281.264L268.39 280.879L270.473 279.584V279.479L270.751 279.251L271.237 278.796C274.017 276.226 276.34 273.538 278.181 270.762C279.482 269.037 280.21 267.215 280.334 265.371C280.334 265.056 279.917 265.021 279.396 265.231C276.164 268 272.371 270.593 268.077 272.967L266.515 271.97L264.571 273.37L261.793 275.12L260.161 275.943C259.002 276.491 257.773 276.999 256.481 277.466L254.502 278.113L253.043 278.498L250.162 279.163L247.801 279.531C246.794 280.109 245.683 280.686 244.641 281.281C244.66 281.433 244.66 281.585 244.641 281.736C249.904 283.185 255.645 284.139 261.585 284.555V284.414ZM322.033 252.226L319.88 255.727C333.769 248.2 339.741 234.723 347.83 221.788L346.719 221.963C344.438 222.304 342.119 222.579 339.775 222.785C331.26 223.415 322.645 223.632 314.047 223.433C312.763 223.433 311.686 223.433 310.575 223.433C307.103 228.579 304.152 233.707 300.923 238.731C298.354 242.809 295.715 246.87 292.833 250.773C291.757 253.836 290.472 257.074 288.806 260.452C286.782 264.655 284.005 268.756 280.507 272.705C278.76 274.849 276.682 276.921 274.292 278.901L272.383 280.301L271.897 280.651L269.466 282.086L269.049 282.314L267.73 283.014L265.265 284.117L263.911 284.66C268.441 284.69 272.927 284.205 277.035 283.242C289.674 280.301 305.159 272.057 322.033 252.366V252.226ZM185.547 226.671C185.547 227.004 185.894 227.371 186.067 227.756C186.241 228.141 186.31 228.281 186.415 228.561C186.519 228.841 186.415 228.841 186.588 228.999C186.756 229.268 186.884 229.543 186.97 229.822C186.94 229.735 186.94 229.646 186.97 229.559C186.94 229.664 186.94 229.77 186.97 229.874C186.991 229.985 186.991 230.096 186.97 230.207C187.179 230.609 187.283 231.047 187.491 231.502C187.699 231.957 187.803 232.325 187.908 232.78C187.902 232.832 187.902 232.885 187.908 232.937C187.934 232.897 187.934 232.854 187.908 232.815C187.926 232.739 187.926 232.663 187.908 232.587C187.877 232.512 187.877 232.435 187.908 232.36C187.891 232.47 187.891 232.582 187.908 232.692C187.793 232.468 187.712 232.24 187.665 232.01C187.665 232.01 187.665 232.01 187.665 231.905C187.698 231.806 187.698 231.706 187.665 231.607C187.681 231.496 187.681 231.385 187.665 231.275C187.665 231.064 187.665 230.889 187.456 230.679C187.423 230.587 187.423 230.492 187.456 230.399C187.471 230.347 187.471 230.294 187.456 230.242V230.119C187.357 229.959 187.288 229.795 187.248 229.629C187.214 229.513 187.214 229.395 187.248 229.279C187.248 229.122 187.074 228.982 187.005 228.842C186.989 228.76 186.989 228.678 187.005 228.596C186.969 228.486 186.969 228.374 187.005 228.264C187.005 228.159 187.005 228.036 187.005 227.914C186.659 227.081 186.23 226.257 185.72 225.446C185.751 225.503 185.751 225.564 185.72 225.621C185.643 225.478 185.551 225.338 185.442 225.201C185.72 225.621 185.963 226.128 186.241 226.689C186.241 226.689 186.241 226.584 186.241 226.531L185.547 226.671ZM183.88 223.415C183.88 223.415 183.88 223.415 183.706 223.31V223.555L183.88 223.415ZM183.95 223.643V223.783L185.165 224.746L183.741 223.591L183.95 223.643ZM292.451 216.187L292.66 216.362C292.66 216.362 292.66 216.204 292.416 216.152C290.75 214.944 289.222 213.771 287.729 212.651L289.674 214.156L292.139 215.907V215.994L292.451 216.187ZM286.826 211.933L287.347 212.353L283.875 209.588C283.973 209.646 284.055 209.711 284.118 209.78L286.826 211.933ZM287.139 212.213L288.354 213.123L288.667 213.369L287.556 212.493C287.467 212.455 287.396 212.407 287.347 212.353L287.139 212.213ZM290.958 215.119L291.236 215.294L291.41 215.434L290.958 215.119ZM136.486 336.522C136.416 336.221 136.312 335.923 136.174 335.629C135.958 335.777 135.863 335.961 135.908 336.144C135.953 336.326 136.135 336.493 136.417 336.609L136.486 336.522ZM188.359 233.567C188.845 234.915 189.262 236.473 189.817 238.293C189.609 237.593 189.401 236.963 189.262 236.333L188.498 233.952C188.468 233.825 188.468 233.695 188.498 233.567H188.359ZM188.081 232.815C187.769 231.799 187.456 230.907 187.144 230.119C187.456 230.907 187.769 231.87 188.081 232.815ZM194.609 233.777V233.515V233.62V233.497C194.609 233.392 194.609 233.305 194.435 233.217L194.748 233.725L195.06 234.198C195.06 234.198 195.06 234.198 195.06 234.32C195.06 234.443 195.06 234.198 195.06 234.11V233.917V234.04V233.882L194.609 233.777ZM264.05 191.437L270.23 197.213C270.112 197.139 270.018 197.057 269.952 196.968C267.14 194.307 264.987 192.295 264.05 191.437ZM274.466 202.867C274.623 202.942 274.752 203.031 274.848 203.129C274.683 202.983 274.497 202.842 274.292 202.709C274.292 202.709 274.084 202.902 274.292 202.954L274.466 202.867ZM273.563 202.184L273.772 202.324C273.772 202.324 273.32 202.307 273.216 202.272L273.563 202.184ZM271.688 198.491C272.452 199.698 272.14 199.348 271.341 198.578L271.688 198.491ZM271.966 199.646L271.758 199.278C272.07 199.839 272.417 200.399 272.799 201.029L271.966 199.646ZM196.102 267.226L196.31 268.381C196.31 268.381 196.31 268.241 196.31 268.171V268.504V268.294V267.751C196.292 267.588 196.292 267.424 196.31 267.261C196.31 267.016 196.31 266.771 196.31 266.491L195.824 264.058L195.199 260.767L194.991 259.577L194.539 257.389L195.824 264.058L196.102 267.226ZM193.984 256.444C193.984 256.742 193.984 257.039 194.192 257.319C194.192 257.127 194.192 256.969 194.192 256.794L193.984 255.954V256.444ZM224.538 254.221C224.816 254.414 225.128 254.571 225.441 254.781L226.065 255.201L224.538 254.221ZM192.491 249.618L192.282 248.725L192.491 249.705V249.618ZM192.491 249.268V248.725L192.664 249.443L192.491 249.268ZM192.491 248.725L193.012 251.158V251.053C192.803 250.248 192.664 249.46 192.491 248.725ZM193.984 255.972L194.262 257.372L193.949 255.989L193.984 255.972ZM194.296 257.354L193.984 255.972L194.192 256.899L194.296 257.354ZM194.956 260.435C194.94 260.348 194.94 260.26 194.956 260.172V260.435ZM212.316 246.17C211.24 245.417 210.198 244.682 209.226 244.052L212.212 246.065C212.212 246.065 212.212 246.065 212.212 246.17H212.316ZM250.925 237.418C250.906 237.458 250.906 237.5 250.925 237.541V237.418ZM209.261 243.999L212.351 246.117L209.573 244.227L209.261 243.999ZM198.359 236.7C198.186 236.606 198.024 236.506 197.872 236.403C197.892 236.437 197.892 236.474 197.872 236.508C198.073 236.594 198.249 236.694 198.393 236.805L198.22 236.683L198.359 236.7ZM192.838 230.924V230.714V230.487V230.592L193.046 230.872L192.838 230.924ZM190.338 239.781C190.294 239.47 190.212 239.16 190.095 238.853L190.616 240.604V240.954C190.6 240.919 190.6 240.883 190.616 240.849L191.067 242.599V242.372C191.067 242.126 191.067 241.916 191.067 241.689L190.234 238.591C190.2 238.713 190.2 238.836 190.234 238.958C190.234 239.658 190.651 240.481 190.859 241.339C190.859 241.181 190.859 240.989 190.859 240.849C190.784 240.711 190.726 240.57 190.685 240.429C190.685 239.641 190.338 238.888 190.13 238.206C190.096 238.066 190.096 237.925 190.13 237.786V237.523V237.716C189.988 237.381 189.895 237.042 189.852 236.7C190.06 237.243 190.199 237.821 190.373 238.451C190.373 238.696 190.373 238.906 190.581 239.151L190.338 239.781ZM203.983 240.306C203.74 240.096 203.393 239.869 203.185 239.676C203.14 239.616 203.069 239.562 202.976 239.518C203.097 239.582 203.202 239.652 203.289 239.729C203.289 239.729 203.289 239.729 203.289 239.851C203.471 239.957 203.623 240.074 203.74 240.201L204.053 240.446C203.953 240.408 203.849 240.373 203.74 240.341L203.983 240.306ZM202.247 239.028C202.344 239.081 202.426 239.14 202.49 239.203V239.326C202.305 239.25 202.142 239.162 202.004 239.063L202.247 239.028ZM198.602 236.858C197.872 236.403 197.178 235.93 196.484 235.44C197.004 235.773 197.456 236.123 197.977 236.42L197.352 236C197.459 236.105 197.6 236.199 197.768 236.28C197.825 236.337 197.895 236.39 197.977 236.438C198.088 236.488 198.182 236.547 198.254 236.613C198.181 236.553 198.087 236.499 197.977 236.455C198.201 236.553 198.399 236.665 198.567 236.788L198.602 236.858ZM195.511 234.67C195.199 234.303 194.886 233.935 194.609 233.567V233.847L195.234 234.583C195.223 234.603 195.22 234.625 195.226 234.646C195.232 234.667 195.246 234.687 195.268 234.705L195.511 234.67ZM193.706 232.167C193.706 232.167 193.428 232.185 193.463 232.202L193.706 232.167ZM192.907 231.047V230.907V231.064V231.187V231.047ZM193.15 230.959C192.938 230.746 192.694 230.542 192.421 230.347C192.727 230.524 192.973 230.725 193.15 230.942V230.959ZM189.227 227.791C188.833 227.442 188.404 227.103 187.942 226.776L191.692 229.769C191.965 229.952 192.209 230.145 192.421 230.347L189.227 227.791ZM185.755 224.938L184.818 224.168L185.824 224.991L185.755 224.938ZM184.818 224.833C184.744 224.742 184.686 224.649 184.644 224.553C184.407 224.418 184.197 224.272 184.019 224.116C184.019 224.413 184.366 224.763 184.644 225.183C184.616 225.108 184.616 225.031 184.644 224.956L184.956 225.411C184.938 225.353 184.938 225.294 184.956 225.236C184.956 225.096 184.748 224.973 184.679 224.851C184.659 224.81 184.659 224.768 184.679 224.728C184.605 224.769 184.546 224.817 184.505 224.868L184.818 224.833ZM202.004 238.836C202.004 238.836 202.004 238.836 202.004 238.958V238.836ZM183.706 223.275C183.788 223.348 183.858 223.424 183.915 223.503L184.401 224.151C184.416 224.093 184.416 224.034 184.401 223.976C184.43 223.936 184.43 223.893 184.401 223.853C184.323 223.775 184.265 223.693 184.227 223.608L184.054 223.45L183.706 223.275ZM79.3711 264.863L78.3643 264.968C78.2617 265.1 78.1458 265.228 78.0171 265.353C78.4685 265.231 78.9198 265.038 79.3365 264.916L79.3711 264.863ZM79.7531 263.113V262.78C79.7333 262.903 79.7333 263.026 79.7531 263.148V263.113ZM303.006 258.3C306.131 258.755 312.415 250.896 316.478 247.5C310.853 251.158 302.069 250.493 302.694 258.212L303.006 258.3ZM279.5 278.043C282.348 275.05 285.16 272.005 287.694 268.802C284.014 272.162 280.23 275.435 276.167 278.463L279.5 278.043ZM348.733 60.8275L344.845 62.7528C345.911 62.0277 347.108 61.3538 348.421 60.7398L348.733 60.8275ZM879.715 -160.729L879.506 -161.324C879.603 -161.155 879.566 -160.973 879.402 -160.817L879.715 -160.729ZM951.899 -160.432L951.69 -161.132C952.211 -161.517 952.211 -161.184 951.794 -160.519L951.899 -160.432ZM625.525 471.647C622.929 473.605 621.113 475.798 620.178 478.106C622.192 475.991 623.886 473.803 625.248 471.56L625.525 471.647ZM608.165 423.688C604.1 426.103 600.883 428.849 598.652 431.81C602.784 434.278 604.138 427.014 607.992 423.653L608.165 423.688ZM639.691 461.46L648.024 455.369C650.385 453.619 653.892 450.626 656.809 448.018C670.94 435.188 687.363 423.916 697.328 413.011C705.799 398.466 687.779 394.16 678.301 384.551C676.009 384.026 664.412 388.787 654.413 395.525C644.413 402.264 636.601 410.876 639.379 414.446C660.211 405.362 622.644 437.708 655.038 415.427C658.51 416.319 657.816 420.678 654.448 425.929C652.552 428.88 650.231 431.759 647.504 434.54C646.115 436.063 644.552 437.568 642.99 439.021C642.226 439.616 640.108 441.261 638.58 442.207C636.948 440.176 639.448 436.763 640.108 434.995C640.768 433.77 641.219 432.807 640.733 432.387C640.247 431.967 639.934 432.142 639.136 432.247L637.643 432.545L636.74 432.807L636.219 432.982H635.976C635.415 434.974 634.638 436.949 633.65 438.898L632.296 441.629C631.845 442.977 632.47 443.659 636.462 445.375C628.685 457.627 630.907 462.37 625.282 471.525C628.859 468.496 633.963 465.188 639.518 461.373L639.691 461.46ZM447.166 558.726C446.194 559.251 445.222 559.706 444.319 560.109C444.319 560.196 443.59 560.424 443.972 560.424L442.409 560.861C441.696 561.053 441.031 561.289 440.43 561.562C435.016 563.201 430.22 565.311 426.264 567.793C419.737 567.145 411.438 567.688 400.883 569.105C389.154 570.796 378.073 573.47 368.107 577.017C373.385 576.579 368.906 581.988 368.906 584.561C368.906 585.839 369.531 586.311 372.725 584.858C378.984 581.756 386.065 579.105 393.766 576.982C390.016 578.137 393.071 578.295 389.426 579.555C407.064 578.137 417.48 578.102 425.5 576.544C433.521 574.987 439.389 573.306 447.687 572.221C452.756 573.096 450.881 574.742 446.923 576.194C442.965 577.647 438.798 578.505 444.562 578.767L453.138 577.192L455.916 576.632L457.825 576.194C459.208 575.859 460.552 575.485 461.853 575.074C468.355 572.847 473.817 569.932 477.859 566.532C487.546 558.656 496.782 549.152 490.879 544.933C492.58 543.533 494.594 542.133 496.33 540.96C497.582 540.156 498.926 539.391 500.358 538.667C502.372 537.563 504.715 536.624 507.302 535.884C510.492 535.25 513.874 534.895 517.301 534.834C524.697 522.844 550.772 514.198 572.021 507.459C593.27 500.72 609.623 494.121 602.749 487.085C594.902 491.426 580.146 496.869 569.035 505.078L560.216 495.207C540.148 503.538 564.799 503.416 535.321 515.038L544.418 512.027C535.321 517.786 520.912 524.174 506.226 531.876L500.67 534.817L495.254 538.002L489.456 541.783L484.456 545.388L469.109 557.641C468.484 555.505 464.978 556.678 461.54 557.186C460.692 557.398 459.753 557.503 458.806 557.492C457.859 557.48 456.932 557.353 456.104 557.12C455.277 556.887 454.575 556.557 454.058 556.156C453.541 555.756 453.225 555.298 453.138 554.823C451.317 556.184 449.26 557.461 446.992 558.638L447.166 558.726ZM249.814 672.147C254.794 668.848 258.783 665.197 261.654 661.313C262.087 660.676 262.446 660.027 262.73 659.37V659.195L261.967 659.51L260.89 660.122L259.119 661.313C257.453 661.925 256.272 662.626 255.474 662.258C254.602 662.054 253.832 661.755 253.217 661.383C248.321 666.319 238.114 671.955 249.641 672.06L249.814 672.147ZM264.779 689.931L270.924 676.331C267.954 680.721 265.838 685.246 264.605 689.843L264.779 689.931ZM272.313 674.388C271.827 675.035 271.341 675.683 270.924 676.331L271.897 674.23C271.694 674.146 271.508 674.052 271.341 673.95C271.341 673.95 271.792 673.565 272.591 672.69L273.702 670.204L274.015 669.469C273.737 669.469 272.938 669.889 272.522 670.169C271.817 670.655 271.064 671.123 270.265 671.57C269.154 672.287 268.702 672.287 268.147 671.99C266.619 670.397 265.369 664.533 265.369 656.552C265.366 651.777 266.332 647.015 268.251 642.339C269.163 640.499 270.323 638.692 271.723 636.931C272.244 636.003 272.14 635.74 272.452 635.18V635.005L275.021 632.922L276.931 631.452C278.292 630.533 279.814 629.678 281.48 628.897C284.564 627.444 288.236 626.345 292.243 625.676C294.579 625.372 296.959 625.161 299.361 625.046C299.361 624.836 299.048 624.626 298.909 624.398C295.616 616.969 293.503 609.418 292.59 601.819C291.44 592.439 292.736 583.024 296.444 573.814C297.694 570.751 299.118 567.478 301.236 563.977C302.208 562.227 303.492 560.476 304.708 558.638L306.93 555.908L309.811 552.81L313.665 549.309L314.881 548.382L317.172 546.631L318.457 545.791L320.992 544.198C324.401 542.138 328.191 540.245 332.31 538.545C348.629 531.683 368.177 530.318 380.364 529.881C392.551 529.443 399.564 529.11 402.619 527.343C396.266 531.508 416.785 537.092 423.452 533.434C423.351 532.726 422.789 532.056 421.855 531.526L421.264 531.228V531.123L421.994 531.001H421.681L420.709 530.913L418.695 530.756C418.209 530.668 418.105 530.476 417.827 530.318C417.549 530.161 418.035 530.476 418.591 530.476H420.362H421.264H421.473L420.709 530.633H420.883L421.369 530.738C421.975 530.934 422.665 531.054 423.382 531.088C425.31 531.211 427.258 530.961 428.834 530.388C433.035 529.163 438.729 525.4 445.395 519.886L456.367 511.135L462.825 506.234L464.943 504.483L465.498 504.063L466.679 503.381L466.922 503.118L468.172 502.208C474.206 497.921 479.174 493.277 482.963 488.38L475.741 502.768C496.955 486.56 513.934 481.186 525.044 469.827C525.044 471.192 520.392 474.045 522.753 475.445C540.981 474.028 549.453 460.393 563.48 457.82L555.459 463.246C555.702 466.011 567.994 460.655 573.688 457.89C581.5 453.794 592.367 440.981 575.945 445.357C581.43 443.484 586.708 441.542 591.708 439.459C591.642 439.195 591.422 438.948 591.075 438.749C590.729 438.549 590.272 438.406 589.763 438.338C595.006 437.901 601.36 434.838 606.742 432.107C609.368 430.535 612.419 429.157 615.804 428.011C618.165 427.486 620.283 427.854 621.984 429.762C620.942 434.015 620.63 437.306 619.762 440.474C618.329 444.934 614.858 449.164 609.623 452.831C598.235 452.061 588.791 457.189 577.75 463.613C566.709 470.037 554.036 477.721 538.307 482.517C533.724 489.518 538.307 489.343 519.871 498.27C518.065 489.518 554.175 478.333 529.419 478.263C518.052 481.043 507.827 484.879 499.281 489.57C489.872 494.821 482.755 501.14 482.755 506.531C506.434 493.351 508.344 498.55 509.941 502.435C511.538 506.689 513.1 510.189 535.599 498.935C526.259 504.378 523.898 510.504 508.135 519.256C478.414 530.546 544.904 485.107 485.22 515.458C486.713 519.991 488.935 524.017 489.907 528.953C486.079 531.032 482.486 533.217 479.144 535.499L469.665 542.711C465.542 546.123 460.984 549.397 456.02 552.512C466.875 542.518 475.048 531.841 480.324 520.761C476.86 522.592 473.647 524.54 470.707 526.59C467.408 528.778 464.422 531.088 461.506 533.364C457.028 537.113 452.064 540.709 446.645 544.128C438.312 548.574 434.562 547.384 430.535 545.301C423.591 549.502 411.786 551.795 392.794 556.258C382.078 558.954 372.739 562.859 365.503 567.67C361.389 570.524 357.897 573.593 355.087 576.824L353.004 579.362L352.205 580.062V580.203L352.032 580.448L351.789 580.955C351.546 581.305 351.546 581.498 351.129 582.058C350.157 583.353 348.941 584.946 348.247 586.189C347.553 587.431 347.067 588.552 346.581 589.689C343.462 598.349 342.055 607.144 342.379 615.944C342.379 623.961 342.9 631.312 343.143 638.016C343.502 643.766 343.212 649.523 342.275 655.257C342.067 656.272 341.859 657.217 341.546 658.092C337.439 656.284 333.114 654.607 328.595 653.069C321.309 650.783 313.122 649.325 304.603 648.798C301.131 648.413 301.756 646.032 307.416 644.212C313.075 642.392 323.457 643.004 331.199 644.79C325.548 642.954 319.217 641.715 312.589 641.149C309.147 640.871 305.624 641.004 302.302 641.536C298.98 642.067 295.951 642.984 293.458 644.212C292.188 644.832 291.027 645.505 289.986 646.225L289.257 646.768L287.868 647.87V647.958L287.625 648.238L286.375 649.743C285.403 650.863 284.57 652.019 283.84 653.156C283.344 653.971 282.95 654.802 282.66 655.642C280.955 659.754 280.429 663.969 281.098 668.157C281.584 671.097 282.452 673.583 283.181 676.331C284.049 678.799 284.361 682.422 285.403 682.754C283.563 681.949 283.077 678.011 282.209 676.016C281.514 673.688 280.82 672.515 279.987 672.252C279.153 671.99 278.042 672.672 276.514 673.478C274.987 674.283 273.702 674.86 272.14 674.3L272.313 674.388ZM314.568 625.519L314.013 625.624C319.222 626.432 324.315 627.42 329.255 628.582C337.067 630.49 341.129 631.452 342.345 631.155C343.56 630.857 341.095 629.002 333.283 626.831C328.791 625.615 323.721 625.046 318.63 625.186C317.205 625.237 315.789 625.342 314.395 625.501L314.568 625.519ZM264.779 689.861L259.953 699.995C261.342 699.19 263.425 698.245 265.161 697.387C264.005 694.914 263.817 692.352 264.605 689.843L264.779 689.861ZM287.764 700.275C286.479 703.618 284.847 705.526 283.493 708.869C284.743 707.119 286.549 705.264 288.146 703.338C289.743 701.413 289.43 699.942 287.59 700.205L287.764 700.275ZM879.055 396.085L856 405.047C861.972 403.612 865.479 404.75 869.437 405.957C869.819 404.014 884.506 397.503 878.881 396.068L879.055 396.085ZM358.837 661.908C359.879 655.239 359.566 649.831 355.365 654.364C355.689 660.043 354.992 665.726 353.282 671.342C353.144 671.9 352.912 672.45 352.587 672.987L352.275 673.775C353.282 673.32 351.546 674.51 352.448 674.09C352.658 674.056 352.879 674.044 353.099 674.054C353.318 674.065 353.531 674.099 353.723 674.153C353.916 674.207 354.084 674.281 354.217 674.37C354.35 674.458 354.445 674.56 354.497 674.668C354.775 673.758 355.469 672.497 356.129 671.167C357.377 668.109 358.281 665.018 358.837 661.908ZM855.827 405.03C852.031 406.038 848.593 407.357 845.654 408.933L855.827 405.03ZM211.031 762.639L211.379 762.482L213.15 760.522C212.212 760.066 207.941 761.012 203.358 762.639H211.031ZM171.068 762.639C174.227 761.006 177.718 759.545 181.484 758.281C173.705 759.539 166.057 760.994 158.569 762.639H171.068ZM1440 106.266V100.017C1425.49 107.316 1413.4 112.27 1410.66 108.926C1398.27 116.645 1404.38 116.873 1385.21 129.528C1381.74 140.205 1395.11 137.107 1379.52 155.538L1396.5 145.158C1398.72 141.833 1399.97 138.735 1402.71 135.339L1387.85 148.676C1395.42 138.665 1391.32 137.982 1389.76 131.751C1412.02 112.567 1426.32 113.11 1440 106.336V106.266ZM1440 275.068C1425.73 282.437 1404.69 304.928 1405.8 309.462C1394.9 313.732 1441.15 243.124 1387.95 293.919C1366.39 312.28 1385.11 314.363 1376.36 328.05C1376.36 328.05 1376.01 326.527 1373.96 326.982C1363.34 334.544 1366.18 338.797 1359.31 346.831C1367.16 343.523 1376.04 336.539 1377.26 332.828C1378.75 339.27 1355.8 349.404 1350.84 358.173C1355 344.678 1327.61 370.426 1332.47 361.429C1306.81 372.158 1287.33 390.834 1279.49 402.037C1255.77 402.632 1252.44 417.79 1221.96 426.541C1226.33 424.791 1232.65 420.24 1239.32 418.35C1249.73 406.342 1210.32 428.029 1227.3 413.764C1224.8 416.179 1230.77 415.724 1234.66 412.749C1243.1 407.9 1249.25 401.529 1244.77 400.339L1218.97 406.325L1225.32 401.546C1212.44 404.697 1199.49 407.69 1186.44 410.473C1186.44 411.891 1190.81 411.786 1193.03 411.716C1151.89 426.174 1109.46 447.09 1073.77 459.36C1080.16 476.338 993.251 497.517 974.398 517.488C977.87 510.487 975.231 501.543 967.974 500.37C973.529 497.324 980.856 486.542 996.028 482.359C1000.4 483.812 1020.33 479.804 1011.44 486.718C1049.12 470.282 1000.4 482.377 1007.1 472.715C964.884 490.568 947.836 509.034 924.886 523.649L922.629 522.302L906.172 534.151C922.872 527.973 929.712 536.357 906.693 542.763L908.845 541.223C893.915 543.13 874.125 558.428 856.764 567.25L849.473 578.225C831.106 587.221 821.697 579.012 810.864 576.912C782.219 590.81 772.671 605.95 757.047 620.233C744.235 620.985 702.015 641.534 719.445 625.641C697.987 642.024 722.5 658.985 670.489 671.15L677.433 661.523C667.85 667.211 657.781 674.125 648.128 681.179C643.302 684.68 637.712 688.968 633.581 692.276C629.449 695.584 625.421 699.277 621.637 703.041C606.603 717.848 594.589 733.549 585.77 739.045C583.791 727.388 571.257 734.161 556.432 743.718C541.606 753.275 523.76 764.88 513.795 761.642C514.42 761.782 514.732 762.149 514.836 762.692H464.214C477.303 757.441 492.233 747.236 508.239 728.613L505.705 732.919C522.544 723.782 529.662 707.451 539.488 691.751L538.203 691.979C534.94 692.451 532.648 692.714 529.766 692.994C519.422 693.747 508.959 694.005 498.518 693.764H494.455C490.358 700.03 486.678 706.261 482.824 712.335C479.63 717.288 476.435 722.189 472.929 726.933C471.713 730.643 470.151 734.547 468.137 738.642C465.678 743.758 462.296 748.75 458.034 753.555C455.79 756.06 453.155 758.472 450.152 760.766L447.86 762.517L447.548 762.727H444.354L445.847 761.799V761.677L446.159 761.397L446.749 760.819C450.119 757.712 452.909 754.454 455.082 751.087C456.668 749.005 457.559 746.805 457.721 744.576C457.721 744.191 457.235 744.138 456.61 744.418C452.678 747.76 448.083 750.892 442.895 753.765L440.951 752.575L438.659 754.325L435.187 756.426L433.278 757.441C431.855 758.069 430.36 758.653 428.799 759.191L426.438 759.961L424.736 760.416L421.264 761.221C420.341 761.416 419.389 761.574 418.417 761.694C417.792 762.044 417.133 762.377 416.508 762.744H211.379L211.552 762.587L227.315 755.428L231.864 751.367L230.197 754.168L245.44 747.167C246.62 746.134 247.835 745.031 249.398 743.876L241.273 743.508C237.975 746.274 234.78 748.847 231.864 751.367L236.655 743.281L233.183 743.123C204.192 751.035 226.239 757.458 190.234 762.744H188.498C189.697 760.588 191.254 758.486 193.15 756.461C192.8 756.555 192.427 756.626 192.039 756.671C203.428 748.147 181.623 756.023 176.901 755.2C182.665 751.962 188.394 748.742 194.053 745.486C182.457 748.094 169.749 749.932 152.389 757.511C155.375 755.533 155.305 754.01 163.048 751.507C159.402 752.155 155.826 752.837 152.284 753.555C150.687 755.095 149.055 756.723 147.146 758.526C147.412 757.891 147.337 757.231 146.928 756.616C146.519 756 145.791 755.451 144.819 755.025C142.597 755.533 140.375 755.971 138.188 756.496L124.994 759.716L119.404 761.204L116.73 761.922L114.439 762.657H102.842C103.745 761.887 104.717 761.081 105.759 760.329C107.718 758.799 109.924 757.353 112.356 756.006C113.941 755.036 115.633 754.113 117.425 753.24C118.675 751.735 119.994 750.247 121.418 748.724C128.605 740.953 138.084 733.094 148.187 729.366C132.667 733.409 141.243 727.615 150.097 722.259C158.951 716.903 168.152 710.882 158.673 710.269C154.508 715.618 148.645 720.59 141.313 724.99C132.355 730.748 123.952 736.192 115.967 740.638L119.682 736.402C109.266 743.246 105.55 753.205 98.5369 762.657H71.4896C79.7966 754.258 88.9517 746.079 98.9188 738.152C105.727 732.718 113.074 727.461 120.932 722.399C124.681 720.019 130.723 716.361 134.264 714.418L147.805 706.769C151.902 706.436 148.222 709.744 146.312 711.425C171.797 695.847 210.58 675.175 222.698 659.09C227.689 655.847 233.319 652.868 239.502 650.198C244.606 647.94 248.599 646.943 248.356 649.13C246.274 650.83 244.618 652.652 243.426 654.556C244.71 655.467 244.398 658.145 244.71 657.9C245.324 656.384 246.315 654.914 247.662 653.524C248.673 652.356 250.057 651.28 251.759 650.338L252.28 650.076V650.513C252.28 650.706 252.488 650.898 252.592 651.056C253.877 650.181 251.377 652.018 250.648 653.016C249.888 653.853 249.227 654.713 248.669 655.589C248.229 656.298 247.904 657.024 247.696 657.76C247.322 658.147 247.02 658.552 246.794 658.967H247.106C247.048 658.984 246.982 658.993 246.915 658.993C246.848 658.993 246.782 658.984 246.724 658.967C245.023 661.995 247.384 663.361 247.592 664.551C236.725 672.077 234.641 669.802 233.253 667.526C231.829 673.04 214.122 678.886 212.108 686.587C190.407 701.273 206.865 679.586 192.317 688.828V702.445L165.304 715.555C147.944 727.615 153.048 730.486 157.666 734.022C159.262 735.003 160.403 736.152 161.004 737.385C161.604 738.618 161.65 739.902 161.138 741.145C161.138 741.145 161.138 741.285 161.138 741.32C164.61 740.865 168.464 740.375 172.457 739.955L171.554 743.928C184.929 739.837 199.028 736.38 213.67 733.601C223.08 727.983 232.419 722.312 241.62 716.413C241.966 717.876 241.719 719.36 240.896 720.774C240.072 722.188 238.689 723.503 236.829 724.64C254.502 713.14 244.051 708.677 259.397 699.96C254.768 709.517 249.826 718.945 244.572 728.245C253.043 726.88 261.342 725.602 269.64 724.097C277.348 715.8 285.195 707.626 287.59 703.303L293.736 696.599L297 693.221L297.868 692.381C298.215 692.154 298.631 691.733 298.25 691.909C297.868 692.084 297.833 692.049 297.833 691.996L298.944 685.432C299.302 682.443 300.021 679.468 301.097 676.523C299.714 681.043 298.926 685.604 298.736 690.176C298.736 692.976 299.465 693.379 301.131 694.131C303.49 691.56 305.361 688.882 306.721 686.133C308.772 682.297 311.708 678.596 315.471 675.105C315.826 674.724 316.335 674.385 316.964 674.108L318.144 673.32L319.637 672.602C320.715 672.17 321.963 671.859 323.298 671.69C324.634 671.521 326.026 671.498 327.38 671.622C333.005 672.313 338.257 673.622 342.761 675.455C346.29 676.867 350.164 678.043 354.289 678.956C355.677 679.149 356.406 678.956 356.441 678.624C356.476 678.291 356.719 678.169 355.886 678.239C355.052 678.309 356.823 677.486 356.094 677.766L356.615 676.838L355.99 677.381C355.99 677.381 355.99 677.381 355.816 677.486C355.519 677.471 355.226 677.436 354.948 677.381C351.334 676.429 347.924 675.291 344.775 673.985C349.393 675.123 353.073 675.736 354.045 675.193C354.045 675.683 354.046 676.051 354.636 676.208C354.046 676.103 355.261 674.895 356.129 673.775L358.594 670.275C360.052 667.877 361.545 665.251 362.934 662.555C365.642 657.112 368.177 651.371 370.503 645.875C375.156 634.673 379.148 625.186 379.461 614.894C381.38 615.586 383.44 616.173 385.606 616.644C388.143 617.081 390.78 617.352 393.453 617.449C399.46 617.449 406.022 615.699 417.306 612.916C406.717 612.076 409.112 610.291 412.376 608.26C415.64 606.23 419.633 604.532 409.494 602.764C412.723 600.279 420.778 599.859 427.549 600.016C433 600.016 437.583 600.244 438.972 599.299L438.382 600.576C463.172 604.725 475.672 601.714 481.505 596.13C487.338 590.547 487.893 583.196 491.296 577.174C497.629 571.063 504.739 565.164 512.579 559.514C514.593 558.131 516.364 557.116 517.996 556.118L523.655 553.125C527.301 551.375 530.877 549.624 534.419 548.084C548.724 541.905 562.785 537.214 579.555 530.318C584.724 533.204 591.719 535.097 599.346 535.674L614.38 524.91C597.541 523.439 608.13 519.431 588.513 522.004C596.221 520.621 610.63 514.233 624.38 507.511C638.129 500.79 651.219 493.509 659.899 492.424L656.427 495.819C661.87 493.892 667.965 492.48 674.412 491.653L668.996 489.168C681.877 483.234 696.772 477.528 711.285 471.892C713.195 469.652 715.209 467.184 717.361 464.453C721.424 459.762 725.659 455.229 730.138 450.871C730.096 451.704 730.235 452.538 730.555 453.356C738.13 448.976 747.869 445.685 758.783 443.817C765.727 442.364 771.942 439.879 786.802 430.969C784.546 432.335 786.802 432.387 784.407 433.735C806.836 429.849 821.627 416.967 835.897 410.981C849.542 413.169 837.807 416.494 835.064 421.833C840.971 420.453 846.669 418.856 852.112 417.054C857.216 413.554 863.292 409.598 869.055 406.115C868.999 406.024 868.999 405.926 869.055 405.835H869.507C874.992 402.355 880.955 399.074 887.353 396.015C893.225 392.323 901.031 389.534 909.887 387.964C913.741 385.163 917.143 382.468 919.921 379.982C928.011 378.355 936.031 376.604 943.843 374.731C941.448 376.377 939.017 378.232 936.656 380.087C937.385 379.825 938.045 379.562 938.809 379.317C937.837 379.842 936.865 380.297 935.927 380.753C928.671 386.774 923.671 393.005 928.566 394.108C939.156 389.032 935.858 387.596 950.371 382.555C954.26 379.055 957.003 375.712 952.211 373.804L967.731 376.779C950.614 382.573 959.433 383.536 949.885 389.697C948.288 392.375 946.413 395.333 944.121 398.571C983.772 390.012 941.899 384.778 974.502 383.991C978.807 381.854 981.909 379.178 983.489 376.237C985.069 373.297 985.071 370.198 983.494 367.258C991.031 365.607 998.359 363.725 1005.44 361.621C1002.66 356.02 1021.72 341.685 1030.89 329.52C1029.95 326.422 1017 333.791 1014.46 339.147C1011.93 335.646 1018.63 326.265 1024.5 318.616L1008.08 310.092L1013.87 299.922C1023.67 282.979 1037.42 265.353 1040.05 277.588C1053.94 257.809 1076.2 238.276 1098.7 222.12C1121.2 205.965 1143.28 192.365 1156.19 182.458C1168.69 180.007 1188.9 169.768 1181.44 180.707C1217.79 161.716 1226.85 142.34 1262.3 123.804C1266.33 123.279 1247.51 133.466 1251.88 135.882C1260.81 127.13 1271.54 121.879 1283.31 115.035C1299.32 106.336 1311.7 96.1042 1319.73 84.9469C1317.26 87.618 1316.24 90.5716 1316.78 93.506C1317.33 90.0054 1324.69 78.9258 1327.96 70.9793C1332.23 67.3036 1324.94 77.8581 1328.17 76.4403C1352.3 48.2425 1370.91 20.1672 1397.61 -1.50185C1409.24 -11.2592 1423.51 -20.1542 1440 -27.9318V17.7518C1437.36 18.6294 1434.35 19.1867 1431.22 19.3797C1411.49 33.1022 1417.33 35.8327 1421.53 36.8829C1426.18 38.4757 1429.62 38.6332 1411.49 52.4608C1406.18 53.7561 1401.08 55.2438 1395.73 56.8016C1389 68.3538 1381.84 82.0064 1374.24 96.0441C1370.43 103.312 1365.68 110.446 1360 117.398C1355.07 123.588 1349.07 129.55 1342.09 135.216L1346.98 130.35C1347.68 124.977 1340.63 128.863 1336.78 129.913C1315.94 143.915 1304.17 162.872 1285.56 165.41C1267.68 186.571 1228.86 212.914 1203.31 230.907C1188.1 227.529 1234.77 205.125 1242.3 194.01L1215.91 207.855C1232.16 199.296 1235.81 193.065 1241.36 183.648C1217.06 194.57 1215.67 204.88 1195.71 218.147C1195.39 215.241 1191.23 215.504 1181.23 220.737L1183.24 227.144C1182.72 226.846 1181.23 227.144 1177.89 228.386C1166.19 236.228 1154.74 244.139 1143.8 252.541C1153.59 249.968 1158.28 253.976 1167.83 248.568C1161.54 247.675 1169.01 242.459 1178.9 237.226C1173.55 245.05 1191.12 234.705 1193.55 237.506C1173.55 247.85 1151.09 262.01 1141.02 271.164L1132.62 269.257C1114.46 279.461 1101.37 295.179 1090.95 303.23L1091.27 298.154C1085.9 302.626 1081.25 307.309 1077.38 312.157L1102.86 327.385C1137.2 313.382 1177.51 294.619 1187.41 278.901C1198.24 272.687 1207.13 271.392 1216.19 268.819L1208.28 258.597C1211.75 255.359 1229.59 242.319 1234.21 246.345C1229.14 258.597 1227.79 245.33 1214.35 256.637C1224.77 254.606 1231.19 258.247 1223.45 266.421C1230.74 263.585 1238.52 259.035 1247.75 249.775C1248.15 249.283 1248.41 248.765 1248.52 248.235L1239.07 253.364L1246.02 244.752C1244.52 243.002 1244.32 240.796 1253.93 235.038L1254.31 234.583V234.863L1255.63 234.127C1256.43 233.952 1254.56 237.628 1253.65 240.481C1257.75 239.764 1262.61 236.438 1266.26 233.287C1267.57 231.337 1269.19 229.441 1271.08 227.616V227.336C1271.29 227.231 1271.54 227.214 1271.57 227.336C1283.45 215.907 1304.45 207.733 1314.45 191.017C1326.74 184.768 1342.96 169.26 1344.87 177.014C1327.96 189.267 1307.09 209.238 1306.26 214.401C1305.21 209.675 1292.06 221.088 1300.91 209.045C1277.68 222.838 1285.04 225.008 1273.72 234.303V234.6L1272.16 235.423C1270.02 237.1 1267.7 238.719 1265.22 240.271C1265.95 243.439 1281.81 236.771 1284.56 231.047C1288.31 234.285 1278.79 244.069 1271.92 251.316C1265.04 258.562 1260.11 264.373 1274.24 260.872C1279.68 256.783 1283.87 252.304 1286.67 247.587C1289.52 242.984 1291.54 238.503 1293.62 234.285C1297.78 225.883 1302.37 218.655 1316.12 213.684C1312.65 224.378 1296.78 231.467 1294.52 246.817L1313.65 235.738L1319.97 221.035L1320.39 222.575C1345.84 209.325 1344.24 199.979 1349.59 186.361C1329.63 201.428 1307.67 215.796 1283.86 229.367C1307.44 215.548 1329.39 201.042 1349.59 185.923C1352 179.865 1355.7 173.956 1360.63 168.298C1340.63 176.419 1351.05 154.085 1336.78 160.824C1352.85 145.368 1366.6 135.566 1374.17 142.008C1350.11 172.061 1375.56 153.857 1362.23 175.841C1369.9 169.313 1377.16 162.627 1384.17 155.415C1377.23 162.837 1369.59 169.768 1361.91 176.297C1360.84 178.047 1359.59 179.937 1358.02 182.16C1365.56 180.41 1361.91 197.703 1380.38 183.403C1394.97 161.856 1368.2 183 1385.59 164.009C1387.43 163.589 1389.34 163.169 1389.76 164.709C1395.04 153.577 1401.81 156.921 1408.72 143.846L1407.54 147.346C1425.9 139.855 1417.61 130.298 1434.44 124.854C1425.52 123.997 1434.76 116.698 1440 108.874V200.416C1439.76 200.801 1439.41 201.186 1439.2 201.554L1440 202.377V206.472C1437.53 208.621 1434.68 210.654 1431.49 212.546L1408.72 244.209C1414 242.681 1418.5 240.546 1421.84 237.978C1422.61 232.727 1444.72 217.692 1436.01 214.804C1437.48 214.248 1438.82 213.608 1440 212.896V275.068ZM252.314 743.963L249.641 743.823C249.426 744.3 249.333 744.788 249.363 745.276L252.314 743.963ZM257.106 738.992C254.959 739.376 252.87 739.839 250.856 740.375C251.446 740.813 253.321 741.04 255.509 741.25C255.925 740.463 256.515 739.745 257.106 738.957V738.992ZM362.066 751.035L363.767 751.437C367.656 752.452 370.295 752.96 369.947 752.628C367.965 751.649 365.829 750.753 363.559 749.949L363.177 750.317L362.448 750.755C362.448 750.755 362.24 750.965 362.066 750.965V751.035ZM364.045 755.621C363.911 755.549 363.744 755.494 363.559 755.463L358.386 753.608C358.073 753.853 357.622 754.098 357.309 754.378C356.813 754.731 356.361 755.099 355.955 755.481C358.767 755.446 361.476 755.48 364.045 755.585V755.621ZM372.656 756.128C368.628 754.815 365.434 753.643 363.073 752.855L360.746 751.945L358.976 753.17C360.399 753.8 362.448 754.588 365.26 755.673C367.83 755.726 370.329 755.901 372.656 756.093V756.128ZM385.225 741.583L381.961 741.198C379.287 740.76 376.787 740.323 374.496 739.833C373.524 740.375 372.447 740.918 371.51 741.425C375.116 742.371 378.895 743.139 382.794 743.718C383.002 743.508 383.35 743.263 383.558 743.053C384.079 742.528 384.669 742.038 385.398 741.548L385.225 741.583ZM444.249 693.379C443.069 687.778 441.75 691.278 439.666 697.352C440.951 696.004 442.618 694.692 444.111 693.344L444.249 693.379ZM480.393 656.237C467.929 655.502 466.852 656.394 465.776 657.76C465.392 659.153 464.111 660.444 462.131 661.435C460.335 664.853 458.013 668.194 455.186 671.43L452.617 669.032L453.207 667.701L452.305 668.699C450.291 666.844 448.416 665.058 446.645 663.448L452.2 668.699C451.957 669.014 451.68 669.329 451.402 669.627L451.159 669.452C451.159 669.452 451.159 669.539 451.367 669.592L451.055 669.399L450.395 668.962L450.082 668.769C450.471 669.097 450.9 669.413 451.367 669.714C448.173 673.215 445.048 676.541 442.236 679.726C442.93 683.927 443.59 688.478 444.145 693.309C448.59 689.388 452.86 685.292 456.992 681.057C456.992 680.566 456.992 680.059 456.992 679.586C456.992 677.836 456.992 676.453 456.992 675.228L457.2 673.793V673.425L459.249 675.403C459.744 676.071 460.105 676.763 460.325 677.468C460.325 677.468 460.325 677.468 460.325 677.591C460.469 677.386 460.643 677.187 460.846 676.996L470.325 686.027L470.568 685.905C467.547 683.104 464.249 680.024 460.95 676.908C460.95 676.803 461.158 676.733 461.228 676.646C461.297 676.558 460.638 676.191 460.325 675.928L461.228 676.628C467.096 670.555 472.79 664.271 478.588 657.917C478.588 657.917 478.588 657.917 478.345 657.917H478.657C479.144 657.322 479.769 656.762 480.255 656.202L480.393 656.237ZM855.132 416.354C859.229 414.954 863.222 413.449 867.076 411.873C862.623 413.036 858.548 414.536 854.994 416.319L855.132 416.354ZM604.832 535.674C608.673 535.462 612.3 534.676 615.248 533.416C617.713 526.642 644.899 511.747 641.636 504.343C620.178 511.607 625.907 516.456 618.72 522.494C619.276 525.61 612.887 530.598 604.832 535.674ZM527.544 649.831C529.648 649.355 531.69 648.811 533.655 648.203C534.94 646.785 536.537 645 538.689 642.794C534.252 644.851 530.49 647.249 527.544 649.901V649.831ZM514.038 668.874C515.427 668.612 516.711 668.332 518.1 668.052C518.522 666.897 518.697 665.724 518.621 664.551C517.024 666.004 515.531 667.474 514.038 668.944V668.874ZM515.67 672.917L508.725 674.563C506.017 677.626 503.587 680.671 501.295 683.787C502.788 683.962 504.42 684.155 506.399 684.33C507.024 684.067 507.788 683.787 508.552 683.507C507.545 682.509 512.336 678.133 515.67 672.987V672.917ZM647.33 667.386C644.795 664.621 638.823 665.216 631.532 670.607C626.185 676.033 628.234 680.199 617.644 689.213C607.818 688.898 632.504 679.621 616.88 678.589C612.957 678.291 605.804 684.715 600.145 690.018C594.485 695.322 589.729 699.015 589.729 691.611C594.937 687.585 600.145 683.752 605.839 680.216C600.492 674.738 612.54 666.861 607.853 663.046C616.915 654.102 633.06 653.734 639.9 642.567C640.157 641.03 639.581 639.488 638.233 638.103C624.9 643.845 613.095 649.708 605.839 655.922C608.165 656.797 605.422 660.123 600.11 665.286C598.999 666.424 597.61 667.701 596.117 669.032C595.492 672.882 594.832 676.821 594.416 680.794C586.222 683.594 571.778 696.267 570.979 699.435C568.028 698.63 539.905 714.838 530.356 729.873C537.3 732.726 561.605 701.063 558.862 721.647C565.632 706.996 572.299 709.972 581.743 697.02C574.59 711.022 586.43 705.771 582.472 717.323C587.923 710.427 593.409 703.811 599.173 697.544C601.082 698.122 576.361 727.458 597.957 717.849C600.179 712.948 607.089 706.541 613.095 701.22C619.102 695.899 623.928 691.401 621.394 688.705L623.616 689.913C625.364 688.891 626.954 687.802 628.372 686.658C628.92 686.231 629.363 685.772 629.692 685.292C630.152 684.846 630.546 684.384 630.872 683.91C631.947 682.302 632.601 680.631 632.817 678.938C633.338 675.875 634.935 672.427 647.33 667.456V667.386ZM562.612 684.575C562.022 688.075 561.397 692.329 560.529 698.175C563.827 692.451 567.23 686.797 570.945 681.336C573.167 688.845 580.319 679.761 589.277 671.727C589.798 670.309 589.277 669.732 588.27 669.679C586.013 671.237 583.93 672.742 581.326 674.353C575.95 678.18 569.613 681.639 562.473 684.645L562.612 684.575ZM577.056 661.995C575.979 661.908 573.583 662.748 570.875 663.746C569.07 666.686 567.716 668.997 566.709 671.097C571.669 668.596 575.238 665.481 577.056 662.065V661.995ZM790.17 558.901L788.99 559.951L783.226 565.202C780.24 567.88 777.185 570.366 774.06 572.816C787.184 567.828 789.649 562.997 790.17 558.971V558.901ZM846.036 508.142C836.901 510.079 829.397 513.565 824.821 517.996C825.342 522.214 832.807 518.994 839.196 516.683C841.024 516.007 842.977 515.421 845.029 514.933C842.633 513.112 843.362 510.82 846.036 508.264V508.142ZM933.983 458.31V456.892C907.56 465.293 864.125 476.145 854.126 488.398L856.035 483.987C823.676 492.266 805.343 522.337 784.233 519.606C781.664 515.353 778.053 521.567 773.261 516.106L757.811 530.476L759.512 525.925L752.776 529.723L752.464 530.721C751.357 533.19 751.146 535.74 751.839 538.247C742.221 542.623 746.284 537.004 750.242 531.246L727.118 544.303V542.868L700.209 574.374C702.431 576.737 704.202 576.894 700.522 581.375C697.611 584.332 693.522 586.954 688.508 589.077C679.62 592.577 670.836 592.175 659.413 596.078L690.036 579.31C688.647 574.059 681.981 571.328 663.961 576.492C670.107 573.114 669.655 568.685 661.461 572.239C661.461 573.709 643.545 585.471 654.1 584.648C640.212 593.172 618.685 601.312 596.742 611.971C596.187 612.216 595.562 612.531 595.041 612.811L587.298 618.885L582.889 622.385L579.104 625.606L568.861 633.938C571.431 628.512 564.487 632.817 556.918 636.423C556.619 636.533 556.35 636.663 556.119 636.808C550.233 641.828 545.237 647.099 541.189 652.561C551.814 636.563 525.634 658.687 530.773 651.616C529.309 652.375 527.743 653.083 526.086 653.734C525.272 654.08 524.401 654.39 523.482 654.661C521.458 659.042 520.02 663.486 519.176 667.964L523.239 667.106C533.797 664.789 543.486 661.574 551.883 657.602C546.264 662.014 538.943 665.811 530.356 668.769L523.655 670.992L517.336 672.637C515.589 676.275 513.014 679.799 509.663 683.139C513.135 681.809 516.815 680.374 520.461 678.763L528.134 675.263C530.282 673.889 532.602 672.585 535.078 671.36C544.036 670.362 542.543 671.902 537.856 674.055L533.794 675.63L533.273 675.823L532.96 675.946L532.301 676.068L531.676 676.348L530.391 676.908C528.204 677.696 524.836 678.659 523.864 679.061C524.858 679.578 526.19 679.895 527.613 679.954C529.523 680.094 532.509 679.954 534.002 680.146C539.44 679.838 544.729 679.05 549.626 677.818C552.831 674.019 556.737 670.38 561.292 666.949C558.966 667.159 559.07 665.584 564.938 659.948C568.55 656.808 571.819 653.571 574.729 650.251V647.87C567.977 652.373 561.684 657.047 555.876 661.873C561.955 655.855 568.689 650.012 576.049 644.37C578.479 643.179 579.729 643.004 580.493 643.319C582.75 640.361 584.763 637.648 586.638 635.25C590.151 630.094 594.859 625.165 600.666 620.565C599.671 621.634 599.23 622.813 599.381 623.991C599.533 625.169 600.273 626.309 601.534 627.304C602.853 626.726 604.242 626.184 605.63 625.554C611.915 621.073 612.297 614.772 626.741 611.166C626.847 611.035 626.987 610.911 627.157 610.798C627.142 610.897 627.142 610.997 627.157 611.096L628.616 610.728C627.782 611.516 627.018 612.304 626.15 613.074C625.317 614.247 624.222 615.368 622.887 616.417C622.921 616.307 622.921 616.194 622.887 616.084C622.505 616.469 622.158 616.889 621.706 617.274C622.112 617.001 622.483 616.714 622.817 616.417C622.47 618.587 626.289 618.43 631.289 617.187C637.324 614.672 643.642 612.334 650.212 610.186C657.156 607.543 663.301 605.162 684.064 592.577V593.855L685.279 593.242L688.439 589.042L686.634 592.752V592.857C696.455 588.433 705.732 583.71 714.41 578.715C725.081 572.681 733.587 565.758 739.548 558.253L744.617 563.732C748.957 552.11 752.082 550.534 758.054 547.979C761.713 546.594 764.943 544.943 767.637 543.078C772.089 539.874 775.739 536.406 778.504 532.751L775.935 536.252C785.032 528.725 786.351 530.196 787.358 533.136C793.747 529.285 800.17 525.382 806.558 521.497L809.336 517.296C813.884 510.592 819.127 504.046 835.724 500.265C837.529 503.643 846.14 503.626 849.438 505.726C858.084 499.495 874.263 492.056 882.249 484.722C887.874 484.565 891.207 484.495 890.547 485.51C902.36 480.869 914.682 476.568 927.455 472.627C928.438 471.993 929.354 471.333 930.198 470.649C920.754 470.912 920.754 466.501 933.983 458.31ZM1063.35 441.139C1042.94 453.225 1019.61 463.979 993.91 473.152C993.633 473.468 993.32 473.8 992.938 474.15C1001.97 474.763 1016.51 468.549 1029.19 467.341C1029.19 466.046 1054.78 449.015 1063.46 441.156L1063.35 441.139ZM1013.22 462.388L1006.9 461.53L1000.3 466.869C1004.57 465.556 1008.94 464.051 1013.32 462.388H1013.22ZM1091.54 423.041C1091.46 422.917 1091.32 422.805 1091.14 422.711C1090.96 422.617 1090.74 422.544 1090.5 422.498L1086.34 425.648C1088.45 424.703 1090.23 423.828 1091.65 423.041H1091.54ZM1093.49 395.14L1087.17 397.661C1088.48 396.859 1089.24 395.863 1089.32 394.825C1062.62 415.18 1030.86 433.727 994.813 450.013C1004.11 446.352 1012.94 442.394 1021.24 438.163C1012.21 443.659 1023.56 443.414 1027.35 444.324C1003.04 452.323 996.098 455.369 991.862 459.202L991.549 459.465C1003.32 457.715 1016.44 454.932 1024.71 453.321L1020.47 459.465C1023.94 458.012 1027.17 456.454 1030.37 454.826C1030.37 454.144 1032.28 453.356 1034.64 452.569C1039.96 449.652 1044.74 446.494 1048.91 443.134L1036.13 445.882C1041.62 444.317 1046.86 442.531 1051.79 440.544C1052.89 439.462 1053.86 438.345 1054.67 437.201C1048.7 439.511 1042.69 441.664 1036.55 443.642C1040.4 438.863 1044.01 433.945 1047.48 428.852C1051.89 427.259 1053.39 428.081 1054.01 429.254C1054.57 424.861 1063.91 418.42 1075.26 409.843C1081.27 405.52 1087.55 400.496 1093.7 395.14H1093.49ZM1246.68 351.189C1224.59 360.624 1231.75 371.861 1212.93 378.932C1220.91 369.667 1228.64 360.221 1236.12 350.594C1229.83 352.028 1224.42 354.289 1220.46 357.141C1226.45 353.036 1230.81 348.389 1233.31 343.453L1237.61 336.067C1219.18 346.569 1201.82 354.83 1196.16 353.57L1195.85 349.177C1186.3 349.772 1177.27 357.386 1174.18 362.059C1156.82 370.618 1142.93 382.66 1135.15 380.315L1139.32 374.521L1127.48 380.263C1126.86 383.136 1125.7 385.972 1124.01 388.734C1120.92 392.812 1117.62 396.698 1114.18 400.461C1122.52 398.028 1130.08 395.998 1135.57 394.528L1144.49 400.146C1163.97 395.473 1148.52 387.246 1172.27 382.223C1148.8 394.475 1183.35 387.719 1164.15 396.873C1172.79 396.611 1171.09 403.874 1190.19 394.598C1198.07 378.355 1216.05 390.537 1223.62 375.344C1236.33 372.999 1218 386.056 1238.83 377.199C1256.54 360.904 1251.75 358.138 1246.78 351.189H1246.68ZM1439.9 335.436C1352.82 380.945 1251.57 420.905 1186.68 476.601C1191.12 477.651 1197.79 479.209 1202.23 480.101C1104.46 556.871 955.197 578.575 852.216 645.7C797.948 681.021 735.798 699.365 682.919 726.092C661.322 736.997 646.462 749.844 622.47 757.388C616.284 759.362 609.833 761.116 603.165 762.639H694.55C695.383 762.149 696.251 761.677 697.119 761.239C771.421 721.209 850.723 685.8 927.421 647.73C1095.61 564.31 1283.03 506.146 1439.9 411.103V335.436ZM340.678 693.851L341.581 694.587L342.831 695.584L340.643 693.834L340.678 693.851ZM471.887 684.662C471.836 684.599 471.766 684.54 471.679 684.487L471.887 684.662ZM465.29 679.691L465.915 680.164L461.436 676.663V676.751L465.29 679.691ZM465.915 680.129L467.304 681.179L467.616 681.459L466.818 680.846C466.575 680.636 466.297 680.444 466.054 680.251C465.811 680.059 465.846 680.129 465.846 680.094L465.915 680.129ZM470.498 683.629L470.741 683.787L470.95 683.962L470.498 683.629ZM350.99 702.218L351.198 702.516V702.393V702.271V702.375L350.99 702.218ZM357.969 709.674C357.761 709.569 357.587 709.447 357.379 709.324L357.587 709.429C357.744 709.557 357.93 709.674 358.142 709.779L357.899 709.622V709.639L357.969 709.674ZM437.652 654.889C438.625 655.817 441.125 658.057 445.117 661.89L444.805 661.61C441.333 658.372 438.729 655.957 437.652 654.907V654.889ZM446.715 663.413C448.069 664.743 447.617 664.341 446.645 663.448L446.715 663.413ZM447.062 664.831L446.784 664.376C447.235 665.059 447.652 665.759 448.138 666.441L447.062 664.831ZM420.709 740.743C420.709 740.743 420.535 740.725 420.639 740.708L420.709 740.743ZM350.678 724.15L351.372 727.16V726.6C351.198 725.76 351.025 724.85 350.816 724.15H350.678ZM350.678 724.15L350.99 725.357V725.76V725.375V725.55V725.41V725.252V724.797V724.15V725.042V725.252L350.678 724.15ZM352.795 733.951V734.617C352.763 734.395 352.763 734.173 352.795 733.951L352.587 732.971V733.689C352.683 733.783 352.799 733.871 352.934 733.951H352.795ZM389.912 730.836C390.224 731.063 390.571 731.256 390.884 731.501L391.613 731.974L389.912 730.836ZM351.372 727.335L351.546 727.86V727.423C351.546 727.195 351.546 726.968 351.372 726.758V727.335ZM353.663 738.45C353.694 738.339 353.694 738.228 353.663 738.117V738.45ZM374.774 721.139C374.253 720.754 373.663 720.369 373.142 720.019L374.565 721.016C374.565 721.016 374.739 721.017 374.774 721.139ZM352.934 734.704L354.427 742.791L355.469 748.042C355.482 747.954 355.482 747.866 355.469 747.779V748.164V747.937V747.289C355.469 747.114 355.469 746.886 355.469 746.694C355.503 746.408 355.503 746.122 355.469 745.836L354.879 742.826L354.15 738.817L353.872 737.417L353.351 734.739L353.004 733.076L353.247 734.161V734.704L352.865 733.076L353.177 734.827L353.073 734.617L352.934 734.704ZM421.473 710.62V710.707C421.451 710.667 421.451 710.625 421.473 710.585V710.62ZM371.059 718.566L374.774 721.139C373.732 720.369 372.517 719.599 371.302 718.846L371.059 718.566ZM353.976 706.961C353.9 706.893 353.83 706.823 353.768 706.751L353.455 706.261V706.436L353.698 706.821L353.976 706.961ZM353.039 705.666C353.147 705.864 353.286 706.057 353.455 706.244V705.946C353.455 705.824 353.247 705.736 353.177 705.631C353.108 705.526 353.177 705.456 353.177 705.579L353.039 705.666ZM364.635 714.085C364.323 713.84 363.941 713.595 363.628 713.368C363.628 713.368 363.628 713.368 363.42 713.228C363.492 713.309 363.585 713.386 363.698 713.455V713.56L363.975 713.735C364.112 713.871 364.275 714 364.462 714.12L364.774 714.365L364.635 714.085ZM362.517 712.527C362.618 712.588 362.711 712.653 362.795 712.72L363.003 712.877C363.003 712.877 362.76 712.562 362.656 712.457L362.517 712.527ZM357.934 709.814L357.274 709.394C357.139 709.322 357.011 709.246 356.893 709.167H357.066L357.483 709.447L357.656 709.552V709.464C357.748 709.512 357.829 709.565 357.899 709.622L357.934 709.814ZM354.289 707.259C353.941 706.821 353.559 706.384 353.247 705.929L353.455 706.244C353.663 706.576 353.941 706.874 354.184 707.189C354.221 707.175 354.267 707.169 354.313 707.172C354.359 707.176 354.4 707.188 354.427 707.206L354.289 707.259ZM351.337 703.076V702.971V702.866V702.761V703.076ZM351.546 702.778L350.678 701.955C351.129 702.288 351.511 702.603 351.58 702.673L351.546 702.778ZM344.393 697.072C343.976 696.74 343.56 696.337 343.004 695.969L349.705 701.343C350.075 701.562 350.39 701.803 350.643 702.06L344.393 697.072ZM343.004 695.969L342.102 695.217L343.213 696.092L343.004 695.969ZM343.004 695.864L342.275 695.234L343.108 695.934L343.004 695.864ZM345.99 705.999C345.99 705.999 345.99 706.156 345.99 706.174V705.999ZM345.99 705.999C346.511 707.749 347.101 709.499 347.761 711.827L348.56 714.663L348.768 715.503C348.737 715.393 348.737 715.281 348.768 715.17L349.219 716.921V716.606C349.114 716.34 349.044 716.071 349.011 715.801L348.143 712.773L347.935 712.055C348.009 712.217 348.067 712.38 348.108 712.545C348.351 713.385 348.629 714.418 348.907 715.468C348.907 715.24 348.907 714.995 348.907 714.785C348.943 714.646 348.943 714.505 348.907 714.365C348.664 713.385 348.421 712.44 348.143 711.6C348.143 711.39 348.143 711.232 348.143 711.04V710.672V711.005C347.969 710.62 347.865 710.234 347.761 709.867V709.779C347.761 710.339 348.073 710.899 348.247 711.53C348.073 710.882 347.865 710.269 347.692 709.657L346.719 706.594C346.129 706.209 346.06 706.069 346.025 705.894L345.99 705.999ZM362.205 712.282L362.413 712.422C362.413 712.422 362.344 712.195 362.239 712.177L362.205 712.282ZM340.018 693.379V693.484C340.018 693.484 340.018 693.484 340.018 693.571C340.331 694.044 340.991 694.954 341.72 696.372C341.72 696.599 341.963 696.845 342.102 697.055C342.146 697.186 342.216 697.315 342.31 697.44C342.31 697.44 342.31 697.44 342.31 697.334V697.44C342.518 697.842 342.727 698.315 342.935 698.787C343.032 699.088 343.16 699.386 343.317 699.68C343.317 699.89 343.49 700.118 343.595 700.345C343.699 700.573 343.803 700.923 343.942 701.22C343.955 701.121 343.955 701.022 343.942 700.923L344.115 701.308C344.13 701.436 344.13 701.565 344.115 701.693L344.428 702.533C344.428 702.201 344.219 701.92 344.115 701.605C344.497 702.568 344.845 703.636 345.296 704.826C345.018 704.038 344.74 703.233 344.428 702.533C344.428 702.778 344.636 703.023 344.74 703.321C344.845 703.618 345.122 704.301 345.296 704.826C345.28 704.89 345.28 704.954 345.296 705.018C345.26 705.129 345.26 705.241 345.296 705.351C345.296 705.474 345.296 705.614 345.296 705.736C345.296 705.561 345.296 705.386 345.122 705.228C345.152 705.101 345.152 704.971 345.122 704.843C345.156 704.763 345.156 704.679 345.122 704.598C345.136 704.493 345.136 704.388 345.122 704.283C345.163 704.431 345.221 704.577 345.296 704.721C345.296 704.441 345.053 704.126 344.949 703.846C344.919 703.73 344.919 703.612 344.949 703.496C344.775 703.076 344.671 702.691 344.532 702.323C344.393 701.956 344.358 701.85 344.254 701.64C344.16 701.444 344.09 701.246 344.046 701.045L343.733 700.328C343.733 700.328 343.733 700.328 343.733 700.223C343.716 700.159 343.716 700.094 343.733 700.03C343.733 699.802 343.525 699.592 343.386 699.382V699.26C343.303 699.134 343.234 699.005 343.178 698.875C342.865 698.157 342.553 697.527 342.206 696.967C342.186 696.933 342.186 696.896 342.206 696.862C342.206 696.757 342.206 696.634 342.206 696.547C341.997 696.3 341.846 696.041 341.754 695.777C341.714 695.645 341.644 695.516 341.546 695.392C341.546 695.269 341.546 695.182 341.372 695.077C341.199 694.972 341.372 695.077 341.372 694.954C341.372 694.954 341.372 694.867 341.372 694.814C341.372 694.762 341.372 695.007 341.581 695.112L341.268 694.604C341.179 694.442 341.063 694.284 340.921 694.131C340.953 694.177 340.953 694.226 340.921 694.271L340.574 693.799C340.574 693.799 340.574 693.694 340.574 693.676C340.474 693.559 340.404 693.435 340.366 693.309C340.349 693.251 340.349 693.192 340.366 693.134V693.239C340.366 693.239 340.192 693.116 340.192 693.064L340.018 692.941V693.379ZM214.156 741.198C214.156 741.338 214.156 741.495 213.948 741.653C213.74 741.81 213.948 741.653 214.122 741.653L214.156 741.198ZM212.073 744.331C212.566 744.156 213.089 744.004 213.636 743.876L212.42 743.998C212.316 743.963 212.212 744.103 212.108 744.226L212.073 744.331ZM484.56 735.789C488.414 736.349 495.983 726.793 500.913 722.679C494.525 727.125 483.831 726.338 484.595 735.684L484.56 735.789ZM456.159 759.699C459.631 756.076 462.929 752.365 466.019 748.479C461.784 752.509 457.148 756.429 452.131 760.224L456.159 759.699ZM1206.78 435.905L1211.09 430.007L1191.33 440.684L1206.78 435.905ZM1191.12 424.896V422.025L1184.7 429.359L1191.12 424.896ZM247.453 658.932C247.859 658.945 248.242 659.032 248.53 659.177C249.389 659.297 250.153 659.547 250.717 659.895C251.516 660.315 252.314 660.84 253.148 661.295C255.821 658.495 256.897 655.852 251.689 654.451C250.218 655.465 248.994 656.564 248.044 657.725C247.954 657.874 247.885 658.026 247.835 658.18C247.797 658.44 247.667 658.695 247.453 658.932ZM794.337 609.03L797.809 599.964L790.309 612.216L794.337 609.03ZM948.322 520.534C960.648 514.565 956.898 513.533 952.732 512.64C956.412 515.248 929.018 523.264 948.322 520.534ZM432.479 550.534C428.961 552.035 424.955 553.22 420.639 554.035C425.403 553.445 429.91 552.419 433.937 551.007C433.422 550.873 432.934 550.715 432.479 550.534ZM435.361 589.847L452.2 589.637C457.422 589.499 462.473 588.653 466.818 587.186C457.304 585.856 441.819 589.077 435.361 589.934V589.847ZM351.58 624.223C351.893 620.145 352.309 615.892 353.212 611.516C351.407 618.517 350.712 625.273 350.053 631.505L351.58 624.223ZM530.704 509.279L544.592 500.633H542.3L528.412 509.384L530.704 509.279ZM1281.74 211.986C1287.02 208.797 1290.84 205.062 1292.92 201.046C1288.34 198.876 1284.66 207.978 1281.74 211.986ZM455.499 672.2L455.742 672.357C455.494 672.219 455.262 672.072 455.048 671.92L454.839 671.797C453.173 673.705 451.367 675.63 449.006 677.713L452.166 670.134C452.617 670.45 453.069 670.73 453.589 671.045C453.277 670.835 452.999 670.642 452.721 670.485L452.443 670.344L452.062 670.064L452.478 669.014C453.242 669.732 454.075 670.537 454.943 671.395C454.89 671.514 454.82 671.631 454.735 671.745C454.89 671.832 455.03 671.925 455.152 672.025C455.249 672.112 455.379 672.189 455.534 672.252C455.534 672.252 455.534 672.252 455.36 672.252L455.152 672.095L455.499 672.2ZM1205.95 369.078C1212.27 366.015 1214.49 361.499 1220.05 357.421C1212.88 362.109 1203.58 365.856 1192.93 368.343C1197.23 368.098 1203.66 367.73 1205.95 369.078ZM1183.48 227.896L1183.24 227.179C1183.38 227.283 1183.47 227.401 1183.51 227.524C1183.56 227.648 1183.55 227.775 1183.48 227.896ZM1395.45 146.891L1396.5 145.141L1396.91 144.913L1395.45 146.891Z" fill="#C8C8C8"/>
</svg>
