<svg id="cisco" xmlns="http://www.w3.org/2000/svg" width="179.545" height="101.512" viewBox="0 0 179.545 101.512">
  <g id="Group_2" data-name="Group 2" transform="translate(0 62.1)">
    <path id="Path_1" data-name="Path 1" d="M129.527,328.358h-8.693a.455.455,0,0,1-.455-.455V290.765a.455.455,0,0,1,.455-.455h8.693a.455.455,0,0,1,.455.455V327.9A.455.455,0,0,1,129.527,328.358Z" transform="translate(-78.165 -289.622)" fill="#00bceb"/>
    <path id="Path_2" data-name="Path 2" d="M314.784,299.21a.453.453,0,0,1-.652.409,16.981,16.981,0,0,0-7.427-1.694c-6.2,0-10.511,4.323-10.511,10.151,0,5.654,4.119,10.155,10.511,10.155a17.27,17.27,0,0,0,7.429-1.681.454.454,0,0,1,.65.41v9.122a.454.454,0,0,1-.329.437,30.1,30.1,0,0,1-8.418,1.262c-10.8,0-20.281-7.445-20.281-19.705,0-11.364,8.577-19.7,20.281-19.7a29.024,29.024,0,0,1,8.426,1.268.452.452,0,0,1,.322.435Z" transform="translate(-185.549 -288.37)" fill="#00bceb"/>
    <path id="Path_3" data-name="Path 3" d="M29.015,299.208a.453.453,0,0,1-.653.409,16.914,16.914,0,0,0-7.413-1.691c-6.219,0-10.523,4.323-10.523,10.151,0,5.654,4.125,10.155,10.523,10.155a17.212,17.212,0,0,0,7.415-1.679.454.454,0,0,1,.651.41v9.12a.454.454,0,0,1-.328.437,29.957,29.957,0,0,1-8.427,1.261C9.467,327.782,0,320.337,0,308.078c0-11.364,8.576-19.7,20.261-19.7a28.974,28.974,0,0,1,8.434,1.267.453.453,0,0,1,.321.435v9.124Z" transform="translate(0 -288.37)" fill="#00bceb"/>
    <path id="Path_4" data-name="Path 4" d="M437.566,308.078c0,10.884-8.4,19.705-20.1,19.705s-20.095-8.821-20.095-19.705c0-10.868,8.393-19.7,20.095-19.7s20.1,8.827,20.1,19.7m-20.1-10.007a10.012,10.012,0,1,0,9.932,10.007,9.834,9.834,0,0,0-9.932-10.007" transform="translate(-258.021 -288.37)" fill="#00bceb"/>
    <path id="Path_5" data-name="Path 5" d="M208.019,297.093a.454.454,0,0,1-.565.441,31.625,31.625,0,0,0-6.942-1.011c-3.848,0-5.938,1.289-5.938,3.12,0,2.317,2.82,3.122,4.4,3.622l2.647.844c6.233,1.981,9.071,6.249,9.071,10.884,0,9.557-8.4,12.768-15.752,12.768a57.813,57.813,0,0,1-9.995-.966.454.454,0,0,1-.369-.446v-7.791a.454.454,0,0,1,.57-.44,34.284,34.284,0,0,0,8.5,1.265c4.776,0,6.973-1.4,6.973-3.554,0-1.929-1.9-3.042-4.281-3.791-.583-.194-1.456-.467-2.051-.661-5.349-1.692-9.805-4.834-9.805-11.131,0-7.117,5.326-11.9,14.177-11.9a41.063,41.063,0,0,1,9.015,1.126.452.452,0,0,1,.345.441v7.177Z" transform="translate(-119.789 -288.349)" fill="#00bceb"/>
  </g>
  <g id="Group_3" data-name="Group 3" transform="translate(0 62.111)">
    <path id="Path_6" data-name="Path 6" d="M128.75,327.9V290.765a.455.455,0,0,1,.455-.455h-8.37a.455.455,0,0,0-.454.455V327.9a.455.455,0,0,0,.454.455h8.37A.455.455,0,0,1,128.75,327.9Z" transform="translate(-78.167 -289.634)" fill="#00bceb"/>
    <path id="Path_7" data-name="Path 7" d="M361.333,317.3a.453.453,0,0,0,.652-.409v-1.278a11.785,11.785,0,0,0-3.537.6A16.354,16.354,0,0,1,361.333,317.3Z" transform="translate(-232.75 -306.065)" fill="#00bceb"/>
    <path id="Path_8" data-name="Path 8" d="M294.126,308.077a19.135,19.135,0,0,1,16.288-19.354,28.533,28.533,0,0,0-4.377-.342c-11.7,0-20.281,8.331-20.281,19.7,0,12.26,9.479,19.705,20.281,19.705a28.16,28.16,0,0,0,4.373-.349C301.37,325.832,294.126,318.794,294.126,308.077Z" transform="translate(-185.549 -288.381)" fill="#00bceb"/>
    <path id="Path_9" data-name="Path 9" d="M361.967,369.036a.454.454,0,0,0-.65-.41,16.688,16.688,0,0,1-2.9,1.074,11.816,11.816,0,0,0,3.546.6Z" transform="translate(-232.732 -340.457)" fill="#00bceb"/>
    <path id="Path_10" data-name="Path 10" d="M8.37,308.077a19.135,19.135,0,0,1,16.276-19.354,28.654,28.654,0,0,0-4.385-.342c-11.684,0-20.26,8.331-20.26,19.7,0,12.26,9.467,19.705,20.261,19.705a28.293,28.293,0,0,0,4.382-.348C15.608,325.835,8.37,318.8,8.37,308.077Z" transform="translate(0 -288.381)" fill="#00bceb"/>
    <path id="Path_11" data-name="Path 11" d="M405.736,308.077a19.381,19.381,0,0,1,15.91-19.3,22.108,22.108,0,0,0-4.185-.394c-11.7,0-20.095,8.827-20.095,19.7,0,10.884,8.393,19.705,20.1,19.705a22.1,22.1,0,0,0,4.185-.394A19.379,19.379,0,0,1,405.736,308.077Z" transform="translate(-258.02 -288.381)" fill="#00bceb"/>
    <path id="Path_12" data-name="Path 12" d="M245.922,312.717a.454.454,0,0,0,.565-.441v-.545a9.893,9.893,0,0,0-2.762.5C244.648,312.408,245.429,312.592,245.922,312.717Z" transform="translate(-158.257 -303.543)" fill="#00bceb"/>
  </g>
  <g id="Group_4" data-name="Group 4">
    <path id="Path_13" data-name="Path 13" d="M7.817,187.749a3.908,3.908,0,0,0-7.817,0v8.188a3.908,3.908,0,0,0,7.817,0Z" transform="translate(0 -158.397)" fill="#777"/>
    <path id="Path_14" data-name="Path 14" d="M69.04,157.089a3.908,3.908,0,0,0-7.817,0v18.938a3.908,3.908,0,0,0,7.817,0Z" transform="translate(-39.754 -138.488)" fill="#777"/>
    <path id="Path_15" data-name="Path 15" d="M130.261,115.155a3.909,3.909,0,0,0-7.818,0v41.429a3.909,3.909,0,0,0,7.818,0Z" transform="translate(-79.505 -111.261)" fill="#777"/>
  </g>
  <g id="Group_5" data-name="Group 5">
    <path id="Path_16" data-name="Path 16" d="M4.4,195.936v-8.188a3.89,3.89,0,0,1,1.712-3.219A3.909,3.909,0,0,0,0,187.748v8.188a3.909,3.909,0,0,0,6.107,3.23A3.9,3.9,0,0,1,4.4,195.936Z" transform="translate(0 -158.396)" fill="#646566"/>
    <path id="Path_17" data-name="Path 17" d="M65.618,176.028V157.09a3.892,3.892,0,0,1,1.711-3.22,3.908,3.908,0,0,0-6.107,3.22v18.938a3.908,3.908,0,0,0,6.107,3.23A3.9,3.9,0,0,1,65.618,176.028Z" transform="translate(-39.753 -138.489)" fill="#646566"/>
    <path id="Path_18" data-name="Path 18" d="M126.838,156.584V115.155a3.888,3.888,0,0,1,1.712-3.218,3.909,3.909,0,0,0-6.107,3.218v41.429a3.909,3.909,0,0,0,6.107,3.23A3.9,3.9,0,0,1,126.838,156.584Z" transform="translate(-79.505 -111.261)" fill="#646566"/>
  </g>
  <path id="Path_19" data-name="Path 19" d="M252.673,187.749a3.908,3.908,0,0,0-7.817,0v8.188a3.908,3.908,0,0,0,7.817,0Z" transform="translate(-158.991 -158.397)" fill="#777"/>
  <path id="Path_20" data-name="Path 20" d="M249.251,195.936v-8.188a3.89,3.89,0,0,1,1.712-3.219,3.909,3.909,0,0,0-6.107,3.219v8.188a3.909,3.909,0,0,0,6.107,3.23A3.9,3.9,0,0,1,249.251,195.936Z" transform="translate(-158.991 -158.396)" fill="#646566"/>
  <path id="Path_21" data-name="Path 21" d="M191.469,157.089a3.908,3.908,0,0,0-7.817,0v18.938a3.908,3.908,0,0,0,7.817,0Z" transform="translate(-119.25 -138.488)" fill="#777"/>
  <path id="Path_22" data-name="Path 22" d="M188.047,176.028V157.09a3.892,3.892,0,0,1,1.711-3.22,3.908,3.908,0,0,0-6.107,3.22v18.938a3.908,3.908,0,0,0,6.107,3.23A3.9,3.9,0,0,1,188.047,176.028Z" transform="translate(-119.249 -138.489)" fill="#646566"/>
  <g id="Group_6" data-name="Group 6" transform="translate(107.327)">
    <path id="Path_23" data-name="Path 23" d="M313.877,157.089a3.908,3.908,0,0,0-7.817,0v18.938a3.908,3.908,0,0,0,7.817,0Z" transform="translate(-306.06 -138.488)" fill="#777"/>
    <path id="Path_24" data-name="Path 24" d="M375.1,115.155a3.909,3.909,0,0,0-7.818,0v41.429a3.909,3.909,0,0,0,7.818,0Z" transform="translate(-345.812 -111.261)" fill="#777"/>
  </g>
  <g id="Group_7" data-name="Group 7" transform="translate(107.327)">
    <path id="Path_25" data-name="Path 25" d="M310.455,176.028V157.09a3.892,3.892,0,0,1,1.711-3.22,3.908,3.908,0,0,0-6.107,3.22v18.938a3.908,3.908,0,0,0,6.107,3.23A3.9,3.9,0,0,1,310.455,176.028Z" transform="translate(-306.059 -138.489)" fill="#646566"/>
    <path id="Path_26" data-name="Path 26" d="M371.675,156.584V115.155a3.888,3.888,0,0,1,1.712-3.218,3.909,3.909,0,0,0-6.107,3.218v41.429a3.909,3.909,0,0,0,6.107,3.23A3.9,3.9,0,0,1,371.675,156.584Z" transform="translate(-345.811 -111.261)" fill="#646566"/>
  </g>
  <path id="Path_27" data-name="Path 27" d="M497.509,187.749a3.908,3.908,0,0,0-7.817,0v8.188a3.908,3.908,0,0,0,7.817,0Z" transform="translate(-317.97 -158.397)" fill="#777"/>
  <path id="Path_28" data-name="Path 28" d="M494.088,195.936v-8.188a3.89,3.89,0,0,1,1.712-3.219,3.909,3.909,0,0,0-6.107,3.219v8.188a3.908,3.908,0,0,0,6.107,3.23A3.9,3.9,0,0,1,494.088,195.936Z" transform="translate(-317.97 -158.396)" fill="#646566"/>
  <path id="Path_29" data-name="Path 29" d="M436.3,157.089a3.908,3.908,0,0,0-7.817,0v18.938a3.908,3.908,0,0,0,7.817,0Z" transform="translate(-278.229 -138.488)" fill="#777"/>
  <path id="Path_30" data-name="Path 30" d="M432.884,176.028V157.09a3.892,3.892,0,0,1,1.711-3.22,3.908,3.908,0,0,0-6.107,3.22v18.938a3.908,3.908,0,0,0,6.107,3.23A3.9,3.9,0,0,1,432.884,176.028Z" transform="translate(-278.229 -138.489)" fill="#646566"/>
  <g id="Group_8" data-name="Group 8" transform="translate(64.692 62.099)">
    <path id="Path_31" data-name="Path 31" d="M198.01,312.673c-10.321-9.762-3.284-18.929-3.284-18.929h0a12.592,12.592,0,0,1,8.541-5.077,36,36,0,0,0-4.611-.32c-8.851,0-14.177,4.78-14.177,11.9,0,6.3,4.456,9.44,9.805,11.131.6.194,1.468.467,2.051.661A13.744,13.744,0,0,1,198.01,312.673Z" transform="translate(-184.48 -288.347)" fill="#00bceb"/>
    <path id="Path_32" data-name="Path 32" d="M193.127,374.463a35.4,35.4,0,0,1-7.8-1.254.454.454,0,0,0-.57.44v7.791a.454.454,0,0,0,.369.446,59.556,59.556,0,0,0,8.166.927A21.728,21.728,0,0,1,193.127,374.463Z" transform="translate(-184.66 -343.44)" fill="#00bceb"/>
  </g>
</svg>
