<svg xmlns="http://www.w3.org/2000/svg" xmlns:xlink="http://www.w3.org/1999/xlink" width="49.775" height="57.487" viewBox="0 0 49.775 57.487">
  <defs>
    <linearGradient id="linear-gradient" x1="0.5" x2="0.5" y2="1" gradientUnits="objectBoundingBox">
      <stop offset="0" stop-color="#cf67ee"/>
      <stop offset="1" stop-color="#713cf6"/>
    </linearGradient>
  </defs>
  <g id="Group_6127" data-name="Group 6127" transform="translate(-854.888 -713.258)">
    <path id="Polygon_6" data-name="Polygon 6" d="M40.806,0A4,4,0,0,1,44.27,2L56.332,22.887a4,4,0,0,1,0,4L44.27,47.775a4,4,0,0,1-3.464,2H16.681a4,4,0,0,1-3.464-2L1.155,26.888a4,4,0,0,1,0-4L13.217,2a4,4,0,0,1,3.464-2Z" transform="translate(904.663 713.258) rotate(90)" fill="url(#linear-gradient)"/>
    <path id="Telegram" d="M28.1,29.1v0l.027-.068L32.845,5.27V5.192a1.611,1.611,0,0,0-.695-1.419,1.974,1.974,0,0,0-1.231-.265A4.156,4.156,0,0,0,30,3.7c-.119.038-.219.075-.291.1l-.086.034-.021.009L3.32,14.152l-.007,0-.056.021c-.045.018-.107.043-.179.076a3.569,3.569,0,0,0-.537.3A1.773,1.773,0,0,0,1.669,16.2a2.083,2.083,0,0,0,.92,1.412,3.241,3.241,0,0,0,.476.278c.064.03.118.053.158.07l.05.02.017.006.011,0,4.6,1.548a2.826,2.826,0,0,0,.09.873l2.3,8.736a2.358,2.358,0,0,0,4.455.308l3.6-3.845,6.175,4.734.088.038a2.905,2.905,0,0,0,1.565.257,2.323,2.323,0,0,0,1.145-.495,2.738,2.738,0,0,0,.595-.67,2.68,2.68,0,0,0,.139-.247c.016-.032.029-.059.038-.081l.012-.027,0-.01Zm-17.836-9.3a.471.471,0,0,1,.2-.518l15.595-9.9s.917-.557.884,0c0,0,.164.1-.328.557-.466.435-11.115,10.716-12.192,11.757a.436.436,0,0,0-.121.212L12.57,28.543Z" transform="translate(861.524 724.801)" fill="none" stroke="#fff" stroke-width="1.5" fill-rule="evenodd"/>
  </g>
</svg>
