<svg xmlns="http://www.w3.org/2000/svg" xmlns:xlink="http://www.w3.org/1999/xlink" width="49.775" height="57.487" viewBox="0 0 49.775 57.487">
  <defs>
    <linearGradient id="linear-gradient" x1="0.5" x2="0.5" y2="1" gradientUnits="objectBoundingBox">
      <stop offset="0" stop-color="#cf67ee"/>
      <stop offset="1" stop-color="#713cf6"/>
    </linearGradient>
  </defs>
  <g id="Group_6124" data-name="Group 6124" transform="translate(-862.725 -704)">
    <path id="Polygon_8" data-name="Polygon 8" d="M40.806,0A4,4,0,0,1,44.27,2L56.332,22.887a4,4,0,0,1,0,4L44.27,47.775a4,4,0,0,1-3.464,2H16.681a4,4,0,0,1-3.464-2L1.155,26.888a4,4,0,0,1,0-4L13.217,2a4,4,0,0,1,3.464-2Z" transform="translate(912.5 704) rotate(90)" fill="url(#linear-gradient)"/>
    <g id="Iconly_Light_Location" data-name="Iconly/Light/Location" transform="translate(866.956 711.98)">
      <g id="Location" transform="translate(7.769 5.02)">
        <path id="Path_33958" d="M0,13.109a13.154,13.154,0,0,1,26.307.089v.149c-.089,4.722-2.726,9.087-5.959,12.5A34.575,34.575,0,0,1,14.2,30.91a1.594,1.594,0,0,1-2.085,0,33.949,33.949,0,0,1-8.655-8.1A16.833,16.833,0,0,1,0,13.154Z" fill="none" stroke="#fff" stroke-linecap="round" stroke-linejoin="round" stroke-miterlimit="10" stroke-width="2.5"/>
        <circle id="Ellipse_740" cx="4.216" cy="4.216" r="4.216" transform="translate(8.938 9.146)" fill="none" stroke="#fff" stroke-linecap="round" stroke-linejoin="round" stroke-miterlimit="10" stroke-width="2.5"/>
      </g>
    </g>
  </g>
</svg>
