<svg xmlns="http://www.w3.org/2000/svg" xmlns:xlink="http://www.w3.org/1999/xlink" width="49.775" height="57.487" viewBox="0 0 49.775 57.487">
  <defs>
    <linearGradient id="linear-gradient" x1="0.5" x2="0.5" y2="1" gradientUnits="objectBoundingBox">
      <stop offset="0" stop-color="#cf67ee"/>
      <stop offset="1" stop-color="#713cf6"/>
    </linearGradient>
  </defs>
  <g id="Group_6126" data-name="Group 6126" transform="translate(-830 -859.258)">
    <path id="Polygon_6" data-name="Polygon 6" d="M40.806,0A4,4,0,0,1,44.27,2L56.332,22.887a4,4,0,0,1,0,4L44.27,47.775a4,4,0,0,1-3.464,2H16.681a4,4,0,0,1-3.464-2L1.155,26.888a4,4,0,0,1,0-4L13.217,2a4,4,0,0,1,3.464-2Z" transform="translate(879.775 859.258) rotate(90)" fill="url(#linear-gradient)"/>
    <g id="Iconly_Light_Message" data-name="Iconly/Light/Message" transform="translate(835.334 867.762)">
      <g id="Message" transform="translate(3.665 6.414)">
        <path id="Path_445" d="M18.274,0l-6.89,5.547a3.591,3.591,0,0,1-4.435,0L0,0" transform="translate(6.387 8.983)" fill="none" stroke="#fff" stroke-linecap="round" stroke-linejoin="round" stroke-miterlimit="10" stroke-width="2.5"/>
        <path id="Rectangle_511" d="M7.9,0H23.124a8.007,8.007,0,0,1,5.783,2.569,8.1,8.1,0,0,1,2.142,5.983V19.1a8.1,8.1,0,0,1-2.142,5.983,8.007,8.007,0,0,1-5.783,2.569H7.9C3.179,27.647,0,23.81,0,19.1V8.551C0,3.837,3.179,0,7.9,0Z" transform="translate(0 0)" fill="none" stroke="#fff" stroke-linecap="round" stroke-linejoin="round" stroke-miterlimit="10" stroke-width="2.5"/>
      </g>
    </g>
  </g>
</svg>
