<svg xmlns="http://www.w3.org/2000/svg" xmlns:xlink="http://www.w3.org/1999/xlink" width="49.775" height="57.487" viewBox="0 0 49.775 57.487">
  <defs>
    <linearGradient id="linear-gradient" x1="0.5" x2="0.5" y2="1" gradientUnits="objectBoundingBox">
      <stop offset="0" stop-color="#cf67ee"/>
      <stop offset="1" stop-color="#713cf6"/>
    </linearGradient>
  </defs>
  <g id="Group_6125" data-name="Group 6125" transform="translate(-830 -793.256)">
    <path id="Polygon_7" data-name="Polygon 7" d="M40.806,0A4,4,0,0,1,44.27,2L56.332,22.887a4,4,0,0,1,0,4L44.27,47.775a4,4,0,0,1-3.464,2H16.681a4,4,0,0,1-3.464-2L1.155,26.888a4,4,0,0,1,0-4L13.217,2a4,4,0,0,1,3.464-2Z" transform="translate(879.775 793.256) rotate(90)" fill="url(#linear-gradient)"/>
    <g id="Iconly_Light_Calling" data-name="Iconly/Light/Calling" transform="translate(836.147 803.338)">
      <g id="Calling" transform="translate(4.582 4.582)">
        <path id="Stroke_1" data-name="Stroke 1" d="M.726,3.518C1.195,2.74,3.78-.083,5.621,0A2.434,2.434,0,0,1,7.055.767h0c.907.889,3.51,4.243,3.656,4.949.361,1.732-1.7,2.73-1.073,4.476a14.632,14.632,0,0,0,8.328,8.324c1.744.633,2.743-1.431,4.475-1.071.706.148,4.063,2.749,4.95,3.657h0a2.429,2.429,0,0,1,.766,1.434c.068,1.941-2.93,4.56-3.515,4.895-1.379.988-3.178.97-5.372-.05C13.151,24.835,3.37,15.238.776,8.887-.216,6.706-.283,4.9.726,3.518Z" transform="translate(0 0)" fill="none" stroke="#fff" stroke-linecap="round" stroke-linejoin="round" stroke-miterlimit="10" stroke-width="2"/>
        <path id="Path" d="M0,0A11.813,11.813,0,0,1,10.435,10.422" transform="translate(17.882 0.371)" fill="none" stroke="#fff" stroke-linecap="round" stroke-linejoin="round" stroke-miterlimit="10" stroke-width="2"/>
        <path id="Path-2" data-name="Path" d="M0,0A6.559,6.559,0,0,1,5.184,5.184" transform="translate(17.882 5.621)" fill="none" stroke="#fff" stroke-linecap="round" stroke-linejoin="round" stroke-miterlimit="10" stroke-width="2"/>
      </g>
    </g>
  </g>
</svg>
