<svg xmlns="http://www.w3.org/2000/svg" xmlns:xlink="http://www.w3.org/1999/xlink" width="26.5" height="26.5" viewBox="0 0 26.5 26.5">
  <defs>
    <linearGradient id="linear-gradient" x1="0.5" x2="0.5" y2="1" gradientUnits="objectBoundingBox">
      <stop offset="0" stop-color="#cf67ee"/>
      <stop offset="1" stop-color="#713cf6"/>
    </linearGradient>
  </defs>
  <g id="Iconly_Light_Chat" data-name="Iconly/Light/Chat" transform="translate(0.75 0.75)">
    <g id="Chat">
      <path id="Combined_Shape" data-name="Combined Shape" d="M11.357,1.458a1.461,1.461,0,1,1,1.461,1.461A1.461,1.461,0,0,1,11.357,1.458Zm-5.678,0a1.46,1.46,0,1,1,1.46,1.461A1.461,1.461,0,0,1,5.679,1.458ZM0,1.458A1.461,1.461,0,1,1,1.46,2.919,1.461,1.461,0,0,1,0,1.458Z" transform="translate(5.658 11.32)" fill="url(#linear-gradient)"/>
      <path id="Stroke_7" data-name="Stroke 7" d="M12.525,0A12.508,12.508,0,0,0,0,12.519a13.23,13.23,0,0,0,1.688,6.246,1.313,1.313,0,0,1,.087,1.128L.938,22.7a.78.78,0,0,0,1.025.975l2.525-.75a2.121,2.121,0,0,1,1.863.451A12.5,12.5,0,1,0,12.525,0Z" fill="none" stroke="#a956f1" stroke-linecap="round" stroke-linejoin="round" stroke-miterlimit="10" stroke-width="1.5"/>
    </g>
  </g>
</svg>
