<svg width="14" height="17" viewBox="0 0 14 17" fill="none" xmlns="http://www.w3.org/2000/svg">
<path d="M13.4831 6.992C13.404 6.91467 13.1053 6.584 12.8271 6.312C11.1959 4.60133 6.94067 1.80133 4.71349 0.946667C4.37526 0.809333 3.52012 0.518667 3.06322 0.5C2.62543 0.5 2.20809 0.596 1.80984 0.790667C1.3134 1.06267 0.915149 1.49067 0.696931 1.996C0.556454 2.34667 0.338237 3.396 0.338237 3.41467C0.120019 4.56267 0 6.428 0 8.48933C0 10.4533 0.120019 12.2427 0.298685 13.408C0.319143 13.4267 0.53736 14.7307 0.776035 15.1773C1.21383 15.9933 2.06897 16.5 2.98412 16.5H3.06322C3.65923 16.48 4.91262 15.9733 4.91262 15.9547C7.01978 15.0987 11.1768 12.436 12.8475 10.6667C12.8475 10.6667 13.3181 10.212 13.5226 9.928C13.8418 9.52 14 9.01467 14 8.50933C14 7.94533 13.8213 7.42 13.4831 6.992Z" fill="url(#paint0_linear_1_1655)"/>
<defs>
<linearGradient id="paint0_linear_1_1655" x1="15.75" y1="-0.695402" x2="12.7266" y2="20.847" gradientUnits="userSpaceOnUse">
<stop stop-color="#5761D7"/>
<stop offset="0.14" stop-color="#5C60D5"/>
<stop offset="0.3" stop-color="#695BD1"/>
<stop offset="0.46" stop-color="#7F54C9"/>
<stop offset="0.63" stop-color="#9E4BBE"/>
<stop offset="0.8" stop-color="#C63EB0"/>
<stop offset="0.97" stop-color="#F62F9F"/>
<stop offset="1" stop-color="#FF2C9C"/>
</linearGradient>
</defs>
</svg>
