<svg width="18" height="17" viewBox="0 0 18 17" fill="none" xmlns="http://www.w3.org/2000/svg">
<path fill-rule="evenodd" clip-rule="evenodd" d="M3.85943 0.000447622C4.7851 0.0128782 5.44475 0.706507 6.27926 1.58411C6.48561 1.8004 6.70853 2.03658 6.95797 2.2852C8.16706 3.49511 7.82314 4.4821 7.54553 5.27434C7.24388 6.13869 6.98283 6.88452 8.54578 8.44747C10.1087 10.0104 10.8537 9.74937 11.7172 9.44523C12.5103 9.16844 13.4948 8.82204 14.7064 10.032C14.9525 10.2781 15.1846 10.4985 15.4 10.7032C16.2809 11.5419 16.9771 12.204 16.9888 13.1322C16.9978 13.9227 16.5171 14.7299 15.3304 15.9166L14.805 15.5603L15.25 15.9937C14.9873 16.263 14.2887 16.9807 12.9205 16.989H12.8957C10.8305 16.989 8.13805 15.3448 4.89283 12.1004C1.63435 8.84276 -0.0122917 6.142 6.90749e-05 4.07272C0.0075973 2.70535 0.72443 2.00509 0.99376 1.74239L1.01675 1.71729L1.07249 1.66118C2.26168 0.471983 3.07879 -0.0169552 3.85943 0.000447622ZM3.84369 1.24351H3.83706C3.46492 1.24351 2.89976 1.61643 2.11154 2.38207L1.95327 2.5375L1.95506 2.53712C1.95606 2.53712 1.94154 2.55264 1.91849 2.57614L1.86307 2.6316C1.66253 2.82634 1.24734 3.23158 1.24316 4.07935C1.23657 5.26523 2.01639 7.46711 5.77126 11.2212C9.50791 14.957 11.7065 15.7459 12.8957 15.7459H12.9131C13.7608 15.7409 14.1652 15.3257 14.36 15.126C14.4188 15.0655 14.4669 15.0199 14.5009 14.9926C15.3271 14.1614 15.7497 13.544 15.7456 13.1471C15.7406 12.7427 15.2376 12.2653 14.5423 11.6032C14.321 11.3935 14.0807 11.164 13.8271 10.9104C13.1691 10.2549 12.8451 10.3668 12.1283 10.6187C11.138 10.9659 9.78138 11.4416 7.66735 9.3259C5.55248 7.21186 6.0265 5.85527 6.37208 4.86413C6.62235 4.14813 6.73671 3.82245 6.07954 3.16445C5.82264 2.90756 5.59143 2.66391 5.37845 2.44016C4.72046 1.74902 4.24561 1.24931 3.84369 1.24351ZM10.9773 2.94858C12.7018 3.28337 14.0336 4.61428 14.3692 6.33965C14.4347 6.67776 14.2151 7.00344 13.8786 7.06891C13.838 7.07637 13.7982 7.08051 13.7584 7.08051C13.4667 7.08051 13.2073 6.87499 13.1493 6.57832C12.9107 5.35183 11.9651 4.40627 10.7403 4.16843C10.403 4.10297 10.1834 3.77728 10.2489 3.44C10.3143 3.10272 10.6458 2.88228 10.9773 2.94858ZM10.9277 0.00517126C14.3071 0.380576 16.9316 3.00178 17.3104 6.38042C17.3485 6.72185 17.1032 7.0293 16.7626 7.06742C16.7394 7.06991 16.7153 7.07156 16.6921 7.07156C16.3797 7.07156 16.1112 6.83704 16.0756 6.51964C15.7615 3.72193 13.5886 1.55071 10.7901 1.23995C10.4495 1.20183 10.2034 0.895204 10.2415 0.553776C10.2788 0.213177 10.5829 -0.0379216 10.9277 0.00517126Z" fill="url(#paint0_linear_34_304)"/>
<defs>
<linearGradient id="paint0_linear_34_304" x1="-1.29359" y1="19.1126" x2="22.1109" y2="16.1834" gradientUnits="userSpaceOnUse">
<stop stop-color="#5761D7"/>
<stop offset="0.14" stop-color="#5C60D5"/>
<stop offset="0.3" stop-color="#695BD1"/>
<stop offset="0.46" stop-color="#7F54C9"/>
<stop offset="0.63" stop-color="#9E4BBE"/>
<stop offset="0.8" stop-color="#C63EB0"/>
<stop offset="0.97" stop-color="#F62F9F"/>
<stop offset="1" stop-color="#FF2C9C"/>
</linearGradient>
</defs>
</svg>
