<svg width="19" height="19" viewBox="0 0 19 19" fill="none" xmlns="http://www.w3.org/2000/svg">
<path fill-rule="evenodd" clip-rule="evenodd" d="M8.66099 0C13.4367 0 17.3213 3.88461 17.3213 8.66034C17.3213 10.9135 16.4566 12.9685 15.0416 14.5108L17.8259 17.2893C18.0865 17.5499 18.0874 17.9714 17.8268 18.232C17.697 18.3636 17.5253 18.4285 17.3546 18.4285C17.1847 18.4285 17.014 18.3636 16.8832 18.2338L14.0653 15.4237C12.583 16.6109 10.7035 17.3216 8.66099 17.3216C3.88526 17.3216 -0.000244141 13.4361 -0.000244141 8.66034C-0.000244141 3.88461 3.88526 0 8.66099 0ZM8.66099 1.334C4.62074 1.334 1.33376 4.62009 1.33376 8.66034C1.33376 12.7006 4.62074 15.9876 8.66099 15.9876C12.7003 15.9876 15.9873 12.7006 15.9873 8.66034C15.9873 4.62009 12.7003 1.334 8.66099 1.334Z" fill="#2F2F2F"/>
</svg>
