<svg width="72" height="75" viewBox="0 0 72 75" fill="none" xmlns="http://www.w3.org/2000/svg">
<g filter="url(#filter0_d_89_598)">
<rect x="4" y="3" width="64" height="64" rx="32" fill="#40B3E0"/>
</g>
<rect x="8.5" y="7.5" width="55" height="55" rx="27.5" stroke="#FCFCFC"/>
<rect x="1.5" y="0.5" width="69" height="69" rx="34.5" stroke="#FCFCFC"/>
<path d="M47 25.7651L43.0459 45.7007C43.0459 45.7007 42.493 47.0832 40.9722 46.4196L31.8478 39.4242L28.53 37.8206L22.9448 35.9403C22.9448 35.9403 22.0877 35.6363 22.0047 34.9727C21.9217 34.3091 22.9725 33.9497 22.9725 33.9497L45.1749 25.24C45.1749 25.24 46.9998 24.4382 46.9998 25.7654" fill="white"/>
<path d="M31.1466 45.4765C31.1466 45.4765 30.8803 45.4516 30.5482 44.4008C30.2167 43.3501 28.5299 37.8203 28.5299 37.8203L41.94 29.3043C41.94 29.3043 42.7142 28.8342 42.6866 29.3043C42.6866 29.3043 42.8248 29.3873 42.4099 29.7744C41.9953 30.1616 31.8756 39.2582 31.8756 39.2582" fill="#D2E5F1"/>
<path d="M35.3466 42.1061L31.7376 45.3966C31.7376 45.3966 31.4554 45.6108 31.1469 45.4765L31.838 39.3646" fill="#B5CFE4"/>
<defs>
<filter id="filter0_d_89_598" x="0" y="3" width="72" height="72" filterUnits="userSpaceOnUse" color-interpolation-filters="sRGB">
<feFlood flood-opacity="0" result="BackgroundImageFix"/>
<feColorMatrix in="SourceAlpha" type="matrix" values="0 0 0 0 0 0 0 0 0 0 0 0 0 0 0 0 0 0 127 0" result="hardAlpha"/>
<feOffset dy="4"/>
<feGaussianBlur stdDeviation="2"/>
<feComposite in2="hardAlpha" operator="out"/>
<feColorMatrix type="matrix" values="0 0 0 0 0.6375 0 0 0 0 0.6375 0 0 0 0 0.6375 0 0 0 0.25 0"/>
<feBlend mode="normal" in2="BackgroundImageFix" result="effect1_dropShadow_89_598"/>
<feBlend mode="normal" in="SourceGraphic" in2="effect1_dropShadow_89_598" result="shape"/>
</filter>
</defs>
</svg>
