<svg width="19" height="17" viewBox="0 0 19 17" fill="none" xmlns="http://www.w3.org/2000/svg">
<path fill-rule="evenodd" clip-rule="evenodd" d="M13.6514 0C16.5545 0 18.7436 2.36867 18.7436 5.50974V11.4972C18.7436 13.1048 18.1752 14.5572 17.1421 15.5877C16.2154 16.5109 15.0132 17 13.6654 17H5.07559C3.73041 17 2.52908 16.5118 1.60149 15.5877C0.56841 14.5572 0 13.1048 0 11.4972V5.50974C0 2.36867 2.18908 0 5.09215 0H13.6514ZM13.6514 1.30769H5.09215C2.89959 1.30769 1.30769 3.07482 1.30769 5.50974V11.4972C1.30769 12.7552 1.7401 13.879 2.52472 14.661C3.20123 15.3366 4.08436 15.6923 5.07821 15.6923H13.6514C13.6532 15.6906 13.6602 15.6923 13.6654 15.6923C14.6601 15.6923 15.5424 15.3366 16.2189 14.661C17.0044 13.879 17.4359 12.7552 17.4359 11.4972V5.50974C17.4359 3.07482 15.844 1.30769 13.6514 1.30769ZM15.0254 5.34306C15.2529 5.6229 15.2102 6.03439 14.9304 6.2628L11.0561 9.41172C10.5662 9.80054 9.98031 9.99495 9.39533 9.99495C8.8121 9.99495 8.23062 9.80229 7.74415 9.41695L3.83415 6.26454C3.55256 6.03788 3.50897 5.62552 3.73477 5.3448C3.96231 5.06495 4.3738 5.02049 4.65451 5.24629L8.56103 8.39521C9.05185 8.78403 9.74318 8.78403 10.2375 8.39172L14.1048 5.24803C14.3855 5.01875 14.797 5.06234 15.0254 5.34306Z" fill="url(#paint0_linear_34_298)"/>
<defs>
<linearGradient id="paint0_linear_34_298" x1="-1.40038" y1="19.125" x2="23.8698" y2="15.7034" gradientUnits="userSpaceOnUse">
<stop stop-color="#5761D7"/>
<stop offset="0.14" stop-color="#5C60D5"/>
<stop offset="0.3" stop-color="#695BD1"/>
<stop offset="0.46" stop-color="#7F54C9"/>
<stop offset="0.63" stop-color="#9E4BBE"/>
<stop offset="0.8" stop-color="#C63EB0"/>
<stop offset="0.97" stop-color="#F62F9F"/>
<stop offset="1" stop-color="#FF2C9C"/>
</linearGradient>
</defs>
</svg>
