<svg width="12" height="14" viewBox="0 0 12 14" fill="none" xmlns="http://www.w3.org/2000/svg">
<path fill-rule="evenodd" clip-rule="evenodd" d="M11.1603 11.4093C11.1603 13.7316 7.97568 14 5.58086 14L5.40949 13.9999C3.88371 13.9961 0 13.8998 0 11.3952C0 9.12037 3.05665 8.81635 5.43325 8.80488L5.75223 8.80468C7.27791 8.80839 11.1603 8.90472 11.1603 11.4093ZM5.58086 9.86138C2.57871 9.86138 1.05685 10.3771 1.05685 11.3952C1.05685 12.4225 2.57871 12.9432 5.58086 12.9432C8.58231 12.9432 10.1035 12.4274 10.1035 11.4093C10.1035 10.3821 8.58231 9.86138 5.58086 9.86138ZM5.58086 0C7.64383 0 9.3214 1.67828 9.3214 3.74124C9.3214 5.80421 7.64383 7.48178 5.58086 7.48178H5.55832C3.49958 7.47544 1.83187 5.79646 1.83889 3.73913C1.83889 1.67828 3.51719 0 5.58086 0ZM5.58086 1.00612C4.07239 1.00612 2.84502 2.23277 2.84502 3.74124C2.8401 5.24479 4.0583 6.47073 5.56043 6.47637L5.58086 6.97943V6.47637C7.08863 6.47637 8.31528 5.24901 8.31528 3.74124C8.31528 2.23277 7.08863 1.00612 5.58086 1.00612Z" fill="#9E4BBE"/>
</svg>
