<svg width="20" height="20" viewBox="0 0 20 20" fill="none" xmlns="http://www.w3.org/2000/svg">
<path fill-rule="evenodd" clip-rule="evenodd" d="M9.61163 0C14.9115 0 19.2225 4.21587 19.2225 9.39884C19.2225 11.8441 18.2629 14.0744 16.6926 15.7482L19.7824 18.7636C20.0716 19.0464 20.0726 19.5039 19.7834 19.7867C19.6393 19.9295 19.4489 20 19.2594 20C19.0709 20 18.8814 19.9295 18.7363 19.7886L15.6091 16.739C13.9641 18.0273 11.8783 18.7986 9.61163 18.7986C4.31176 18.7986 -0.000183105 14.5818 -0.000183105 9.39884C-0.000183105 4.21587 4.31176 0 9.61163 0ZM9.61163 1.44776C5.12796 1.44776 1.48023 5.01407 1.48023 9.39884C1.48023 13.7836 5.12796 17.3509 9.61163 17.3509C14.0943 17.3509 17.742 13.7836 17.742 9.39884C17.742 5.01407 14.0943 1.44776 9.61163 1.44776Z" fill="#9E4BBE"/>
</svg>
