<svg width="20" height="24" viewBox="0 0 20 24" fill="none" xmlns="http://www.w3.org/2000/svg">
<path d="M10.6715 0.117134L18.4802 2.73708C19.3543 3.02895 19.9453 3.8319 19.9501 4.73174L19.9998 12.5443C20.0152 14.9127 19.1518 17.2096 17.5706 19.0093C16.8434 19.8354 15.9113 20.5449 14.7209 21.1794L10.5234 23.4232C10.392 23.4924 10.2475 23.5282 10.1018 23.5294C9.9561 23.5305 9.81042 23.4959 9.68014 23.4278L5.44355 21.2359C4.2402 20.6118 3.29979 19.9127 2.56546 19.0982C0.958235 17.3169 0.0651991 15.0304 0.0498019 12.6585L2.84429e-05 4.85172C-0.00468036 3.95072 0.575675 3.14201 1.44502 2.8386L9.22415 0.12521C9.68606 -0.0386087 10.2013 -0.0420697 10.6715 0.117134ZM14.4057 8.49254C14.0563 8.15682 13.4937 8.15913 13.149 8.49946L9.18601 12.4057L7.56339 10.846C7.21399 10.5103 6.65258 10.5137 6.30674 10.8541C5.96208 11.1944 5.96563 11.7412 6.31503 12.0769L8.56894 14.2458C8.74423 14.4142 8.97163 14.4973 9.19904 14.495C9.42644 14.4938 9.65266 14.4085 9.82558 14.2377L14.4128 9.71541C14.7574 9.37508 14.7539 8.82825 14.4057 8.49254Z" fill="#9B51E0"/>
</svg>
