<svg width="13" height="12" viewBox="0 0 13 12" fill="none" xmlns="http://www.w3.org/2000/svg">
<path d="M9.59516 7.12455C9.43905 7.27584 9.36732 7.49464 9.40288 7.70922L9.93873 10.6748C9.98394 10.9261 9.87785 11.1805 9.66749 11.3257C9.46135 11.4764 9.1871 11.4945 8.96227 11.374L6.29267 9.9816C6.19985 9.93218 6.09678 9.90566 5.9913 9.90264H5.82795C5.77129 9.91108 5.71584 9.92916 5.66521 9.95689L2.99501 11.3559C2.86301 11.4222 2.71352 11.4457 2.56705 11.4222C2.21022 11.3547 1.97214 11.0147 2.0306 10.6561L2.56705 7.69054C2.60262 7.47415 2.53089 7.25414 2.37477 7.10044L0.198231 4.9908C0.0161995 4.81419 -0.0470897 4.54898 0.0360904 4.30969C0.116859 4.071 0.323001 3.8968 0.571938 3.85762L3.56762 3.42304C3.79547 3.39953 3.99558 3.2609 4.09805 3.05596L5.41808 0.349597C5.44942 0.289322 5.48981 0.233868 5.53863 0.186854L5.59288 0.144661C5.62121 0.113318 5.65376 0.0873993 5.68992 0.0663029L5.75562 0.0421928L5.85809 0H6.11185C6.33848 0.0235074 6.53799 0.159127 6.64227 0.361652L7.97978 3.05596C8.07622 3.25306 8.26368 3.38989 8.48007 3.42304L11.4758 3.85762C11.7289 3.89379 11.9405 4.06859 12.0243 4.30969C12.1032 4.55139 12.0351 4.81661 11.8495 4.9908L9.59516 7.12455Z" fill="#FA9703"/>
</svg>
