<svg width="25" height="22" viewBox="0 0 25 22" fill="none" xmlns="http://www.w3.org/2000/svg">
<path d="M25 0.765103L21.0459 20.7007C21.0459 20.7007 20.493 22.0832 18.9722 21.4196L9.84784 14.4242L6.53 12.8206L0.944818 10.9403C0.944818 10.9403 0.0876869 10.6363 0.00467177 9.97269C-0.0783433 9.30909 0.97249 8.9497 0.97249 8.9497L23.1749 0.240033C23.1749 0.240033 24.9998 -0.561754 24.9998 0.76545" fill="white"/>
<path d="M9.14673 20.4765C9.14673 20.4765 8.88039 20.4516 8.54833 19.4007C8.21679 18.3501 6.53003 12.8202 6.53003 12.8202L19.9401 4.30426C19.9401 4.30426 20.7144 3.83419 20.6867 4.30426C20.6867 4.30426 20.8249 4.38727 20.41 4.77433C19.9954 5.16156 9.87571 14.2581 9.87571 14.2581" fill="#D2E5F1"/>
<path d="M13.3464 17.1061L9.73752 20.3966C9.73752 20.3966 9.45527 20.6107 9.14673 20.4765L9.83783 14.3645" fill="#B5CFE4"/>
</svg>
