<svg width="21" height="22" viewBox="0 0 21 22" fill="none" xmlns="http://www.w3.org/2000/svg">
<path d="M17.932 3.19831C16.9649 2.18037 15.8132 1.37334 14.544 0.824247C13.2749 0.275158 11.9136 -0.00501086 10.5395 6.78293e-05C4.78195 6.78293e-05 0.0896534 4.8923 0.0843797 10.8983C0.0843797 12.8219 0.566926 14.6933 1.47796 16.3501L0 22L5.54269 20.4848C7.07603 21.355 8.79385 21.8112 10.5395 21.8116H10.5448C16.3037 21.8116 20.9947 16.9194 21 10.9079C21.0013 9.47522 20.7308 8.05643 20.204 6.73325C19.6772 5.41008 18.9059 4.2087 17.932 3.19831ZM10.5395 19.9664C8.98248 19.9669 7.45403 19.5299 6.11489 18.7014L5.79847 18.5034L2.5103 19.4026L3.38837 16.0573L3.1827 15.7121C2.31228 14.2688 1.85193 12.5978 1.85503 10.8928C1.85503 5.90705 5.75364 1.83981 10.5448 1.83981C11.6862 1.83768 12.8168 2.07119 13.8713 2.52689C14.9257 2.98258 15.8833 3.65145 16.6887 4.49493C17.497 5.33512 18.1377 6.33388 18.574 7.43361C19.0103 8.53334 19.2334 9.71227 19.2307 10.9024C19.2254 15.906 15.3268 19.9664 10.5395 19.9664ZM15.3057 13.1822C15.046 13.046 13.7631 12.3874 13.5218 12.2939C13.2819 12.2045 13.1065 12.1578 12.9351 12.43C12.7598 12.7009 12.2588 13.3183 12.1085 13.4957C11.9582 13.6785 11.8026 13.6992 11.5416 13.5644C11.2818 13.4269 10.4393 13.1409 9.44261 12.21C8.66474 11.4882 8.14396 10.5944 7.98838 10.3235C7.83808 10.0513 7.97388 9.90554 8.1044 9.76941C8.21911 9.64841 8.36414 9.45041 8.49466 9.29366C8.6265 9.13691 8.67001 9.02141 8.75571 8.83992C8.84141 8.65567 8.80054 8.49892 8.73593 8.36279C8.67001 8.22667 8.14923 6.8833 7.92905 6.34155C7.7181 5.80667 7.5032 5.88092 7.34235 5.87405C7.19205 5.86442 7.0167 5.86442 6.84135 5.86442C6.70893 5.86786 6.57862 5.8998 6.4586 5.95824C6.33858 6.01669 6.23143 6.10037 6.1439 6.20405C5.90394 6.4763 5.23286 7.13492 5.23286 8.47829C5.23286 9.82166 6.16895 11.1128 6.30079 11.2957C6.43 11.4785 8.13868 14.2271 10.761 15.4096C11.3807 15.6915 11.8685 15.8579 12.2496 15.9844C12.8758 16.1934 13.4414 16.1618 13.8923 16.0944C14.3933 16.0146 15.4362 15.4344 15.6564 14.7978C15.8726 14.1598 15.8726 13.6153 15.8067 13.5012C15.7421 13.3857 15.5667 13.3183 15.3057 13.1822Z" fill="url(#paint0_linear_34_279)"/>
<defs>
<linearGradient id="paint0_linear_34_279" x1="-1.56897" y1="24.75" x2="26.8715" y2="21.4161" gradientUnits="userSpaceOnUse">
<stop stop-color="#5761D7"/>
<stop offset="0.14" stop-color="#5C60D5"/>
<stop offset="0.3" stop-color="#695BD1"/>
<stop offset="0.46" stop-color="#7F54C9"/>
<stop offset="0.63" stop-color="#9E4BBE"/>
<stop offset="0.8" stop-color="#C63EB0"/>
<stop offset="0.97" stop-color="#F62F9F"/>
<stop offset="1" stop-color="#FF2C9C"/>
</linearGradient>
</defs>
</svg>
